G04 EAGLE Gerber RS-274X export*
G75*
%MOMM*%
%FSLAX34Y34*%
%LPD*%
%INSilkscreen Bottom*%
%IPPOS*%
%AMOC8*
5,1,8,0,0,1.08239X$1,22.5*%
G01*
%ADD10C,0.304800*%
%ADD11C,0.152400*%
%ADD12C,0.127000*%


D10*
X149225Y139700D02*
X168275Y139700D01*
X158750Y149225D02*
X158750Y130175D01*
X92075Y19050D02*
X73025Y19050D01*
D11*
X69088Y115651D02*
X56377Y115651D01*
X56377Y119888D02*
X56377Y111414D01*
X60614Y106791D02*
X69088Y106791D01*
X64851Y106791D02*
X60614Y102554D01*
X60614Y100435D01*
X60614Y95876D02*
X60614Y93758D01*
X69088Y93758D01*
X69088Y95876D02*
X69088Y91639D01*
X56377Y93758D02*
X54259Y93758D01*
X58496Y85026D02*
X66970Y85026D01*
X69088Y82908D01*
X60614Y82908D02*
X60614Y87145D01*
X60614Y78413D02*
X60614Y76295D01*
X69088Y76295D01*
X69088Y78413D02*
X69088Y74176D01*
X56377Y76295D02*
X54259Y76295D01*
X56377Y69682D02*
X69088Y69682D01*
X69088Y61208D01*
X56377Y56585D02*
X56377Y48111D01*
X56377Y56585D02*
X69088Y56585D01*
X69088Y48111D01*
X62733Y52348D02*
X62733Y56585D01*
X56377Y43487D02*
X69088Y43487D01*
X69088Y37132D01*
X66970Y35013D01*
X58496Y35013D01*
X56377Y37132D01*
X56377Y43487D01*
X180213Y95539D02*
X180213Y104013D01*
X171739Y95539D01*
X169621Y95539D01*
X167502Y97658D01*
X167502Y101895D01*
X169621Y104013D01*
X169621Y90916D02*
X178095Y90916D01*
X169621Y90916D02*
X167502Y88797D01*
X167502Y84560D01*
X169621Y82442D01*
X178095Y82442D01*
X180213Y84560D01*
X180213Y88797D01*
X178095Y90916D01*
X169621Y82442D01*
X180213Y77819D02*
X180213Y69345D01*
X180213Y77819D02*
X171739Y69345D01*
X169621Y69345D01*
X167502Y71463D01*
X167502Y75700D01*
X169621Y77819D01*
X169621Y64721D02*
X178095Y64721D01*
X169621Y64721D02*
X167502Y62603D01*
X167502Y58366D01*
X169621Y56247D01*
X178095Y56247D01*
X180213Y58366D01*
X180213Y62603D01*
X178095Y64721D01*
X169621Y56247D01*
D12*
X80650Y79375D02*
X80662Y80357D01*
X80698Y81338D01*
X80758Y82318D01*
X80843Y83296D01*
X80951Y84271D01*
X81083Y85244D01*
X81239Y86213D01*
X81419Y87179D01*
X81622Y88139D01*
X81849Y89094D01*
X82099Y90044D01*
X82372Y90986D01*
X82669Y91922D01*
X82988Y92851D01*
X83330Y93771D01*
X83695Y94682D01*
X84082Y95585D01*
X84490Y96477D01*
X84921Y97359D01*
X85373Y98231D01*
X85847Y99091D01*
X86341Y99939D01*
X86856Y100775D01*
X87391Y101598D01*
X87947Y102407D01*
X88522Y103203D01*
X89116Y103984D01*
X89730Y104751D01*
X90362Y105502D01*
X91012Y106237D01*
X91680Y106957D01*
X92366Y107659D01*
X93068Y108345D01*
X93788Y109013D01*
X94523Y109663D01*
X95274Y110295D01*
X96041Y110909D01*
X96822Y111503D01*
X97618Y112078D01*
X98427Y112634D01*
X99250Y113169D01*
X100086Y113684D01*
X100934Y114178D01*
X101794Y114652D01*
X102666Y115104D01*
X103548Y115535D01*
X104440Y115943D01*
X105343Y116330D01*
X106254Y116695D01*
X107174Y117037D01*
X108103Y117356D01*
X109039Y117653D01*
X109981Y117926D01*
X110931Y118176D01*
X111886Y118403D01*
X112846Y118606D01*
X113812Y118786D01*
X114781Y118942D01*
X115754Y119074D01*
X116729Y119182D01*
X117707Y119267D01*
X118687Y119327D01*
X119668Y119363D01*
X120650Y119375D01*
X121632Y119363D01*
X122613Y119327D01*
X123593Y119267D01*
X124571Y119182D01*
X125546Y119074D01*
X126519Y118942D01*
X127488Y118786D01*
X128454Y118606D01*
X129414Y118403D01*
X130369Y118176D01*
X131319Y117926D01*
X132261Y117653D01*
X133197Y117356D01*
X134126Y117037D01*
X135046Y116695D01*
X135957Y116330D01*
X136860Y115943D01*
X137752Y115535D01*
X138634Y115104D01*
X139506Y114652D01*
X140366Y114178D01*
X141214Y113684D01*
X142050Y113169D01*
X142873Y112634D01*
X143682Y112078D01*
X144478Y111503D01*
X145259Y110909D01*
X146026Y110295D01*
X146777Y109663D01*
X147512Y109013D01*
X148232Y108345D01*
X148934Y107659D01*
X149620Y106957D01*
X150288Y106237D01*
X150938Y105502D01*
X151570Y104751D01*
X152184Y103984D01*
X152778Y103203D01*
X153353Y102407D01*
X153909Y101598D01*
X154444Y100775D01*
X154959Y99939D01*
X155453Y99091D01*
X155927Y98231D01*
X156379Y97359D01*
X156810Y96477D01*
X157218Y95585D01*
X157605Y94682D01*
X157970Y93771D01*
X158312Y92851D01*
X158631Y91922D01*
X158928Y90986D01*
X159201Y90044D01*
X159451Y89094D01*
X159678Y88139D01*
X159881Y87179D01*
X160061Y86213D01*
X160217Y85244D01*
X160349Y84271D01*
X160457Y83296D01*
X160542Y82318D01*
X160602Y81338D01*
X160638Y80357D01*
X160650Y79375D01*
X160638Y78393D01*
X160602Y77412D01*
X160542Y76432D01*
X160457Y75454D01*
X160349Y74479D01*
X160217Y73506D01*
X160061Y72537D01*
X159881Y71571D01*
X159678Y70611D01*
X159451Y69656D01*
X159201Y68706D01*
X158928Y67764D01*
X158631Y66828D01*
X158312Y65899D01*
X157970Y64979D01*
X157605Y64068D01*
X157218Y63165D01*
X156810Y62273D01*
X156379Y61391D01*
X155927Y60519D01*
X155453Y59659D01*
X154959Y58811D01*
X154444Y57975D01*
X153909Y57152D01*
X153353Y56343D01*
X152778Y55547D01*
X152184Y54766D01*
X151570Y53999D01*
X150938Y53248D01*
X150288Y52513D01*
X149620Y51793D01*
X148934Y51091D01*
X148232Y50405D01*
X147512Y49737D01*
X146777Y49087D01*
X146026Y48455D01*
X145259Y47841D01*
X144478Y47247D01*
X143682Y46672D01*
X142873Y46116D01*
X142050Y45581D01*
X141214Y45066D01*
X140366Y44572D01*
X139506Y44098D01*
X138634Y43646D01*
X137752Y43215D01*
X136860Y42807D01*
X135957Y42420D01*
X135046Y42055D01*
X134126Y41713D01*
X133197Y41394D01*
X132261Y41097D01*
X131319Y40824D01*
X130369Y40574D01*
X129414Y40347D01*
X128454Y40144D01*
X127488Y39964D01*
X126519Y39808D01*
X125546Y39676D01*
X124571Y39568D01*
X123593Y39483D01*
X122613Y39423D01*
X121632Y39387D01*
X120650Y39375D01*
X119668Y39387D01*
X118687Y39423D01*
X117707Y39483D01*
X116729Y39568D01*
X115754Y39676D01*
X114781Y39808D01*
X113812Y39964D01*
X112846Y40144D01*
X111886Y40347D01*
X110931Y40574D01*
X109981Y40824D01*
X109039Y41097D01*
X108103Y41394D01*
X107174Y41713D01*
X106254Y42055D01*
X105343Y42420D01*
X104440Y42807D01*
X103548Y43215D01*
X102666Y43646D01*
X101794Y44098D01*
X100934Y44572D01*
X100086Y45066D01*
X99250Y45581D01*
X98427Y46116D01*
X97618Y46672D01*
X96822Y47247D01*
X96041Y47841D01*
X95274Y48455D01*
X94523Y49087D01*
X93788Y49737D01*
X93068Y50405D01*
X92366Y51091D01*
X91680Y51793D01*
X91012Y52513D01*
X90362Y53248D01*
X89730Y53999D01*
X89116Y54766D01*
X88522Y55547D01*
X87947Y56343D01*
X87391Y57152D01*
X86856Y57975D01*
X86341Y58811D01*
X85847Y59659D01*
X85373Y60519D01*
X84921Y61391D01*
X84490Y62273D01*
X84082Y63165D01*
X83695Y64068D01*
X83330Y64979D01*
X82988Y65899D01*
X82669Y66828D01*
X82372Y67764D01*
X82099Y68706D01*
X81849Y69656D01*
X81622Y70611D01*
X81419Y71571D01*
X81239Y72537D01*
X81083Y73506D01*
X80951Y74479D01*
X80843Y75454D01*
X80758Y76432D01*
X80698Y77412D01*
X80662Y78393D01*
X80650Y79375D01*
X90650Y79375D02*
X90659Y80111D01*
X90686Y80847D01*
X90731Y81582D01*
X90794Y82316D01*
X90876Y83047D01*
X90975Y83777D01*
X91092Y84504D01*
X91226Y85228D01*
X91379Y85948D01*
X91549Y86664D01*
X91737Y87376D01*
X91942Y88084D01*
X92164Y88785D01*
X92404Y89482D01*
X92660Y90172D01*
X92934Y90856D01*
X93224Y91532D01*
X93530Y92202D01*
X93853Y92863D01*
X94192Y93517D01*
X94547Y94162D01*
X94918Y94798D01*
X95304Y95425D01*
X95706Y96042D01*
X96122Y96649D01*
X96554Y97246D01*
X97000Y97832D01*
X97460Y98407D01*
X97934Y98970D01*
X98421Y99522D01*
X98923Y100061D01*
X99437Y100588D01*
X99964Y101102D01*
X100503Y101604D01*
X101055Y102091D01*
X101618Y102565D01*
X102193Y103025D01*
X102779Y103471D01*
X103376Y103903D01*
X103983Y104319D01*
X104600Y104721D01*
X105227Y105107D01*
X105863Y105478D01*
X106508Y105833D01*
X107162Y106172D01*
X107823Y106495D01*
X108493Y106801D01*
X109169Y107091D01*
X109853Y107365D01*
X110543Y107621D01*
X111240Y107861D01*
X111941Y108083D01*
X112649Y108288D01*
X113361Y108476D01*
X114077Y108646D01*
X114797Y108799D01*
X115521Y108933D01*
X116248Y109050D01*
X116978Y109149D01*
X117709Y109231D01*
X118443Y109294D01*
X119178Y109339D01*
X119914Y109366D01*
X120650Y109375D01*
X121386Y109366D01*
X122122Y109339D01*
X122857Y109294D01*
X123591Y109231D01*
X124322Y109149D01*
X125052Y109050D01*
X125779Y108933D01*
X126503Y108799D01*
X127223Y108646D01*
X127939Y108476D01*
X128651Y108288D01*
X129359Y108083D01*
X130060Y107861D01*
X130757Y107621D01*
X131447Y107365D01*
X132131Y107091D01*
X132807Y106801D01*
X133477Y106495D01*
X134138Y106172D01*
X134792Y105833D01*
X135437Y105478D01*
X136073Y105107D01*
X136700Y104721D01*
X137317Y104319D01*
X137924Y103903D01*
X138521Y103471D01*
X139107Y103025D01*
X139682Y102565D01*
X140245Y102091D01*
X140797Y101604D01*
X141336Y101102D01*
X141863Y100588D01*
X142377Y100061D01*
X142879Y99522D01*
X143366Y98970D01*
X143840Y98407D01*
X144300Y97832D01*
X144746Y97246D01*
X145178Y96649D01*
X145594Y96042D01*
X145996Y95425D01*
X146382Y94798D01*
X146753Y94162D01*
X147108Y93517D01*
X147447Y92863D01*
X147770Y92202D01*
X148076Y91532D01*
X148366Y90856D01*
X148640Y90172D01*
X148896Y89482D01*
X149136Y88785D01*
X149358Y88084D01*
X149563Y87376D01*
X149751Y86664D01*
X149921Y85948D01*
X150074Y85228D01*
X150208Y84504D01*
X150325Y83777D01*
X150424Y83047D01*
X150506Y82316D01*
X150569Y81582D01*
X150614Y80847D01*
X150641Y80111D01*
X150650Y79375D01*
X150641Y78639D01*
X150614Y77903D01*
X150569Y77168D01*
X150506Y76434D01*
X150424Y75703D01*
X150325Y74973D01*
X150208Y74246D01*
X150074Y73522D01*
X149921Y72802D01*
X149751Y72086D01*
X149563Y71374D01*
X149358Y70666D01*
X149136Y69965D01*
X148896Y69268D01*
X148640Y68578D01*
X148366Y67894D01*
X148076Y67218D01*
X147770Y66548D01*
X147447Y65887D01*
X147108Y65233D01*
X146753Y64588D01*
X146382Y63952D01*
X145996Y63325D01*
X145594Y62708D01*
X145178Y62101D01*
X144746Y61504D01*
X144300Y60918D01*
X143840Y60343D01*
X143366Y59780D01*
X142879Y59228D01*
X142377Y58689D01*
X141863Y58162D01*
X141336Y57648D01*
X140797Y57146D01*
X140245Y56659D01*
X139682Y56185D01*
X139107Y55725D01*
X138521Y55279D01*
X137924Y54847D01*
X137317Y54431D01*
X136700Y54029D01*
X136073Y53643D01*
X135437Y53272D01*
X134792Y52917D01*
X134138Y52578D01*
X133477Y52255D01*
X132807Y51949D01*
X132131Y51659D01*
X131447Y51385D01*
X130757Y51129D01*
X130060Y50889D01*
X129359Y50667D01*
X128651Y50462D01*
X127939Y50274D01*
X127223Y50104D01*
X126503Y49951D01*
X125779Y49817D01*
X125052Y49700D01*
X124322Y49601D01*
X123591Y49519D01*
X122857Y49456D01*
X122122Y49411D01*
X121386Y49384D01*
X120650Y49375D01*
X119914Y49384D01*
X119178Y49411D01*
X118443Y49456D01*
X117709Y49519D01*
X116978Y49601D01*
X116248Y49700D01*
X115521Y49817D01*
X114797Y49951D01*
X114077Y50104D01*
X113361Y50274D01*
X112649Y50462D01*
X111941Y50667D01*
X111240Y50889D01*
X110543Y51129D01*
X109853Y51385D01*
X109169Y51659D01*
X108493Y51949D01*
X107823Y52255D01*
X107162Y52578D01*
X106508Y52917D01*
X105863Y53272D01*
X105227Y53643D01*
X104600Y54029D01*
X103983Y54431D01*
X103376Y54847D01*
X102779Y55279D01*
X102193Y55725D01*
X101618Y56185D01*
X101055Y56659D01*
X100503Y57146D01*
X99964Y57648D01*
X99437Y58162D01*
X98923Y58689D01*
X98421Y59228D01*
X97934Y59780D01*
X97460Y60343D01*
X97000Y60918D01*
X96554Y61504D01*
X96122Y62101D01*
X95706Y62708D01*
X95304Y63325D01*
X94918Y63952D01*
X94547Y64588D01*
X94192Y65233D01*
X93853Y65887D01*
X93530Y66548D01*
X93224Y67218D01*
X92934Y67894D01*
X92660Y68578D01*
X92404Y69268D01*
X92164Y69965D01*
X91942Y70666D01*
X91737Y71374D01*
X91549Y72086D01*
X91379Y72802D01*
X91226Y73522D01*
X91092Y74246D01*
X90975Y74973D01*
X90876Y75703D01*
X90794Y76434D01*
X90731Y77168D01*
X90686Y77903D01*
X90659Y78639D01*
X90650Y79375D01*
X135650Y41875D02*
X135650Y31875D01*
X113150Y31875D01*
X113150Y29375D01*
X105650Y29375D01*
X105650Y41875D01*
X105650Y116875D02*
X105650Y126875D01*
X128150Y126875D01*
X128150Y129375D01*
X135650Y129375D01*
X135650Y116875D01*
X133150Y34375D02*
X118150Y34375D01*
X118150Y36875D01*
X133150Y36875D01*
X133150Y34375D01*
X128150Y79375D02*
X113150Y79375D01*
X120650Y71875D02*
X120650Y86875D01*
M02*
