G04 EAGLE Gerber RS-274X export*
G75*
%MOMM*%
%FSLAX34Y34*%
%LPD*%
%INSoldermask Top*%
%IPPOS*%
%AMOC8*
5,1,8,0,0,1.08239X$1,22.5*%
G01*
%ADD10R,1.473200X1.473200*%
%ADD11C,0.040638*%
%ADD12R,1.203200X1.603200*%
%ADD13C,2.743200*%
%ADD14R,1.803200X2.103200*%
%ADD15R,0.753200X1.703200*%
%ADD16R,1.803200X1.103200*%
%ADD17R,1.003200X1.003200*%

G36*
X95749Y89258D02*
X95749Y89258D01*
X95848Y89272D01*
X95859Y89278D01*
X95871Y89280D01*
X95957Y89331D01*
X96045Y89379D01*
X96053Y89388D01*
X96064Y89395D01*
X96127Y89472D01*
X96193Y89548D01*
X96198Y89560D01*
X96205Y89569D01*
X96220Y89613D01*
X96265Y89721D01*
X97070Y92928D01*
X98369Y95912D01*
X100140Y98643D01*
X102336Y101046D01*
X104895Y103056D01*
X107750Y104620D01*
X110823Y105693D01*
X114030Y106248D01*
X117284Y106270D01*
X120550Y105749D01*
X120580Y105749D01*
X120728Y105746D01*
X123977Y106149D01*
X127199Y106041D01*
X130364Y105430D01*
X133395Y104331D01*
X136217Y102772D01*
X138760Y100790D01*
X140962Y98435D01*
X142768Y95765D01*
X144134Y92845D01*
X145041Y89699D01*
X145080Y89619D01*
X145114Y89537D01*
X145129Y89519D01*
X145140Y89498D01*
X145205Y89437D01*
X145265Y89371D01*
X145286Y89360D01*
X145303Y89344D01*
X145385Y89309D01*
X145465Y89268D01*
X145490Y89265D01*
X145510Y89257D01*
X145560Y89254D01*
X145650Y89241D01*
X157150Y89241D01*
X157215Y89252D01*
X157281Y89254D01*
X157324Y89272D01*
X157371Y89280D01*
X157428Y89314D01*
X157488Y89339D01*
X157523Y89370D01*
X157564Y89395D01*
X157606Y89446D01*
X157654Y89490D01*
X157676Y89532D01*
X157705Y89569D01*
X157726Y89631D01*
X157757Y89690D01*
X157765Y89744D01*
X157777Y89781D01*
X157776Y89821D01*
X157784Y89875D01*
X157784Y115875D01*
X157773Y115940D01*
X157771Y116006D01*
X157753Y116049D01*
X157745Y116096D01*
X157711Y116153D01*
X157686Y116213D01*
X157655Y116248D01*
X157630Y116289D01*
X157579Y116331D01*
X157535Y116379D01*
X157493Y116401D01*
X157456Y116430D01*
X157394Y116451D01*
X157335Y116482D01*
X157281Y116490D01*
X157244Y116502D01*
X157204Y116501D01*
X157150Y116509D01*
X84150Y116509D01*
X84085Y116498D01*
X84019Y116496D01*
X83976Y116478D01*
X83929Y116470D01*
X83872Y116436D01*
X83812Y116411D01*
X83777Y116380D01*
X83736Y116355D01*
X83695Y116304D01*
X83646Y116260D01*
X83624Y116218D01*
X83595Y116181D01*
X83574Y116119D01*
X83543Y116060D01*
X83535Y116006D01*
X83523Y115969D01*
X83524Y115929D01*
X83516Y115875D01*
X83516Y89875D01*
X83527Y89810D01*
X83529Y89744D01*
X83547Y89701D01*
X83555Y89654D01*
X83589Y89597D01*
X83614Y89537D01*
X83645Y89502D01*
X83670Y89461D01*
X83721Y89420D01*
X83765Y89371D01*
X83807Y89349D01*
X83844Y89320D01*
X83906Y89299D01*
X83965Y89268D01*
X84019Y89260D01*
X84056Y89248D01*
X84096Y89249D01*
X84150Y89241D01*
X95650Y89241D01*
X95749Y89258D01*
G37*
G36*
X157215Y42252D02*
X157215Y42252D01*
X157281Y42254D01*
X157324Y42272D01*
X157371Y42280D01*
X157428Y42314D01*
X157488Y42339D01*
X157523Y42370D01*
X157564Y42395D01*
X157606Y42446D01*
X157654Y42490D01*
X157676Y42532D01*
X157705Y42569D01*
X157726Y42631D01*
X157757Y42690D01*
X157765Y42744D01*
X157777Y42781D01*
X157776Y42821D01*
X157784Y42875D01*
X157784Y68875D01*
X157773Y68940D01*
X157771Y69006D01*
X157753Y69049D01*
X157745Y69096D01*
X157711Y69153D01*
X157686Y69213D01*
X157655Y69248D01*
X157630Y69289D01*
X157579Y69331D01*
X157535Y69379D01*
X157493Y69401D01*
X157456Y69430D01*
X157394Y69451D01*
X157335Y69482D01*
X157281Y69490D01*
X157244Y69502D01*
X157204Y69501D01*
X157150Y69509D01*
X145650Y69509D01*
X145551Y69492D01*
X145452Y69478D01*
X145441Y69472D01*
X145429Y69470D01*
X145343Y69419D01*
X145255Y69371D01*
X145247Y69362D01*
X145236Y69355D01*
X145173Y69278D01*
X145107Y69202D01*
X145102Y69190D01*
X145095Y69181D01*
X145080Y69137D01*
X145035Y69029D01*
X144230Y65822D01*
X142931Y62838D01*
X141160Y60107D01*
X138964Y57704D01*
X136405Y55694D01*
X133550Y54130D01*
X130477Y53057D01*
X127270Y52502D01*
X124016Y52480D01*
X120750Y53001D01*
X120721Y53001D01*
X120572Y53004D01*
X117323Y52601D01*
X114101Y52709D01*
X110936Y53320D01*
X107905Y54419D01*
X105083Y55978D01*
X102540Y57960D01*
X100338Y60315D01*
X98532Y62985D01*
X97166Y65905D01*
X96259Y69051D01*
X96220Y69131D01*
X96186Y69213D01*
X96171Y69231D01*
X96160Y69252D01*
X96095Y69313D01*
X96035Y69379D01*
X96014Y69390D01*
X95997Y69406D01*
X95915Y69441D01*
X95835Y69482D01*
X95810Y69485D01*
X95791Y69494D01*
X95740Y69496D01*
X95650Y69509D01*
X84150Y69509D01*
X84085Y69498D01*
X84019Y69496D01*
X83976Y69478D01*
X83929Y69470D01*
X83872Y69436D01*
X83812Y69411D01*
X83777Y69380D01*
X83736Y69355D01*
X83695Y69304D01*
X83646Y69260D01*
X83624Y69218D01*
X83595Y69181D01*
X83574Y69119D01*
X83543Y69060D01*
X83535Y69006D01*
X83523Y68969D01*
X83524Y68929D01*
X83516Y68875D01*
X83516Y42875D01*
X83527Y42810D01*
X83529Y42744D01*
X83547Y42701D01*
X83555Y42654D01*
X83589Y42597D01*
X83614Y42537D01*
X83645Y42502D01*
X83670Y42461D01*
X83721Y42420D01*
X83765Y42371D01*
X83807Y42349D01*
X83844Y42320D01*
X83906Y42299D01*
X83965Y42268D01*
X84019Y42260D01*
X84056Y42248D01*
X84096Y42249D01*
X84150Y42241D01*
X157150Y42241D01*
X157215Y42252D01*
G37*
D10*
X150650Y49375D03*
X150650Y109375D03*
D11*
X92444Y67580D02*
X95816Y68998D01*
X96083Y68394D01*
X96366Y67797D01*
X96663Y67208D01*
X96974Y66626D01*
X97300Y66051D01*
X97639Y65485D01*
X97992Y64927D01*
X98359Y64378D01*
X98738Y63838D01*
X99131Y63307D01*
X99537Y62786D01*
X99955Y62275D01*
X100386Y61775D01*
X100829Y61285D01*
X101283Y60806D01*
X101749Y60339D01*
X102227Y59882D01*
X102715Y59438D01*
X103214Y59006D01*
X103723Y58586D01*
X104243Y58178D01*
X104772Y57783D01*
X105311Y57402D01*
X105859Y57033D01*
X106415Y56678D01*
X106981Y56337D01*
X107554Y56010D01*
X108135Y55697D01*
X108724Y55398D01*
X109320Y55113D01*
X109922Y54843D01*
X110531Y54588D01*
X111146Y54348D01*
X111767Y54122D01*
X112393Y53912D01*
X113023Y53718D01*
X113659Y53539D01*
X114298Y53375D01*
X114942Y53227D01*
X115589Y53095D01*
X116239Y52978D01*
X116891Y52878D01*
X117546Y52793D01*
X118203Y52724D01*
X118861Y52672D01*
X119520Y52635D01*
X120180Y52615D01*
X120840Y52610D01*
X121500Y52622D01*
X122160Y52650D01*
X122819Y52694D01*
X123476Y52754D01*
X124132Y52830D01*
X124786Y52922D01*
X125437Y53030D01*
X126086Y53154D01*
X126731Y53293D01*
X127373Y53448D01*
X128010Y53619D01*
X128644Y53806D01*
X129272Y54007D01*
X129896Y54224D01*
X130514Y54456D01*
X131126Y54704D01*
X131732Y54966D01*
X132332Y55242D01*
X132924Y55534D01*
X133510Y55839D01*
X134087Y56159D01*
X134657Y56493D01*
X135218Y56840D01*
X135771Y57201D01*
X136315Y57576D01*
X136849Y57964D01*
X137374Y58364D01*
X137889Y58778D01*
X138393Y59203D01*
X138887Y59641D01*
X139371Y60091D01*
X139843Y60553D01*
X140304Y61025D01*
X140753Y61509D01*
X141190Y62004D01*
X141615Y62509D01*
X142027Y63025D01*
X142427Y63550D01*
X142814Y64085D01*
X143188Y64629D01*
X143548Y65183D01*
X143895Y65745D01*
X144228Y66315D01*
X144547Y66893D01*
X144852Y67478D01*
X145142Y68071D01*
X145418Y68671D01*
X145679Y69278D01*
X149066Y67898D01*
X149067Y67897D01*
X148771Y67208D01*
X148458Y66527D01*
X148129Y65853D01*
X147783Y65187D01*
X147421Y64530D01*
X147043Y63882D01*
X146650Y63244D01*
X146241Y62615D01*
X145817Y61996D01*
X145378Y61388D01*
X144924Y60791D01*
X144456Y60205D01*
X143974Y59631D01*
X143477Y59068D01*
X142967Y58518D01*
X142444Y57981D01*
X141908Y57456D01*
X141359Y56945D01*
X140798Y56447D01*
X140225Y55963D01*
X139641Y55493D01*
X139045Y55038D01*
X138438Y54597D01*
X137820Y54172D01*
X137193Y53761D01*
X136555Y53366D01*
X135908Y52986D01*
X135252Y52623D01*
X134588Y52276D01*
X133915Y51944D01*
X133234Y51630D01*
X132545Y51332D01*
X131850Y51051D01*
X131148Y50787D01*
X130440Y50540D01*
X129725Y50311D01*
X129006Y50099D01*
X128282Y49905D01*
X127553Y49729D01*
X126820Y49570D01*
X126083Y49429D01*
X125343Y49307D01*
X124600Y49202D01*
X123855Y49116D01*
X123108Y49047D01*
X122360Y48998D01*
X121611Y48966D01*
X120861Y48952D01*
X120111Y48957D01*
X119361Y48981D01*
X118612Y49022D01*
X117864Y49082D01*
X117118Y49160D01*
X116375Y49256D01*
X115633Y49371D01*
X114895Y49503D01*
X114160Y49653D01*
X113429Y49822D01*
X112703Y50008D01*
X111981Y50211D01*
X111264Y50433D01*
X110553Y50671D01*
X109848Y50927D01*
X109150Y51201D01*
X108458Y51491D01*
X107774Y51798D01*
X107097Y52121D01*
X106429Y52461D01*
X105769Y52817D01*
X105117Y53189D01*
X104475Y53577D01*
X103843Y53981D01*
X103221Y54399D01*
X102609Y54833D01*
X102008Y55282D01*
X101418Y55745D01*
X100840Y56223D01*
X100273Y56714D01*
X99719Y57219D01*
X99177Y57738D01*
X98648Y58269D01*
X98132Y58814D01*
X97629Y59370D01*
X97140Y59939D01*
X96666Y60520D01*
X96205Y61112D01*
X95759Y61715D01*
X95328Y62329D01*
X94912Y62953D01*
X94512Y63587D01*
X94127Y64231D01*
X93758Y64884D01*
X93405Y65545D01*
X93068Y66215D01*
X92747Y66894D01*
X92444Y67579D01*
X92798Y67729D01*
X93098Y67051D01*
X93415Y66382D01*
X93748Y65720D01*
X94096Y65067D01*
X94461Y64422D01*
X94841Y63787D01*
X95236Y63161D01*
X95647Y62544D01*
X96073Y61938D01*
X96513Y61343D01*
X96968Y60758D01*
X97437Y60185D01*
X97919Y59623D01*
X98416Y59074D01*
X98925Y58536D01*
X99448Y58011D01*
X99983Y57499D01*
X100530Y57001D01*
X101090Y56516D01*
X101661Y56044D01*
X102243Y55587D01*
X102837Y55144D01*
X103441Y54715D01*
X104055Y54302D01*
X104680Y53904D01*
X105313Y53521D01*
X105956Y53153D01*
X106608Y52802D01*
X107268Y52466D01*
X107937Y52147D01*
X108612Y51844D01*
X109295Y51557D01*
X109985Y51287D01*
X110681Y51035D01*
X111383Y50799D01*
X112091Y50580D01*
X112803Y50379D01*
X113521Y50196D01*
X114243Y50029D01*
X114968Y49881D01*
X115697Y49750D01*
X116429Y49637D01*
X117163Y49542D01*
X117900Y49465D01*
X118638Y49406D01*
X119378Y49365D01*
X120118Y49342D01*
X120858Y49337D01*
X121599Y49351D01*
X122339Y49382D01*
X123078Y49431D01*
X123815Y49499D01*
X124551Y49584D01*
X125284Y49687D01*
X126015Y49808D01*
X126742Y49947D01*
X127466Y50104D01*
X128186Y50278D01*
X128901Y50470D01*
X129612Y50679D01*
X130317Y50905D01*
X131016Y51149D01*
X131709Y51409D01*
X132396Y51687D01*
X133076Y51981D01*
X133748Y52292D01*
X134412Y52618D01*
X135069Y52961D01*
X135717Y53320D01*
X136355Y53695D01*
X136985Y54085D01*
X137605Y54490D01*
X138214Y54911D01*
X138814Y55346D01*
X139402Y55796D01*
X139979Y56259D01*
X140545Y56737D01*
X141099Y57229D01*
X141641Y57734D01*
X142170Y58251D01*
X142687Y58782D01*
X143190Y59325D01*
X143681Y59881D01*
X144157Y60448D01*
X144619Y61026D01*
X145067Y61616D01*
X145501Y62216D01*
X145920Y62827D01*
X146324Y63448D01*
X146712Y64078D01*
X147085Y64718D01*
X147442Y65367D01*
X147784Y66024D01*
X148109Y66689D01*
X148418Y67362D01*
X148710Y68043D01*
X148353Y68188D01*
X148065Y67516D01*
X147760Y66852D01*
X147439Y66195D01*
X147102Y65546D01*
X146749Y64906D01*
X146381Y64274D01*
X145997Y63652D01*
X145598Y63039D01*
X145185Y62436D01*
X144757Y61843D01*
X144314Y61261D01*
X143858Y60690D01*
X143388Y60130D01*
X142904Y59582D01*
X142407Y59046D01*
X141897Y58522D01*
X141374Y58011D01*
X140839Y57512D01*
X140292Y57027D01*
X139734Y56556D01*
X139164Y56098D01*
X138583Y55654D01*
X137991Y55224D01*
X137389Y54809D01*
X136777Y54409D01*
X136156Y54024D01*
X135525Y53654D01*
X134885Y53300D01*
X134237Y52961D01*
X133581Y52639D01*
X132918Y52332D01*
X132247Y52042D01*
X131569Y51768D01*
X130884Y51511D01*
X130194Y51270D01*
X129498Y51047D01*
X128796Y50840D01*
X128090Y50651D01*
X127380Y50479D01*
X126665Y50324D01*
X125947Y50187D01*
X125226Y50068D01*
X124502Y49966D01*
X123775Y49882D01*
X123047Y49815D01*
X122318Y49766D01*
X121587Y49736D01*
X120856Y49722D01*
X120125Y49727D01*
X119394Y49750D01*
X118664Y49790D01*
X117936Y49849D01*
X117208Y49925D01*
X116483Y50019D01*
X115761Y50130D01*
X115041Y50259D01*
X114325Y50406D01*
X113612Y50570D01*
X112904Y50751D01*
X112200Y50950D01*
X111502Y51165D01*
X110809Y51398D01*
X110122Y51647D01*
X109441Y51914D01*
X108766Y52196D01*
X108099Y52495D01*
X107440Y52811D01*
X106788Y53142D01*
X106144Y53489D01*
X105510Y53852D01*
X104884Y54230D01*
X104267Y54623D01*
X103661Y55031D01*
X103064Y55454D01*
X102479Y55892D01*
X101903Y56343D01*
X101340Y56808D01*
X100787Y57287D01*
X100247Y57780D01*
X99718Y58285D01*
X99203Y58803D01*
X98699Y59334D01*
X98210Y59876D01*
X97733Y60431D01*
X97270Y60997D01*
X96821Y61574D01*
X96386Y62162D01*
X95966Y62760D01*
X95561Y63368D01*
X95170Y63986D01*
X94795Y64614D01*
X94435Y65250D01*
X94090Y65895D01*
X93762Y66548D01*
X93450Y67209D01*
X93153Y67878D01*
X93508Y68027D01*
X93801Y67367D01*
X94109Y66715D01*
X94433Y66070D01*
X94773Y65434D01*
X95129Y64805D01*
X95499Y64186D01*
X95885Y63576D01*
X96285Y62976D01*
X96700Y62385D01*
X97129Y61805D01*
X97572Y61235D01*
X98029Y60677D01*
X98500Y60130D01*
X98983Y59594D01*
X99480Y59070D01*
X99989Y58559D01*
X100511Y58060D01*
X101044Y57574D01*
X101589Y57101D01*
X102146Y56642D01*
X102714Y56196D01*
X103292Y55765D01*
X103881Y55347D01*
X104480Y54945D01*
X105088Y54556D01*
X105706Y54183D01*
X106332Y53825D01*
X106967Y53483D01*
X107611Y53156D01*
X108262Y52844D01*
X108920Y52549D01*
X109586Y52270D01*
X110258Y52007D01*
X110936Y51761D01*
X111621Y51531D01*
X112310Y51319D01*
X113005Y51123D01*
X113704Y50944D01*
X114407Y50782D01*
X115114Y50637D01*
X115824Y50510D01*
X116538Y50400D01*
X117253Y50307D01*
X117971Y50232D01*
X118691Y50175D01*
X119411Y50135D01*
X120132Y50112D01*
X120854Y50107D01*
X121576Y50120D01*
X122297Y50151D01*
X123017Y50199D01*
X123735Y50264D01*
X124452Y50348D01*
X125167Y50448D01*
X125879Y50566D01*
X126588Y50701D01*
X127293Y50854D01*
X127995Y51024D01*
X128692Y51211D01*
X129384Y51414D01*
X130071Y51635D01*
X130753Y51872D01*
X131428Y52126D01*
X132097Y52397D01*
X132760Y52683D01*
X133415Y52986D01*
X134062Y53304D01*
X134702Y53638D01*
X135333Y53988D01*
X135956Y54353D01*
X136569Y54733D01*
X137173Y55128D01*
X137767Y55538D01*
X138351Y55962D01*
X138925Y56400D01*
X139488Y56852D01*
X140039Y57317D01*
X140579Y57796D01*
X141107Y58288D01*
X141623Y58793D01*
X142126Y59310D01*
X142617Y59839D01*
X143095Y60380D01*
X143559Y60933D01*
X144009Y61496D01*
X144446Y62071D01*
X144869Y62656D01*
X145277Y63251D01*
X145671Y63856D01*
X146049Y64470D01*
X146413Y65094D01*
X146761Y65726D01*
X147094Y66366D01*
X147411Y67014D01*
X147712Y67670D01*
X147997Y68333D01*
X147640Y68479D01*
X147359Y67824D01*
X147062Y67177D01*
X146749Y66537D01*
X146421Y65905D01*
X146077Y65281D01*
X145718Y64666D01*
X145344Y64060D01*
X144956Y63463D01*
X144553Y62876D01*
X144136Y62298D01*
X143705Y61731D01*
X143260Y61175D01*
X142802Y60630D01*
X142330Y60096D01*
X141846Y59574D01*
X141349Y59063D01*
X140840Y58565D01*
X140319Y58080D01*
X139786Y57607D01*
X139242Y57148D01*
X138686Y56702D01*
X138120Y56270D01*
X137544Y55851D01*
X136958Y55447D01*
X136361Y55057D01*
X135756Y54682D01*
X135142Y54322D01*
X134519Y53977D01*
X133887Y53647D01*
X133248Y53333D01*
X132602Y53034D01*
X131948Y52751D01*
X131288Y52485D01*
X130621Y52234D01*
X129948Y52000D01*
X129270Y51782D01*
X128587Y51581D01*
X127899Y51397D01*
X127207Y51229D01*
X126511Y51079D01*
X125811Y50945D01*
X125108Y50829D01*
X124403Y50729D01*
X123696Y50647D01*
X122986Y50583D01*
X122276Y50535D01*
X121564Y50505D01*
X120852Y50492D01*
X120140Y50497D01*
X119428Y50519D01*
X118717Y50559D01*
X118007Y50615D01*
X117298Y50689D01*
X116592Y50781D01*
X115888Y50889D01*
X115187Y51015D01*
X114489Y51158D01*
X113795Y51318D01*
X113105Y51494D01*
X112420Y51688D01*
X111739Y51898D01*
X111064Y52124D01*
X110395Y52367D01*
X109731Y52627D01*
X109074Y52902D01*
X108425Y53193D01*
X107782Y53500D01*
X107147Y53823D01*
X106520Y54161D01*
X105902Y54515D01*
X105292Y54883D01*
X104692Y55266D01*
X104101Y55663D01*
X103520Y56075D01*
X102949Y56501D01*
X102389Y56941D01*
X101839Y57394D01*
X101301Y57861D01*
X100775Y58340D01*
X100260Y58833D01*
X99757Y59337D01*
X99267Y59854D01*
X98790Y60383D01*
X98325Y60923D01*
X97874Y61474D01*
X97437Y62036D01*
X97014Y62609D01*
X96604Y63191D01*
X96209Y63784D01*
X95828Y64386D01*
X95463Y64997D01*
X95112Y65617D01*
X94776Y66245D01*
X94456Y66881D01*
X94152Y67525D01*
X93863Y68176D01*
X94218Y68326D01*
X94503Y67683D01*
X94803Y67048D01*
X95119Y66420D01*
X95450Y65800D01*
X95797Y65189D01*
X96157Y64586D01*
X96533Y63992D01*
X96923Y63407D01*
X97327Y62832D01*
X97745Y62267D01*
X98177Y61712D01*
X98622Y61169D01*
X99080Y60636D01*
X99551Y60114D01*
X100035Y59604D01*
X100531Y59106D01*
X101039Y58621D01*
X101558Y58148D01*
X102089Y57687D01*
X102631Y57240D01*
X103184Y56806D01*
X103747Y56386D01*
X104321Y55979D01*
X104904Y55587D01*
X105496Y55209D01*
X106098Y54846D01*
X106708Y54497D01*
X107327Y54164D01*
X107953Y53845D01*
X108587Y53542D01*
X109229Y53255D01*
X109877Y52983D01*
X110531Y52727D01*
X111192Y52487D01*
X111858Y52264D01*
X112530Y52057D01*
X113206Y51866D01*
X113887Y51692D01*
X114572Y51534D01*
X115260Y51393D01*
X115952Y51269D01*
X116646Y51162D01*
X117343Y51072D01*
X118042Y50999D01*
X118743Y50943D01*
X119445Y50904D01*
X120147Y50882D01*
X120850Y50877D01*
X121552Y50890D01*
X122255Y50920D01*
X122956Y50966D01*
X123656Y51030D01*
X124354Y51111D01*
X125050Y51209D01*
X125743Y51324D01*
X126433Y51456D01*
X127120Y51604D01*
X127803Y51770D01*
X128482Y51952D01*
X129156Y52150D01*
X129825Y52365D01*
X130489Y52596D01*
X131147Y52843D01*
X131799Y53106D01*
X132444Y53385D01*
X133082Y53680D01*
X133712Y53990D01*
X134335Y54315D01*
X134950Y54656D01*
X135556Y55011D01*
X136154Y55381D01*
X136742Y55766D01*
X137320Y56165D01*
X137889Y56578D01*
X138448Y57004D01*
X138996Y57444D01*
X139533Y57898D01*
X140059Y58364D01*
X140573Y58843D01*
X141075Y59334D01*
X141566Y59838D01*
X142043Y60353D01*
X142509Y60880D01*
X142961Y61418D01*
X143400Y61967D01*
X143825Y62526D01*
X144237Y63096D01*
X144634Y63675D01*
X145018Y64264D01*
X145387Y64862D01*
X145741Y65469D01*
X146080Y66085D01*
X146404Y66708D01*
X146713Y67340D01*
X147006Y67978D01*
X147284Y68624D01*
X146927Y68769D01*
X146653Y68132D01*
X146364Y67502D01*
X146059Y66879D01*
X145739Y66264D01*
X145405Y65657D01*
X145055Y65058D01*
X144691Y64468D01*
X144313Y63887D01*
X143921Y63315D01*
X143515Y62753D01*
X143095Y62202D01*
X142662Y61660D01*
X142216Y61129D01*
X141757Y60610D01*
X141285Y60101D01*
X140801Y59605D01*
X140306Y59120D01*
X139798Y58648D01*
X139280Y58188D01*
X138750Y57740D01*
X138209Y57306D01*
X137658Y56886D01*
X137097Y56478D01*
X136526Y56085D01*
X135946Y55706D01*
X135356Y55340D01*
X134758Y54990D01*
X134152Y54654D01*
X133537Y54333D01*
X132915Y54027D01*
X132286Y53736D01*
X131649Y53461D01*
X131006Y53202D01*
X130357Y52958D01*
X129703Y52730D01*
X129042Y52518D01*
X128377Y52322D01*
X127708Y52143D01*
X127034Y51980D01*
X126356Y51833D01*
X125675Y51703D01*
X124991Y51590D01*
X124304Y51493D01*
X123616Y51413D01*
X122925Y51350D01*
X122234Y51304D01*
X121541Y51275D01*
X120848Y51262D01*
X120154Y51267D01*
X119461Y51288D01*
X118769Y51327D01*
X118078Y51382D01*
X117388Y51454D01*
X116701Y51543D01*
X116016Y51649D01*
X115333Y51771D01*
X114654Y51910D01*
X113978Y52066D01*
X113307Y52237D01*
X112639Y52426D01*
X111977Y52630D01*
X111320Y52851D01*
X110668Y53087D01*
X110022Y53340D01*
X109383Y53608D01*
X108750Y53891D01*
X108124Y54190D01*
X107506Y54504D01*
X106896Y54833D01*
X106294Y55177D01*
X105701Y55536D01*
X105116Y55908D01*
X104541Y56295D01*
X103975Y56696D01*
X103419Y57111D01*
X102874Y57539D01*
X102339Y57980D01*
X101815Y58434D01*
X101302Y58901D01*
X100801Y59380D01*
X100312Y59871D01*
X99835Y60374D01*
X99370Y60889D01*
X98918Y61414D01*
X98479Y61951D01*
X98053Y62498D01*
X97641Y63055D01*
X97242Y63623D01*
X96857Y64199D01*
X96487Y64785D01*
X96130Y65380D01*
X95789Y65984D01*
X95462Y66595D01*
X95151Y67214D01*
X94854Y67841D01*
X94573Y68475D01*
X94928Y68624D01*
X95205Y67999D01*
X95498Y67381D01*
X95805Y66770D01*
X96128Y66167D01*
X96464Y65572D01*
X96816Y64985D01*
X97181Y64407D01*
X97561Y63838D01*
X97954Y63279D01*
X98361Y62729D01*
X98781Y62190D01*
X99214Y61660D01*
X99660Y61142D01*
X100119Y60634D01*
X100589Y60138D01*
X101072Y59654D01*
X101566Y59181D01*
X102072Y58721D01*
X102589Y58273D01*
X103116Y57838D01*
X103655Y57416D01*
X104203Y57007D01*
X104761Y56611D01*
X105328Y56230D01*
X105905Y55862D01*
X106490Y55509D01*
X107084Y55169D01*
X107686Y54845D01*
X108296Y54535D01*
X108913Y54240D01*
X109537Y53961D01*
X110167Y53696D01*
X110804Y53447D01*
X111447Y53214D01*
X112096Y52996D01*
X112749Y52795D01*
X113407Y52609D01*
X114070Y52439D01*
X114736Y52286D01*
X115406Y52149D01*
X116079Y52028D01*
X116755Y51924D01*
X117433Y51837D01*
X118114Y51765D01*
X118795Y51711D01*
X119478Y51673D01*
X120162Y51652D01*
X120845Y51647D01*
X121529Y51660D01*
X122213Y51688D01*
X122895Y51734D01*
X123576Y51796D01*
X124255Y51875D01*
X124932Y51970D01*
X125607Y52082D01*
X126279Y52210D01*
X126947Y52355D01*
X127612Y52516D01*
X128273Y52693D01*
X128929Y52886D01*
X129580Y53095D01*
X130226Y53319D01*
X130866Y53560D01*
X131500Y53816D01*
X132128Y54087D01*
X132748Y54374D01*
X133362Y54676D01*
X133968Y54992D01*
X134567Y55324D01*
X135157Y55670D01*
X135738Y56030D01*
X136310Y56404D01*
X136874Y56792D01*
X137427Y57193D01*
X137971Y57609D01*
X138504Y58037D01*
X139026Y58478D01*
X139538Y58931D01*
X140039Y59397D01*
X140528Y59875D01*
X141005Y60365D01*
X141470Y60867D01*
X141923Y61379D01*
X142363Y61903D01*
X142790Y62437D01*
X143204Y62981D01*
X143605Y63535D01*
X143992Y64099D01*
X144365Y64672D01*
X144724Y65254D01*
X145069Y65845D01*
X145399Y66444D01*
X145714Y67050D01*
X146015Y67665D01*
X146300Y68286D01*
X146571Y68914D01*
X146214Y69060D01*
X145948Y68440D01*
X145666Y67827D01*
X145369Y67222D01*
X145058Y66623D01*
X144732Y66033D01*
X144392Y65450D01*
X144038Y64876D01*
X143670Y64311D01*
X143289Y63755D01*
X142893Y63209D01*
X142485Y62672D01*
X142064Y62145D01*
X141630Y61629D01*
X141183Y61124D01*
X140725Y60629D01*
X140254Y60146D01*
X139772Y59675D01*
X139278Y59215D01*
X138773Y58768D01*
X138258Y58333D01*
X137732Y57911D01*
X137196Y57501D01*
X136650Y57105D01*
X136095Y56723D01*
X135530Y56354D01*
X134957Y55999D01*
X134375Y55658D01*
X133785Y55331D01*
X133187Y55019D01*
X132582Y54721D01*
X131970Y54438D01*
X131351Y54171D01*
X130725Y53918D01*
X130094Y53681D01*
X129457Y53459D01*
X128815Y53253D01*
X128168Y53063D01*
X127516Y52888D01*
X126861Y52730D01*
X126202Y52587D01*
X125539Y52461D01*
X124874Y52351D01*
X124206Y52257D01*
X123536Y52179D01*
X122864Y52118D01*
X122191Y52073D01*
X121518Y52044D01*
X120843Y52032D01*
X120169Y52037D01*
X119495Y52058D01*
X118821Y52095D01*
X118149Y52149D01*
X117478Y52219D01*
X116810Y52305D01*
X116143Y52408D01*
X115479Y52527D01*
X114818Y52662D01*
X114161Y52813D01*
X113508Y52981D01*
X112859Y53164D01*
X112214Y53363D01*
X111575Y53577D01*
X110941Y53807D01*
X110313Y54053D01*
X109691Y54313D01*
X109075Y54589D01*
X108467Y54880D01*
X107865Y55185D01*
X107272Y55505D01*
X106686Y55840D01*
X106109Y56188D01*
X105540Y56551D01*
X104981Y56927D01*
X104430Y57317D01*
X103890Y57721D01*
X103359Y58137D01*
X102839Y58566D01*
X102329Y59008D01*
X101830Y59462D01*
X101343Y59928D01*
X100867Y60405D01*
X100403Y60895D01*
X99950Y61395D01*
X99511Y61906D01*
X99083Y62428D01*
X98669Y62960D01*
X98268Y63502D01*
X97880Y64054D01*
X97505Y64615D01*
X97145Y65185D01*
X96798Y65763D01*
X96466Y66350D01*
X96148Y66945D01*
X95845Y67547D01*
X95556Y68157D01*
X95283Y68773D01*
X95638Y68923D01*
X95907Y68315D01*
X96192Y67714D01*
X96491Y67120D01*
X96805Y66534D01*
X97132Y65955D01*
X97474Y65385D01*
X97830Y64823D01*
X98199Y64270D01*
X98581Y63726D01*
X98977Y63191D01*
X99386Y62667D01*
X99807Y62152D01*
X100241Y61648D01*
X100686Y61155D01*
X101144Y60672D01*
X101614Y60201D01*
X102094Y59742D01*
X102586Y59294D01*
X103089Y58859D01*
X103602Y58436D01*
X104125Y58025D01*
X104658Y57628D01*
X105201Y57243D01*
X105752Y56872D01*
X106313Y56515D01*
X106882Y56171D01*
X107460Y55841D01*
X108045Y55526D01*
X108638Y55225D01*
X109238Y54938D01*
X109845Y54666D01*
X110458Y54409D01*
X111077Y54167D01*
X111703Y53940D01*
X112333Y53729D01*
X112968Y53533D01*
X113608Y53352D01*
X114253Y53187D01*
X114901Y53038D01*
X115552Y52905D01*
X116207Y52788D01*
X116864Y52687D01*
X117523Y52601D01*
X118185Y52532D01*
X118848Y52479D01*
X119512Y52442D01*
X120176Y52422D01*
X120841Y52417D01*
X121506Y52429D01*
X122170Y52457D01*
X122834Y52502D01*
X123496Y52562D01*
X124157Y52639D01*
X124815Y52731D01*
X125471Y52840D01*
X126124Y52965D01*
X126774Y53105D01*
X127421Y53261D01*
X128063Y53433D01*
X128701Y53621D01*
X129334Y53824D01*
X129962Y54043D01*
X130585Y54277D01*
X131201Y54526D01*
X131812Y54790D01*
X132415Y55068D01*
X133012Y55362D01*
X133601Y55669D01*
X134183Y55992D01*
X134757Y56328D01*
X135322Y56678D01*
X135879Y57042D01*
X136427Y57419D01*
X136965Y57809D01*
X137493Y58213D01*
X138012Y58629D01*
X138520Y59058D01*
X139018Y59499D01*
X139505Y59952D01*
X139980Y60417D01*
X140444Y60893D01*
X140896Y61381D01*
X141337Y61879D01*
X141765Y62388D01*
X142180Y62907D01*
X142583Y63436D01*
X142973Y63975D01*
X143349Y64523D01*
X143712Y65080D01*
X144061Y65646D01*
X144396Y66221D01*
X144718Y66803D01*
X145024Y67393D01*
X145317Y67990D01*
X145595Y68594D01*
X145858Y69205D01*
X148856Y91170D02*
X145484Y89752D01*
X145217Y90356D01*
X144934Y90953D01*
X144637Y91542D01*
X144326Y92124D01*
X144000Y92699D01*
X143661Y93265D01*
X143308Y93823D01*
X142941Y94372D01*
X142562Y94912D01*
X142169Y95443D01*
X141763Y95964D01*
X141345Y96475D01*
X140914Y96975D01*
X140471Y97465D01*
X140017Y97944D01*
X139551Y98411D01*
X139073Y98868D01*
X138585Y99312D01*
X138086Y99744D01*
X137577Y100164D01*
X137057Y100572D01*
X136528Y100967D01*
X135989Y101348D01*
X135441Y101717D01*
X134885Y102072D01*
X134319Y102413D01*
X133746Y102740D01*
X133165Y103053D01*
X132576Y103352D01*
X131980Y103637D01*
X131378Y103907D01*
X130769Y104162D01*
X130154Y104402D01*
X129533Y104628D01*
X128907Y104838D01*
X128277Y105032D01*
X127641Y105211D01*
X127002Y105375D01*
X126358Y105523D01*
X125711Y105655D01*
X125061Y105772D01*
X124409Y105872D01*
X123754Y105957D01*
X123097Y106026D01*
X122439Y106078D01*
X121780Y106115D01*
X121120Y106135D01*
X120460Y106140D01*
X119800Y106128D01*
X119140Y106100D01*
X118481Y106056D01*
X117824Y105996D01*
X117168Y105920D01*
X116514Y105828D01*
X115863Y105720D01*
X115214Y105596D01*
X114569Y105457D01*
X113927Y105302D01*
X113290Y105131D01*
X112656Y104944D01*
X112028Y104743D01*
X111404Y104526D01*
X110786Y104294D01*
X110174Y104046D01*
X109568Y103784D01*
X108968Y103508D01*
X108376Y103216D01*
X107790Y102911D01*
X107213Y102591D01*
X106643Y102257D01*
X106082Y101910D01*
X105529Y101549D01*
X104985Y101174D01*
X104451Y100786D01*
X103926Y100386D01*
X103411Y99972D01*
X102907Y99547D01*
X102413Y99109D01*
X101929Y98659D01*
X101457Y98197D01*
X100996Y97725D01*
X100547Y97241D01*
X100110Y96746D01*
X99685Y96241D01*
X99273Y95725D01*
X98873Y95200D01*
X98486Y94665D01*
X98112Y94121D01*
X97752Y93567D01*
X97405Y93005D01*
X97072Y92435D01*
X96753Y91857D01*
X96448Y91272D01*
X96158Y90679D01*
X95882Y90079D01*
X95621Y89472D01*
X92234Y90852D01*
X92233Y90853D01*
X92529Y91542D01*
X92842Y92223D01*
X93171Y92897D01*
X93517Y93563D01*
X93879Y94220D01*
X94257Y94868D01*
X94650Y95506D01*
X95059Y96135D01*
X95483Y96754D01*
X95922Y97362D01*
X96376Y97959D01*
X96844Y98545D01*
X97326Y99119D01*
X97823Y99682D01*
X98333Y100232D01*
X98856Y100769D01*
X99392Y101294D01*
X99941Y101805D01*
X100502Y102303D01*
X101075Y102787D01*
X101659Y103257D01*
X102255Y103712D01*
X102862Y104153D01*
X103480Y104578D01*
X104107Y104989D01*
X104745Y105384D01*
X105392Y105764D01*
X106048Y106127D01*
X106712Y106474D01*
X107385Y106806D01*
X108066Y107120D01*
X108755Y107418D01*
X109450Y107699D01*
X110152Y107963D01*
X110860Y108210D01*
X111575Y108439D01*
X112294Y108651D01*
X113018Y108845D01*
X113747Y109021D01*
X114480Y109180D01*
X115217Y109321D01*
X115957Y109443D01*
X116700Y109548D01*
X117445Y109634D01*
X118192Y109703D01*
X118940Y109752D01*
X119689Y109784D01*
X120439Y109798D01*
X121189Y109793D01*
X121939Y109769D01*
X122688Y109728D01*
X123436Y109668D01*
X124182Y109590D01*
X124925Y109494D01*
X125667Y109379D01*
X126405Y109247D01*
X127140Y109097D01*
X127871Y108928D01*
X128597Y108742D01*
X129319Y108539D01*
X130036Y108317D01*
X130747Y108079D01*
X131452Y107823D01*
X132150Y107549D01*
X132842Y107259D01*
X133526Y106952D01*
X134203Y106629D01*
X134871Y106289D01*
X135531Y105933D01*
X136183Y105561D01*
X136825Y105173D01*
X137457Y104769D01*
X138079Y104351D01*
X138691Y103917D01*
X139292Y103468D01*
X139882Y103005D01*
X140460Y102527D01*
X141027Y102036D01*
X141581Y101531D01*
X142123Y101012D01*
X142652Y100481D01*
X143168Y99936D01*
X143671Y99380D01*
X144160Y98811D01*
X144634Y98230D01*
X145095Y97638D01*
X145541Y97035D01*
X145972Y96421D01*
X146388Y95797D01*
X146788Y95163D01*
X147173Y94519D01*
X147542Y93866D01*
X147895Y93205D01*
X148232Y92535D01*
X148553Y91856D01*
X148856Y91171D01*
X148502Y91021D01*
X148202Y91699D01*
X147885Y92368D01*
X147552Y93030D01*
X147204Y93683D01*
X146839Y94328D01*
X146459Y94963D01*
X146064Y95589D01*
X145653Y96206D01*
X145227Y96812D01*
X144787Y97407D01*
X144332Y97992D01*
X143863Y98565D01*
X143381Y99127D01*
X142884Y99676D01*
X142375Y100214D01*
X141852Y100739D01*
X141317Y101251D01*
X140770Y101749D01*
X140210Y102234D01*
X139639Y102706D01*
X139057Y103163D01*
X138463Y103606D01*
X137859Y104035D01*
X137245Y104448D01*
X136620Y104846D01*
X135987Y105229D01*
X135344Y105597D01*
X134692Y105948D01*
X134032Y106284D01*
X133363Y106603D01*
X132688Y106906D01*
X132005Y107193D01*
X131315Y107463D01*
X130619Y107715D01*
X129917Y107951D01*
X129209Y108170D01*
X128497Y108371D01*
X127779Y108554D01*
X127057Y108721D01*
X126332Y108869D01*
X125603Y109000D01*
X124871Y109113D01*
X124137Y109208D01*
X123400Y109285D01*
X122662Y109344D01*
X121922Y109385D01*
X121182Y109408D01*
X120442Y109413D01*
X119701Y109399D01*
X118961Y109368D01*
X118222Y109319D01*
X117485Y109251D01*
X116749Y109166D01*
X116016Y109063D01*
X115285Y108942D01*
X114558Y108803D01*
X113834Y108646D01*
X113114Y108472D01*
X112399Y108280D01*
X111688Y108071D01*
X110983Y107845D01*
X110284Y107601D01*
X109591Y107341D01*
X108904Y107063D01*
X108224Y106769D01*
X107552Y106458D01*
X106888Y106132D01*
X106231Y105789D01*
X105583Y105430D01*
X104945Y105055D01*
X104315Y104665D01*
X103695Y104260D01*
X103086Y103839D01*
X102486Y103404D01*
X101898Y102954D01*
X101321Y102491D01*
X100755Y102013D01*
X100201Y101521D01*
X99659Y101016D01*
X99130Y100499D01*
X98613Y99968D01*
X98110Y99425D01*
X97619Y98869D01*
X97143Y98302D01*
X96681Y97724D01*
X96233Y97134D01*
X95799Y96534D01*
X95380Y95923D01*
X94976Y95302D01*
X94588Y94672D01*
X94215Y94032D01*
X93858Y93383D01*
X93516Y92726D01*
X93191Y92061D01*
X92882Y91388D01*
X92590Y90707D01*
X92947Y90562D01*
X93235Y91234D01*
X93540Y91898D01*
X93861Y92555D01*
X94198Y93204D01*
X94551Y93844D01*
X94919Y94476D01*
X95303Y95098D01*
X95702Y95711D01*
X96115Y96314D01*
X96543Y96907D01*
X96986Y97489D01*
X97442Y98060D01*
X97912Y98620D01*
X98396Y99168D01*
X98893Y99704D01*
X99403Y100228D01*
X99926Y100739D01*
X100461Y101238D01*
X101008Y101723D01*
X101566Y102194D01*
X102136Y102652D01*
X102717Y103096D01*
X103309Y103526D01*
X103911Y103941D01*
X104523Y104341D01*
X105144Y104726D01*
X105775Y105096D01*
X106415Y105450D01*
X107063Y105789D01*
X107719Y106111D01*
X108382Y106418D01*
X109053Y106708D01*
X109731Y106982D01*
X110416Y107239D01*
X111106Y107480D01*
X111802Y107703D01*
X112504Y107910D01*
X113210Y108099D01*
X113920Y108271D01*
X114635Y108426D01*
X115353Y108563D01*
X116074Y108682D01*
X116798Y108784D01*
X117525Y108868D01*
X118253Y108935D01*
X118982Y108984D01*
X119713Y109014D01*
X120444Y109028D01*
X121175Y109023D01*
X121906Y109000D01*
X122636Y108960D01*
X123364Y108901D01*
X124092Y108825D01*
X124817Y108731D01*
X125539Y108620D01*
X126259Y108491D01*
X126975Y108344D01*
X127688Y108180D01*
X128396Y107999D01*
X129100Y107800D01*
X129798Y107585D01*
X130491Y107352D01*
X131178Y107103D01*
X131859Y106836D01*
X132534Y106554D01*
X133201Y106255D01*
X133860Y105939D01*
X134512Y105608D01*
X135156Y105261D01*
X135790Y104898D01*
X136416Y104520D01*
X137033Y104127D01*
X137639Y103719D01*
X138236Y103296D01*
X138821Y102858D01*
X139397Y102407D01*
X139960Y101942D01*
X140513Y101463D01*
X141053Y100970D01*
X141582Y100465D01*
X142097Y99947D01*
X142601Y99416D01*
X143090Y98874D01*
X143567Y98319D01*
X144030Y97753D01*
X144479Y97176D01*
X144914Y96588D01*
X145334Y95990D01*
X145739Y95382D01*
X146130Y94764D01*
X146505Y94136D01*
X146865Y93500D01*
X147210Y92855D01*
X147538Y92202D01*
X147850Y91541D01*
X148147Y90872D01*
X147792Y90723D01*
X147499Y91383D01*
X147191Y92035D01*
X146867Y92680D01*
X146527Y93316D01*
X146171Y93945D01*
X145801Y94564D01*
X145415Y95174D01*
X145015Y95774D01*
X144600Y96365D01*
X144171Y96945D01*
X143728Y97515D01*
X143271Y98073D01*
X142800Y98620D01*
X142317Y99156D01*
X141820Y99680D01*
X141311Y100191D01*
X140789Y100690D01*
X140256Y101176D01*
X139711Y101649D01*
X139154Y102108D01*
X138586Y102554D01*
X138008Y102985D01*
X137419Y103403D01*
X136820Y103805D01*
X136212Y104194D01*
X135594Y104567D01*
X134968Y104925D01*
X134333Y105267D01*
X133689Y105594D01*
X133038Y105906D01*
X132380Y106201D01*
X131714Y106480D01*
X131042Y106743D01*
X130364Y106989D01*
X129679Y107219D01*
X128990Y107431D01*
X128295Y107627D01*
X127596Y107806D01*
X126893Y107968D01*
X126186Y108113D01*
X125476Y108240D01*
X124762Y108350D01*
X124047Y108443D01*
X123329Y108518D01*
X122609Y108575D01*
X121889Y108615D01*
X121168Y108638D01*
X120446Y108643D01*
X119724Y108630D01*
X119003Y108599D01*
X118283Y108551D01*
X117565Y108486D01*
X116848Y108402D01*
X116133Y108302D01*
X115421Y108184D01*
X114712Y108049D01*
X114007Y107896D01*
X113305Y107726D01*
X112608Y107539D01*
X111916Y107336D01*
X111229Y107115D01*
X110547Y106878D01*
X109872Y106624D01*
X109203Y106353D01*
X108540Y106067D01*
X107885Y105764D01*
X107238Y105446D01*
X106598Y105112D01*
X105967Y104762D01*
X105344Y104397D01*
X104731Y104017D01*
X104127Y103622D01*
X103533Y103212D01*
X102949Y102788D01*
X102375Y102350D01*
X101812Y101898D01*
X101261Y101433D01*
X100721Y100954D01*
X100193Y100462D01*
X99677Y99957D01*
X99174Y99440D01*
X98683Y98911D01*
X98205Y98370D01*
X97741Y97817D01*
X97291Y97254D01*
X96854Y96679D01*
X96431Y96094D01*
X96023Y95499D01*
X95629Y94894D01*
X95251Y94280D01*
X94887Y93656D01*
X94539Y93024D01*
X94206Y92384D01*
X93889Y91736D01*
X93588Y91080D01*
X93303Y90417D01*
X93660Y90271D01*
X93941Y90926D01*
X94238Y91573D01*
X94551Y92213D01*
X94879Y92845D01*
X95223Y93469D01*
X95582Y94084D01*
X95956Y94690D01*
X96344Y95287D01*
X96747Y95874D01*
X97164Y96452D01*
X97595Y97019D01*
X98040Y97575D01*
X98498Y98120D01*
X98970Y98654D01*
X99454Y99176D01*
X99951Y99687D01*
X100460Y100185D01*
X100981Y100670D01*
X101514Y101143D01*
X102058Y101602D01*
X102614Y102048D01*
X103180Y102480D01*
X103756Y102899D01*
X104342Y103303D01*
X104939Y103693D01*
X105544Y104068D01*
X106158Y104428D01*
X106781Y104773D01*
X107413Y105103D01*
X108052Y105417D01*
X108698Y105716D01*
X109352Y105999D01*
X110012Y106265D01*
X110679Y106516D01*
X111352Y106750D01*
X112030Y106968D01*
X112713Y107169D01*
X113401Y107353D01*
X114093Y107521D01*
X114789Y107671D01*
X115489Y107805D01*
X116192Y107921D01*
X116897Y108021D01*
X117604Y108103D01*
X118314Y108167D01*
X119024Y108215D01*
X119736Y108245D01*
X120448Y108258D01*
X121160Y108253D01*
X121872Y108231D01*
X122583Y108191D01*
X123293Y108135D01*
X124002Y108061D01*
X124708Y107969D01*
X125412Y107861D01*
X126113Y107735D01*
X126811Y107592D01*
X127505Y107432D01*
X128195Y107256D01*
X128880Y107062D01*
X129561Y106852D01*
X130236Y106626D01*
X130905Y106383D01*
X131569Y106123D01*
X132226Y105848D01*
X132875Y105557D01*
X133518Y105250D01*
X134153Y104927D01*
X134780Y104589D01*
X135398Y104235D01*
X136008Y103867D01*
X136608Y103484D01*
X137199Y103087D01*
X137780Y102675D01*
X138351Y102249D01*
X138911Y101809D01*
X139461Y101356D01*
X139999Y100889D01*
X140525Y100410D01*
X141040Y99917D01*
X141543Y99413D01*
X142033Y98896D01*
X142510Y98367D01*
X142975Y97827D01*
X143426Y97276D01*
X143863Y96714D01*
X144286Y96141D01*
X144696Y95559D01*
X145091Y94966D01*
X145472Y94364D01*
X145837Y93753D01*
X146188Y93133D01*
X146524Y92505D01*
X146844Y91869D01*
X147148Y91225D01*
X147437Y90574D01*
X147082Y90424D01*
X146797Y91067D01*
X146497Y91702D01*
X146181Y92330D01*
X145850Y92950D01*
X145503Y93561D01*
X145143Y94164D01*
X144767Y94758D01*
X144377Y95343D01*
X143973Y95918D01*
X143555Y96483D01*
X143123Y97038D01*
X142678Y97581D01*
X142220Y98114D01*
X141749Y98636D01*
X141265Y99146D01*
X140769Y99644D01*
X140261Y100129D01*
X139742Y100602D01*
X139211Y101063D01*
X138669Y101510D01*
X138116Y101944D01*
X137553Y102364D01*
X136979Y102771D01*
X136396Y103163D01*
X135804Y103541D01*
X135202Y103904D01*
X134592Y104253D01*
X133973Y104586D01*
X133347Y104905D01*
X132713Y105208D01*
X132071Y105495D01*
X131423Y105767D01*
X130769Y106023D01*
X130108Y106263D01*
X129442Y106486D01*
X128770Y106693D01*
X128094Y106884D01*
X127413Y107058D01*
X126728Y107216D01*
X126040Y107357D01*
X125348Y107481D01*
X124654Y107588D01*
X123957Y107678D01*
X123258Y107751D01*
X122557Y107807D01*
X121855Y107846D01*
X121153Y107868D01*
X120450Y107873D01*
X119748Y107860D01*
X119045Y107830D01*
X118344Y107784D01*
X117644Y107720D01*
X116946Y107639D01*
X116250Y107541D01*
X115557Y107426D01*
X114867Y107294D01*
X114180Y107146D01*
X113497Y106980D01*
X112818Y106798D01*
X112144Y106600D01*
X111475Y106385D01*
X110811Y106154D01*
X110153Y105907D01*
X109501Y105644D01*
X108856Y105365D01*
X108218Y105070D01*
X107588Y104760D01*
X106965Y104435D01*
X106350Y104094D01*
X105744Y103739D01*
X105146Y103369D01*
X104558Y102984D01*
X103980Y102585D01*
X103411Y102172D01*
X102852Y101746D01*
X102304Y101306D01*
X101767Y100852D01*
X101241Y100386D01*
X100727Y99907D01*
X100225Y99416D01*
X99734Y98912D01*
X99257Y98397D01*
X98791Y97870D01*
X98339Y97332D01*
X97900Y96783D01*
X97475Y96224D01*
X97063Y95654D01*
X96666Y95075D01*
X96282Y94486D01*
X95913Y93888D01*
X95559Y93281D01*
X95220Y92665D01*
X94896Y92042D01*
X94587Y91410D01*
X94294Y90772D01*
X94016Y90126D01*
X94373Y89981D01*
X94647Y90618D01*
X94936Y91248D01*
X95241Y91871D01*
X95561Y92486D01*
X95895Y93093D01*
X96245Y93692D01*
X96609Y94282D01*
X96987Y94863D01*
X97379Y95435D01*
X97785Y95997D01*
X98205Y96548D01*
X98638Y97090D01*
X99084Y97621D01*
X99543Y98140D01*
X100015Y98649D01*
X100499Y99145D01*
X100994Y99630D01*
X101502Y100102D01*
X102020Y100562D01*
X102550Y101010D01*
X103091Y101444D01*
X103642Y101864D01*
X104203Y102272D01*
X104774Y102665D01*
X105354Y103044D01*
X105944Y103410D01*
X106542Y103760D01*
X107148Y104096D01*
X107763Y104417D01*
X108385Y104723D01*
X109014Y105014D01*
X109651Y105289D01*
X110294Y105548D01*
X110943Y105792D01*
X111597Y106020D01*
X112258Y106232D01*
X112923Y106428D01*
X113592Y106607D01*
X114266Y106770D01*
X114944Y106917D01*
X115625Y107047D01*
X116309Y107160D01*
X116996Y107257D01*
X117684Y107337D01*
X118375Y107400D01*
X119066Y107446D01*
X119759Y107475D01*
X120452Y107488D01*
X121146Y107483D01*
X121839Y107462D01*
X122531Y107423D01*
X123222Y107368D01*
X123912Y107296D01*
X124599Y107207D01*
X125284Y107101D01*
X125967Y106979D01*
X126646Y106840D01*
X127322Y106684D01*
X127993Y106513D01*
X128661Y106324D01*
X129323Y106120D01*
X129980Y105899D01*
X130632Y105663D01*
X131278Y105410D01*
X131917Y105142D01*
X132550Y104859D01*
X133176Y104560D01*
X133794Y104246D01*
X134404Y103917D01*
X135006Y103573D01*
X135599Y103214D01*
X136184Y102842D01*
X136759Y102455D01*
X137325Y102054D01*
X137881Y101639D01*
X138426Y101211D01*
X138961Y100770D01*
X139485Y100316D01*
X139998Y99849D01*
X140499Y99370D01*
X140988Y98879D01*
X141465Y98376D01*
X141930Y97861D01*
X142382Y97336D01*
X142821Y96799D01*
X143247Y96252D01*
X143659Y95695D01*
X144058Y95127D01*
X144443Y94551D01*
X144813Y93965D01*
X145170Y93370D01*
X145511Y92766D01*
X145838Y92155D01*
X146149Y91536D01*
X146446Y90909D01*
X146727Y90275D01*
X146372Y90126D01*
X146095Y90751D01*
X145802Y91369D01*
X145495Y91980D01*
X145172Y92583D01*
X144836Y93178D01*
X144484Y93765D01*
X144119Y94343D01*
X143739Y94912D01*
X143346Y95471D01*
X142939Y96021D01*
X142519Y96560D01*
X142086Y97090D01*
X141640Y97608D01*
X141181Y98116D01*
X140711Y98612D01*
X140228Y99096D01*
X139734Y99569D01*
X139228Y100029D01*
X138711Y100477D01*
X138184Y100912D01*
X137645Y101334D01*
X137097Y101743D01*
X136539Y102139D01*
X135972Y102520D01*
X135395Y102888D01*
X134810Y103241D01*
X134216Y103581D01*
X133614Y103905D01*
X133004Y104215D01*
X132387Y104510D01*
X131763Y104789D01*
X131133Y105054D01*
X130496Y105303D01*
X129853Y105536D01*
X129204Y105754D01*
X128551Y105955D01*
X127893Y106141D01*
X127230Y106311D01*
X126564Y106464D01*
X125894Y106601D01*
X125221Y106722D01*
X124545Y106826D01*
X123867Y106913D01*
X123186Y106985D01*
X122505Y107039D01*
X121822Y107077D01*
X121138Y107098D01*
X120455Y107103D01*
X119771Y107090D01*
X119087Y107062D01*
X118405Y107016D01*
X117724Y106954D01*
X117045Y106875D01*
X116368Y106780D01*
X115693Y106668D01*
X115021Y106540D01*
X114353Y106395D01*
X113688Y106234D01*
X113027Y106057D01*
X112371Y105864D01*
X111720Y105655D01*
X111074Y105431D01*
X110434Y105190D01*
X109800Y104934D01*
X109172Y104663D01*
X108552Y104376D01*
X107938Y104074D01*
X107332Y103758D01*
X106733Y103426D01*
X106143Y103080D01*
X105562Y102720D01*
X104990Y102346D01*
X104426Y101958D01*
X103873Y101557D01*
X103329Y101141D01*
X102796Y100713D01*
X102274Y100272D01*
X101762Y99819D01*
X101261Y99353D01*
X100772Y98875D01*
X100295Y98385D01*
X99830Y97883D01*
X99377Y97371D01*
X98937Y96847D01*
X98510Y96313D01*
X98096Y95769D01*
X97695Y95215D01*
X97308Y94651D01*
X96935Y94078D01*
X96576Y93496D01*
X96231Y92905D01*
X95901Y92306D01*
X95586Y91700D01*
X95285Y91085D01*
X95000Y90464D01*
X94729Y89836D01*
X95086Y89690D01*
X95352Y90310D01*
X95634Y90923D01*
X95931Y91528D01*
X96242Y92127D01*
X96568Y92717D01*
X96908Y93300D01*
X97262Y93874D01*
X97630Y94439D01*
X98011Y94995D01*
X98407Y95541D01*
X98815Y96078D01*
X99236Y96605D01*
X99670Y97121D01*
X100117Y97626D01*
X100575Y98121D01*
X101046Y98604D01*
X101528Y99075D01*
X102022Y99535D01*
X102527Y99982D01*
X103042Y100417D01*
X103568Y100839D01*
X104104Y101249D01*
X104650Y101645D01*
X105205Y102027D01*
X105770Y102396D01*
X106343Y102751D01*
X106925Y103092D01*
X107515Y103419D01*
X108113Y103731D01*
X108718Y104029D01*
X109330Y104312D01*
X109949Y104579D01*
X110575Y104832D01*
X111206Y105069D01*
X111843Y105291D01*
X112485Y105497D01*
X113132Y105687D01*
X113784Y105862D01*
X114439Y106020D01*
X115098Y106163D01*
X115761Y106289D01*
X116426Y106399D01*
X117094Y106493D01*
X117764Y106571D01*
X118436Y106632D01*
X119109Y106677D01*
X119782Y106706D01*
X120457Y106718D01*
X121131Y106713D01*
X121805Y106692D01*
X122479Y106655D01*
X123151Y106601D01*
X123822Y106531D01*
X124490Y106445D01*
X125157Y106342D01*
X125821Y106223D01*
X126482Y106088D01*
X127139Y105937D01*
X127792Y105769D01*
X128441Y105586D01*
X129086Y105387D01*
X129725Y105173D01*
X130359Y104943D01*
X130987Y104697D01*
X131609Y104437D01*
X132225Y104161D01*
X132833Y103870D01*
X133435Y103565D01*
X134028Y103245D01*
X134614Y102910D01*
X135191Y102562D01*
X135760Y102199D01*
X136319Y101823D01*
X136870Y101433D01*
X137410Y101029D01*
X137941Y100613D01*
X138461Y100184D01*
X138971Y99742D01*
X139470Y99288D01*
X139957Y98822D01*
X140433Y98345D01*
X140897Y97855D01*
X141350Y97355D01*
X141789Y96844D01*
X142217Y96322D01*
X142631Y95790D01*
X143032Y95248D01*
X143420Y94696D01*
X143795Y94135D01*
X144155Y93565D01*
X144502Y92987D01*
X144834Y92400D01*
X145152Y91805D01*
X145455Y91203D01*
X145744Y90593D01*
X146017Y89977D01*
X145662Y89827D01*
X145393Y90435D01*
X145108Y91036D01*
X144809Y91630D01*
X144495Y92216D01*
X144168Y92795D01*
X143826Y93365D01*
X143470Y93927D01*
X143101Y94480D01*
X142719Y95024D01*
X142323Y95559D01*
X141914Y96083D01*
X141493Y96598D01*
X141059Y97102D01*
X140614Y97595D01*
X140156Y98078D01*
X139686Y98549D01*
X139206Y99008D01*
X138714Y99456D01*
X138211Y99891D01*
X137698Y100314D01*
X137175Y100725D01*
X136642Y101122D01*
X136099Y101507D01*
X135548Y101878D01*
X134987Y102235D01*
X134418Y102579D01*
X133840Y102909D01*
X133255Y103224D01*
X132662Y103525D01*
X132062Y103812D01*
X131455Y104084D01*
X130842Y104341D01*
X130223Y104583D01*
X129597Y104810D01*
X128967Y105021D01*
X128332Y105217D01*
X127692Y105398D01*
X127047Y105563D01*
X126399Y105712D01*
X125748Y105845D01*
X125093Y105962D01*
X124436Y106063D01*
X123777Y106149D01*
X123115Y106218D01*
X122452Y106271D01*
X121788Y106308D01*
X121124Y106328D01*
X120459Y106333D01*
X119794Y106321D01*
X119130Y106293D01*
X118466Y106248D01*
X117804Y106188D01*
X117143Y106111D01*
X116485Y106019D01*
X115829Y105910D01*
X115176Y105785D01*
X114526Y105645D01*
X113879Y105489D01*
X113237Y105317D01*
X112599Y105129D01*
X111966Y104926D01*
X111338Y104707D01*
X110715Y104473D01*
X110099Y104224D01*
X109488Y103960D01*
X108885Y103682D01*
X108288Y103388D01*
X107699Y103081D01*
X107117Y102758D01*
X106543Y102422D01*
X105978Y102072D01*
X105421Y101708D01*
X104873Y101331D01*
X104335Y100941D01*
X103807Y100537D01*
X103288Y100121D01*
X102780Y99692D01*
X102282Y99251D01*
X101795Y98798D01*
X101320Y98333D01*
X100856Y97857D01*
X100404Y97369D01*
X99963Y96871D01*
X99535Y96362D01*
X99120Y95843D01*
X98717Y95314D01*
X98327Y94775D01*
X97951Y94227D01*
X97588Y93670D01*
X97239Y93104D01*
X96904Y92529D01*
X96582Y91947D01*
X96276Y91357D01*
X95983Y90760D01*
X95705Y90156D01*
X95442Y89545D01*
D12*
X50825Y100125D03*
X69825Y100125D03*
X60325Y122125D03*
D13*
X28575Y31750D03*
X28575Y127000D03*
D14*
X91700Y22225D03*
X60700Y22225D03*
D15*
X212725Y106375D03*
X200025Y106375D03*
X187325Y106375D03*
X174625Y106375D03*
X174625Y52375D03*
X187325Y52375D03*
X200025Y52375D03*
X212725Y52375D03*
D16*
X60325Y48000D03*
X60325Y79000D03*
D17*
X228600Y86875D03*
X228600Y71875D03*
D14*
X175000Y136525D03*
X206000Y136525D03*
X175000Y22860D03*
X206000Y22860D03*
M02*
