M48
;GenerationSoftware,Autodesk,EAGLE,9.6.1*%
;CreationDate,2020-06-06T17:32:11Z*%
FMAT,2
ICI,OFF
METRIC,TZ,000.000
T4C0.350
T3C0.500
T2C0.600
%
G90
M71
T2
X3492Y10160
X14605Y1270
X14605Y2223
X13652Y2223
X13652Y1270
X12700Y1270
X12700Y2223
X10478Y14605
X9525Y14605
X9525Y13652
X10478Y13652
X11430Y13652
X11430Y14605
X22860Y10795
X22860Y11747
X3492Y8890
T3
X2223Y2540
X2223Y3810
X3492Y13335
X3492Y2540
X3492Y3810
X22860Y5080
X22860Y6032
X21273Y6794
X3492Y12065
X2223Y12065
X2223Y13335
T4
X17780Y8890
X19015Y2286
X16510Y8890
X16510Y5207
M30