G04 EAGLE Gerber RS-274X export*
G75*
%MOMM*%
%FSLAX34Y34*%
%LPD*%
%INBoard Outline*%
%IPPOS*%
%AMOC8*
5,1,8,0,0,1.08239X$1,22.5*%
G01*
%ADD10C,0.254000*%


D10*
X0Y31750D02*
X121Y28983D01*
X482Y26237D01*
X1082Y23533D01*
X1915Y20891D01*
X2975Y18332D01*
X4254Y15875D01*
X5742Y13539D01*
X7428Y11342D01*
X9299Y9299D01*
X11342Y7428D01*
X13539Y5742D01*
X15875Y4254D01*
X18332Y2975D01*
X20891Y1915D01*
X23533Y1082D01*
X26237Y482D01*
X28983Y121D01*
X31750Y0D01*
X209550Y0D01*
X212317Y121D01*
X215063Y482D01*
X217768Y1082D01*
X220409Y1915D01*
X222968Y2975D01*
X225425Y4254D01*
X227761Y5742D01*
X229959Y7428D01*
X232001Y9299D01*
X233872Y11342D01*
X235558Y13539D01*
X237046Y15875D01*
X238325Y18332D01*
X239385Y20891D01*
X240218Y23533D01*
X240818Y26237D01*
X241179Y28983D01*
X241300Y31750D01*
X241300Y127000D01*
X241179Y129767D01*
X240818Y132513D01*
X240218Y135218D01*
X239385Y137859D01*
X238325Y140418D01*
X237046Y142875D01*
X235558Y145211D01*
X233872Y147409D01*
X232001Y149451D01*
X229959Y151322D01*
X227761Y153008D01*
X225425Y154496D01*
X222968Y155775D01*
X220409Y156835D01*
X217768Y157668D01*
X215063Y158268D01*
X212317Y158629D01*
X209550Y158750D01*
X31750Y158750D01*
X28983Y158629D01*
X26237Y158268D01*
X23533Y157668D01*
X20891Y156835D01*
X18332Y155775D01*
X15875Y154496D01*
X13539Y153008D01*
X11342Y151322D01*
X9299Y149451D01*
X7428Y147409D01*
X5742Y145211D01*
X4254Y142875D01*
X2975Y140418D01*
X1915Y137859D01*
X1082Y135218D01*
X482Y132513D01*
X121Y129767D01*
X0Y127000D01*
X0Y31750D01*
M02*
