%
M48
M72
T01C0.0197
T02C0.0236
%
T01
X1025Y1150
X1525Y1150
X1525Y1650
X1025Y1650
X1025Y4900
X1525Y4900
X1525Y5400
X1025Y5400
X7525Y3650
X8525Y2775
X9150Y2525
X9150Y2150
T02
X5900Y1025
X5525Y1025
X5150Y1025
X5150Y650
X5525Y650
X5900Y650
X1525Y3150
X1525Y3650
X1525Y4150
X3900Y5525
X4275Y5525
X4650Y5525
X4650Y5900
X4275Y5900
X3900Y5900
X9150Y5150
X9150Y4775
X9150Y4400
M30
