G75*
%MOIN*%
%OFA0B0*%
%FSLAX25Y25*%
%IPPOS*%
%LPD*%
%AMOC8*
5,1,8,0,0,1.08239X$1,22.5*
%
%ADD10R,0.05800X0.05800*%
%ADD11C,0.00500*%
%ADD12C,0.00160*%
%ADD13R,0.04737X0.06312*%
%ADD14C,0.10800*%
%ADD15R,0.07099X0.08280*%
%ADD16R,0.02965X0.06706*%
%ADD17R,0.07099X0.04343*%
%ADD18R,0.03950X0.03950*%
%ADD19R,0.04540X0.04540*%
D10*
X0060811Y0020939D03*
X0060811Y0044561D03*
D11*
X0063370Y0044372D02*
X0034630Y0044372D01*
X0034630Y0044870D02*
X0063370Y0044870D01*
X0063370Y0045369D02*
X0034630Y0045369D01*
X0034630Y0045868D02*
X0063370Y0045868D01*
X0063370Y0046366D02*
X0034630Y0046366D01*
X0034630Y0046865D02*
X0063370Y0046865D01*
X0063370Y0047120D02*
X0063370Y0036884D01*
X0058843Y0036884D01*
X0058480Y0038141D01*
X0057926Y0039326D01*
X0057192Y0040410D01*
X0056299Y0041366D01*
X0055267Y0042170D01*
X0054121Y0042803D01*
X0052891Y0043249D01*
X0051606Y0043497D01*
X0050299Y0043541D01*
X0049000Y0043380D01*
X0047694Y0043588D01*
X0046371Y0043580D01*
X0045068Y0043354D01*
X0043819Y0042918D01*
X0042659Y0042283D01*
X0041619Y0041466D01*
X0040727Y0040489D01*
X0040007Y0039379D01*
X0039479Y0038167D01*
X0039157Y0036884D01*
X0034630Y0036884D01*
X0034630Y0047120D01*
X0063370Y0047120D01*
X0063370Y0043873D02*
X0034630Y0043873D01*
X0034630Y0043375D02*
X0045189Y0043375D01*
X0043744Y0042876D02*
X0034630Y0042876D01*
X0034630Y0042378D02*
X0042834Y0042378D01*
X0042146Y0041879D02*
X0034630Y0041879D01*
X0034630Y0041381D02*
X0041542Y0041381D01*
X0041086Y0040882D02*
X0034630Y0040882D01*
X0034630Y0040384D02*
X0040659Y0040384D01*
X0040336Y0039885D02*
X0034630Y0039885D01*
X0034630Y0039387D02*
X0040012Y0039387D01*
X0039794Y0038888D02*
X0034630Y0038888D01*
X0034630Y0038390D02*
X0039577Y0038390D01*
X0039410Y0037891D02*
X0034630Y0037891D01*
X0034630Y0037393D02*
X0039285Y0037393D01*
X0039160Y0036894D02*
X0034630Y0036894D01*
X0034630Y0028616D02*
X0039157Y0028616D01*
X0039520Y0027359D01*
X0040074Y0026174D01*
X0040808Y0025090D01*
X0041701Y0024134D01*
X0042733Y0023330D01*
X0043879Y0022697D01*
X0045109Y0022251D01*
X0046394Y0022003D01*
X0047701Y0021959D01*
X0049000Y0022120D01*
X0050306Y0021912D01*
X0051629Y0021920D01*
X0052932Y0022146D01*
X0054181Y0022582D01*
X0055341Y0023217D01*
X0056381Y0024034D01*
X0057273Y0025011D01*
X0057993Y0026121D01*
X0058521Y0027333D01*
X0058843Y0028616D01*
X0063370Y0028616D01*
X0063370Y0018380D01*
X0034630Y0018380D01*
X0034630Y0028616D01*
X0034630Y0028420D02*
X0039214Y0028420D01*
X0039358Y0027921D02*
X0034630Y0027921D01*
X0034630Y0027423D02*
X0039501Y0027423D01*
X0039723Y0026924D02*
X0034630Y0026924D01*
X0034630Y0026426D02*
X0039956Y0026426D01*
X0040241Y0025927D02*
X0034630Y0025927D01*
X0034630Y0025429D02*
X0040578Y0025429D01*
X0040957Y0024930D02*
X0034630Y0024930D01*
X0034630Y0024432D02*
X0041423Y0024432D01*
X0041959Y0023933D02*
X0034630Y0023933D01*
X0034630Y0023434D02*
X0042599Y0023434D01*
X0043446Y0022936D02*
X0034630Y0022936D01*
X0034630Y0022437D02*
X0044594Y0022437D01*
X0050135Y0021939D02*
X0034630Y0021939D01*
X0034630Y0021440D02*
X0063370Y0021440D01*
X0063370Y0020942D02*
X0034630Y0020942D01*
X0034630Y0020443D02*
X0063370Y0020443D01*
X0063370Y0019945D02*
X0034630Y0019945D01*
X0034630Y0019446D02*
X0063370Y0019446D01*
X0063370Y0018948D02*
X0034630Y0018948D01*
X0034630Y0018449D02*
X0063370Y0018449D01*
X0063370Y0021939D02*
X0051736Y0021939D01*
X0053766Y0022437D02*
X0063370Y0022437D01*
X0063370Y0022936D02*
X0054827Y0022936D01*
X0055617Y0023434D02*
X0063370Y0023434D01*
X0063370Y0023933D02*
X0056252Y0023933D01*
X0056744Y0024432D02*
X0063370Y0024432D01*
X0063370Y0024930D02*
X0057199Y0024930D01*
X0057544Y0025429D02*
X0063370Y0025429D01*
X0063370Y0025927D02*
X0057867Y0025927D01*
X0058125Y0026426D02*
X0063370Y0026426D01*
X0063370Y0026924D02*
X0058342Y0026924D01*
X0058543Y0027423D02*
X0063370Y0027423D01*
X0063370Y0027921D02*
X0058668Y0027921D01*
X0058793Y0028420D02*
X0063370Y0028420D01*
X0063370Y0036894D02*
X0058840Y0036894D01*
X0058696Y0037393D02*
X0063370Y0037393D01*
X0063370Y0037891D02*
X0058552Y0037891D01*
X0058364Y0038390D02*
X0063370Y0038390D01*
X0063370Y0038888D02*
X0058131Y0038888D01*
X0057885Y0039387D02*
X0063370Y0039387D01*
X0063370Y0039885D02*
X0057548Y0039885D01*
X0057210Y0040384D02*
X0063370Y0040384D01*
X0063370Y0040882D02*
X0056751Y0040882D01*
X0056280Y0041381D02*
X0063370Y0041381D01*
X0063370Y0041879D02*
X0055640Y0041879D01*
X0054891Y0042378D02*
X0063370Y0042378D01*
X0063370Y0042876D02*
X0053919Y0042876D01*
X0052239Y0043375D02*
X0063370Y0043375D01*
D12*
X0037896Y0028107D02*
X0039223Y0028665D01*
X0039328Y0028427D01*
X0039440Y0028192D01*
X0039556Y0027960D01*
X0039679Y0027731D01*
X0039807Y0027505D01*
X0039941Y0027282D01*
X0040080Y0027062D01*
X0040224Y0026846D01*
X0040374Y0026633D01*
X0040528Y0026424D01*
X0040688Y0026219D01*
X0040853Y0026018D01*
X0041022Y0025821D01*
X0041196Y0025628D01*
X0041375Y0025440D01*
X0041559Y0025256D01*
X0041747Y0025076D01*
X0041939Y0024901D01*
X0042136Y0024731D01*
X0042336Y0024566D01*
X0042541Y0024405D01*
X0042749Y0024250D01*
X0042961Y0024100D01*
X0043177Y0023954D01*
X0043396Y0023815D01*
X0043618Y0023680D01*
X0043844Y0023552D01*
X0044073Y0023428D01*
X0044305Y0023310D01*
X0044539Y0023198D01*
X0044776Y0023092D01*
X0045016Y0022992D01*
X0045258Y0022897D01*
X0045503Y0022808D01*
X0045749Y0022726D01*
X0045997Y0022649D01*
X0046248Y0022579D01*
X0046499Y0022514D01*
X0046753Y0022456D01*
X0047007Y0022404D01*
X0047263Y0022358D01*
X0047520Y0022318D01*
X0047778Y0022285D01*
X0048037Y0022258D01*
X0048296Y0022237D01*
X0048555Y0022223D01*
X0048815Y0022215D01*
X0049075Y0022213D01*
X0049335Y0022218D01*
X0049594Y0022229D01*
X0049854Y0022246D01*
X0050113Y0022270D01*
X0050371Y0022300D01*
X0050628Y0022336D01*
X0050885Y0022378D01*
X0051140Y0022427D01*
X0051394Y0022482D01*
X0051647Y0022543D01*
X0051898Y0022610D01*
X0052147Y0022684D01*
X0052395Y0022763D01*
X0052640Y0022849D01*
X0052883Y0022940D01*
X0053125Y0023037D01*
X0053363Y0023140D01*
X0053599Y0023249D01*
X0053832Y0023364D01*
X0054063Y0023484D01*
X0054290Y0023610D01*
X0054514Y0023742D01*
X0054735Y0023878D01*
X0054953Y0024021D01*
X0055167Y0024168D01*
X0055377Y0024321D01*
X0055584Y0024478D01*
X0055787Y0024641D01*
X0055985Y0024809D01*
X0056180Y0024981D01*
X0056370Y0025158D01*
X0056556Y0025340D01*
X0056738Y0025526D01*
X0056914Y0025717D01*
X0057087Y0025911D01*
X0057254Y0026110D01*
X0057416Y0026313D01*
X0057574Y0026520D01*
X0057726Y0026731D01*
X0057873Y0026945D01*
X0058015Y0027163D01*
X0058151Y0027384D01*
X0058283Y0027608D01*
X0058408Y0027836D01*
X0058528Y0028067D01*
X0058642Y0028300D01*
X0058751Y0028536D01*
X0058854Y0028775D01*
X0060187Y0028232D01*
X0060071Y0027960D01*
X0059948Y0027692D01*
X0059818Y0027427D01*
X0059682Y0027165D01*
X0059540Y0026906D01*
X0059391Y0026651D01*
X0059236Y0026399D01*
X0059075Y0026152D01*
X0058908Y0025908D01*
X0058735Y0025669D01*
X0058557Y0025434D01*
X0058372Y0025203D01*
X0058182Y0024977D01*
X0057987Y0024756D01*
X0057786Y0024539D01*
X0057580Y0024328D01*
X0057369Y0024121D01*
X0057153Y0023920D01*
X0056932Y0023724D01*
X0056707Y0023533D01*
X0056477Y0023348D01*
X0056242Y0023169D01*
X0056003Y0022996D01*
X0055760Y0022828D01*
X0055513Y0022666D01*
X0055262Y0022511D01*
X0055007Y0022361D01*
X0054749Y0022218D01*
X0054487Y0022081D01*
X0054222Y0021951D01*
X0053954Y0021827D01*
X0053683Y0021710D01*
X0053409Y0021599D01*
X0053133Y0021495D01*
X0052854Y0021398D01*
X0052573Y0021308D01*
X0052290Y0021225D01*
X0052005Y0021148D01*
X0051718Y0021079D01*
X0051429Y0021016D01*
X0051139Y0020961D01*
X0050848Y0020913D01*
X0050555Y0020871D01*
X0050262Y0020837D01*
X0049968Y0020811D01*
X0049673Y0020791D01*
X0049378Y0020778D01*
X0049083Y0020773D01*
X0048788Y0020775D01*
X0048493Y0020784D01*
X0048198Y0020801D01*
X0047903Y0020824D01*
X0047610Y0020855D01*
X0047317Y0020893D01*
X0047025Y0020938D01*
X0046734Y0020990D01*
X0046445Y0021049D01*
X0046157Y0021115D01*
X0045871Y0021189D01*
X0045587Y0021269D01*
X0045305Y0021356D01*
X0045025Y0021450D01*
X0044748Y0021551D01*
X0044473Y0021658D01*
X0044200Y0021772D01*
X0043931Y0021893D01*
X0043664Y0022021D01*
X0043401Y0022154D01*
X0043141Y0022295D01*
X0042885Y0022441D01*
X0042632Y0022594D01*
X0042383Y0022753D01*
X0042138Y0022918D01*
X0041898Y0023088D01*
X0041661Y0023265D01*
X0041429Y0023447D01*
X0041201Y0023635D01*
X0040978Y0023829D01*
X0040760Y0024028D01*
X0040546Y0024232D01*
X0040338Y0024441D01*
X0040135Y0024655D01*
X0039937Y0024875D01*
X0039745Y0025099D01*
X0039558Y0025327D01*
X0039376Y0025560D01*
X0039201Y0025798D01*
X0039031Y0026039D01*
X0038867Y0026285D01*
X0038710Y0026535D01*
X0038558Y0026788D01*
X0038413Y0027045D01*
X0038274Y0027306D01*
X0038141Y0027569D01*
X0038015Y0027836D01*
X0037895Y0028106D01*
X0038035Y0028165D01*
X0038153Y0027898D01*
X0038277Y0027635D01*
X0038408Y0027374D01*
X0038546Y0027117D01*
X0038689Y0026863D01*
X0038839Y0026613D01*
X0038994Y0026366D01*
X0039156Y0026124D01*
X0039324Y0025885D01*
X0039497Y0025651D01*
X0039676Y0025421D01*
X0039861Y0025195D01*
X0040051Y0024974D01*
X0040246Y0024757D01*
X0040447Y0024546D01*
X0040652Y0024339D01*
X0040863Y0024138D01*
X0041079Y0023941D01*
X0041299Y0023750D01*
X0041524Y0023565D01*
X0041753Y0023385D01*
X0041987Y0023210D01*
X0042225Y0023042D01*
X0042467Y0022879D01*
X0042712Y0022722D01*
X0042962Y0022571D01*
X0043215Y0022426D01*
X0043472Y0022288D01*
X0043732Y0022156D01*
X0043995Y0022030D01*
X0044261Y0021911D01*
X0044530Y0021798D01*
X0044801Y0021692D01*
X0045075Y0021592D01*
X0045352Y0021500D01*
X0045630Y0021414D01*
X0045911Y0021334D01*
X0046193Y0021262D01*
X0046477Y0021197D01*
X0046763Y0021138D01*
X0047050Y0021087D01*
X0047338Y0021042D01*
X0047627Y0021005D01*
X0047917Y0020975D01*
X0048208Y0020951D01*
X0048499Y0020935D01*
X0048791Y0020926D01*
X0049082Y0020924D01*
X0049374Y0020929D01*
X0049665Y0020942D01*
X0049956Y0020961D01*
X0050246Y0020988D01*
X0050536Y0021021D01*
X0050825Y0021062D01*
X0051112Y0021110D01*
X0051399Y0021164D01*
X0051684Y0021226D01*
X0051967Y0021294D01*
X0052249Y0021370D01*
X0052528Y0021452D01*
X0052806Y0021541D01*
X0053081Y0021637D01*
X0053354Y0021740D01*
X0053625Y0021849D01*
X0053892Y0021965D01*
X0054157Y0022087D01*
X0054418Y0022216D01*
X0054677Y0022351D01*
X0054932Y0022492D01*
X0055183Y0022640D01*
X0055431Y0022793D01*
X0055675Y0022953D01*
X0055915Y0023118D01*
X0056151Y0023290D01*
X0056383Y0023467D01*
X0056610Y0023649D01*
X0056833Y0023838D01*
X0057051Y0024031D01*
X0057264Y0024230D01*
X0057473Y0024434D01*
X0057676Y0024643D01*
X0057874Y0024856D01*
X0058067Y0025075D01*
X0058255Y0025298D01*
X0058437Y0025526D01*
X0058613Y0025758D01*
X0058784Y0025995D01*
X0058949Y0026235D01*
X0059108Y0026479D01*
X0059261Y0026728D01*
X0059408Y0026980D01*
X0059548Y0027235D01*
X0059683Y0027494D01*
X0059811Y0027756D01*
X0059932Y0028021D01*
X0060048Y0028289D01*
X0059908Y0028346D01*
X0059794Y0028081D01*
X0059674Y0027819D01*
X0059548Y0027561D01*
X0059415Y0027305D01*
X0059276Y0027053D01*
X0059131Y0026805D01*
X0058980Y0026560D01*
X0058823Y0026318D01*
X0058660Y0026081D01*
X0058492Y0025847D01*
X0058317Y0025618D01*
X0058138Y0025393D01*
X0057952Y0025173D01*
X0057762Y0024957D01*
X0057566Y0024746D01*
X0057365Y0024540D01*
X0057160Y0024339D01*
X0056949Y0024142D01*
X0056734Y0023951D01*
X0056514Y0023766D01*
X0056289Y0023585D01*
X0056061Y0023411D01*
X0055828Y0023241D01*
X0055591Y0023078D01*
X0055350Y0022920D01*
X0055105Y0022769D01*
X0054857Y0022623D01*
X0054605Y0022484D01*
X0054350Y0022350D01*
X0054092Y0022223D01*
X0053830Y0022103D01*
X0053566Y0021988D01*
X0053299Y0021881D01*
X0053030Y0021779D01*
X0052758Y0021685D01*
X0052484Y0021597D01*
X0052208Y0021515D01*
X0051929Y0021441D01*
X0051650Y0021373D01*
X0051368Y0021312D01*
X0051086Y0021258D01*
X0050802Y0021211D01*
X0050517Y0021171D01*
X0050231Y0021138D01*
X0049944Y0021112D01*
X0049657Y0021092D01*
X0049369Y0021080D01*
X0049081Y0021075D01*
X0048793Y0021077D01*
X0048506Y0021086D01*
X0048218Y0021102D01*
X0047931Y0021125D01*
X0047645Y0021155D01*
X0047360Y0021192D01*
X0047075Y0021236D01*
X0046792Y0021286D01*
X0046510Y0021344D01*
X0046229Y0021409D01*
X0045950Y0021480D01*
X0045673Y0021558D01*
X0045398Y0021643D01*
X0045125Y0021735D01*
X0044855Y0021833D01*
X0044587Y0021938D01*
X0044321Y0022049D01*
X0044058Y0022167D01*
X0043799Y0022291D01*
X0043542Y0022422D01*
X0043289Y0022558D01*
X0043039Y0022701D01*
X0042792Y0022850D01*
X0042550Y0023005D01*
X0042311Y0023165D01*
X0042076Y0023332D01*
X0041845Y0023504D01*
X0041619Y0023682D01*
X0041397Y0023865D01*
X0041179Y0024054D01*
X0040967Y0024248D01*
X0040759Y0024447D01*
X0040556Y0024651D01*
X0040357Y0024859D01*
X0040165Y0025073D01*
X0039977Y0025291D01*
X0039795Y0025514D01*
X0039618Y0025741D01*
X0039447Y0025973D01*
X0039281Y0026208D01*
X0039122Y0026448D01*
X0038968Y0026691D01*
X0038820Y0026938D01*
X0038678Y0027189D01*
X0038543Y0027443D01*
X0038413Y0027700D01*
X0038290Y0027960D01*
X0038174Y0028223D01*
X0038313Y0028282D01*
X0038428Y0028022D01*
X0038550Y0027765D01*
X0038677Y0027511D01*
X0038811Y0027261D01*
X0038951Y0027013D01*
X0039097Y0026770D01*
X0039249Y0026529D01*
X0039406Y0026293D01*
X0039570Y0026060D01*
X0039739Y0025832D01*
X0039913Y0025608D01*
X0040093Y0025388D01*
X0040278Y0025172D01*
X0040469Y0024961D01*
X0040664Y0024755D01*
X0040865Y0024554D01*
X0041070Y0024358D01*
X0041280Y0024166D01*
X0041495Y0023980D01*
X0041714Y0023799D01*
X0041938Y0023624D01*
X0042165Y0023454D01*
X0042397Y0023289D01*
X0042633Y0023131D01*
X0042873Y0022978D01*
X0043116Y0022831D01*
X0043362Y0022690D01*
X0043613Y0022555D01*
X0043866Y0022426D01*
X0044122Y0022304D01*
X0044382Y0022188D01*
X0044644Y0022078D01*
X0044908Y0021974D01*
X0045175Y0021877D01*
X0045445Y0021787D01*
X0045716Y0021703D01*
X0045990Y0021626D01*
X0046265Y0021555D01*
X0046542Y0021492D01*
X0046820Y0021435D01*
X0047100Y0021385D01*
X0047381Y0021341D01*
X0047663Y0021305D01*
X0047945Y0021275D01*
X0048229Y0021253D01*
X0048512Y0021237D01*
X0048796Y0021228D01*
X0049080Y0021226D01*
X0049365Y0021231D01*
X0049648Y0021243D01*
X0049932Y0021262D01*
X0050215Y0021288D01*
X0050497Y0021321D01*
X0050779Y0021360D01*
X0051059Y0021407D01*
X0051338Y0021460D01*
X0051616Y0021520D01*
X0051892Y0021587D01*
X0052166Y0021661D01*
X0052439Y0021741D01*
X0052710Y0021828D01*
X0052978Y0021921D01*
X0053244Y0022021D01*
X0053507Y0022128D01*
X0053768Y0022240D01*
X0054026Y0022359D01*
X0054281Y0022485D01*
X0054533Y0022616D01*
X0054782Y0022754D01*
X0055027Y0022898D01*
X0055268Y0023048D01*
X0055506Y0023203D01*
X0055740Y0023364D01*
X0055970Y0023531D01*
X0056196Y0023704D01*
X0056417Y0023882D01*
X0056634Y0024065D01*
X0056847Y0024254D01*
X0057055Y0024447D01*
X0057258Y0024646D01*
X0057456Y0024850D01*
X0057650Y0025058D01*
X0057838Y0025271D01*
X0058020Y0025489D01*
X0058198Y0025710D01*
X0058370Y0025937D01*
X0058536Y0026167D01*
X0058697Y0026401D01*
X0058852Y0026640D01*
X0059001Y0026881D01*
X0059144Y0027127D01*
X0059281Y0027376D01*
X0059412Y0027628D01*
X0059537Y0027883D01*
X0059656Y0028141D01*
X0059768Y0028403D01*
X0059628Y0028460D01*
X0059517Y0028202D01*
X0059400Y0027947D01*
X0059277Y0027695D01*
X0059148Y0027446D01*
X0059012Y0027201D01*
X0058871Y0026958D01*
X0058724Y0026720D01*
X0058571Y0026485D01*
X0058412Y0026253D01*
X0058248Y0026026D01*
X0058078Y0025803D01*
X0057903Y0025584D01*
X0057723Y0025369D01*
X0057537Y0025159D01*
X0057346Y0024953D01*
X0057151Y0024752D01*
X0056950Y0024556D01*
X0056745Y0024365D01*
X0056535Y0024179D01*
X0056321Y0023998D01*
X0056102Y0023822D01*
X0055879Y0023652D01*
X0055652Y0023487D01*
X0055421Y0023328D01*
X0055187Y0023175D01*
X0054948Y0023027D01*
X0054706Y0022885D01*
X0054461Y0022749D01*
X0054212Y0022619D01*
X0053961Y0022496D01*
X0053706Y0022378D01*
X0053449Y0022267D01*
X0053189Y0022162D01*
X0052926Y0022063D01*
X0052661Y0021971D01*
X0052394Y0021885D01*
X0052125Y0021806D01*
X0051854Y0021733D01*
X0051582Y0021667D01*
X0051308Y0021608D01*
X0051032Y0021555D01*
X0050756Y0021510D01*
X0050478Y0021470D01*
X0050199Y0021438D01*
X0049920Y0021413D01*
X0049640Y0021394D01*
X0049360Y0021382D01*
X0049080Y0021377D01*
X0048799Y0021379D01*
X0048519Y0021388D01*
X0048239Y0021403D01*
X0047959Y0021426D01*
X0047680Y0021455D01*
X0047402Y0021491D01*
X0047125Y0021533D01*
X0046849Y0021583D01*
X0046574Y0021639D01*
X0046301Y0021702D01*
X0046029Y0021772D01*
X0045759Y0021848D01*
X0045491Y0021931D01*
X0045225Y0022020D01*
X0044962Y0022115D01*
X0044701Y0022218D01*
X0044442Y0022326D01*
X0044186Y0022441D01*
X0043933Y0022562D01*
X0043683Y0022689D01*
X0043436Y0022822D01*
X0043193Y0022961D01*
X0042953Y0023106D01*
X0042716Y0023257D01*
X0042483Y0023413D01*
X0042255Y0023576D01*
X0042030Y0023743D01*
X0041809Y0023916D01*
X0041593Y0024095D01*
X0041381Y0024279D01*
X0041174Y0024467D01*
X0040971Y0024661D01*
X0040773Y0024860D01*
X0040580Y0025063D01*
X0040392Y0025272D01*
X0040209Y0025484D01*
X0040032Y0025701D01*
X0039859Y0025923D01*
X0039693Y0026148D01*
X0039531Y0026378D01*
X0039376Y0026611D01*
X0039226Y0026848D01*
X0039082Y0027089D01*
X0038944Y0027333D01*
X0038812Y0027580D01*
X0038686Y0027831D01*
X0038566Y0028084D01*
X0038452Y0028341D01*
X0038591Y0028399D01*
X0038704Y0028146D01*
X0038822Y0027896D01*
X0038946Y0027649D01*
X0039077Y0027405D01*
X0039213Y0027164D01*
X0039355Y0026926D01*
X0039503Y0026692D01*
X0039657Y0026462D01*
X0039816Y0026236D01*
X0039980Y0026013D01*
X0040150Y0025795D01*
X0040326Y0025581D01*
X0040506Y0025371D01*
X0040691Y0025165D01*
X0040882Y0024965D01*
X0041077Y0024769D01*
X0041277Y0024577D01*
X0041482Y0024391D01*
X0041691Y0024210D01*
X0041904Y0024034D01*
X0042122Y0023863D01*
X0042344Y0023697D01*
X0042570Y0023537D01*
X0042799Y0023383D01*
X0043033Y0023234D01*
X0043270Y0023091D01*
X0043510Y0022954D01*
X0043753Y0022822D01*
X0044000Y0022697D01*
X0044250Y0022578D01*
X0044502Y0022464D01*
X0044758Y0022357D01*
X0045015Y0022257D01*
X0045275Y0022162D01*
X0045538Y0022074D01*
X0045802Y0021993D01*
X0046069Y0021917D01*
X0046337Y0021849D01*
X0046606Y0021787D01*
X0046878Y0021731D01*
X0047150Y0021682D01*
X0047423Y0021640D01*
X0047698Y0021605D01*
X0047973Y0021576D01*
X0048249Y0021554D01*
X0048525Y0021539D01*
X0048802Y0021530D01*
X0049079Y0021528D01*
X0049355Y0021533D01*
X0049632Y0021545D01*
X0049908Y0021563D01*
X0050184Y0021588D01*
X0050459Y0021620D01*
X0050733Y0021659D01*
X0051006Y0021704D01*
X0051277Y0021756D01*
X0051548Y0021814D01*
X0051817Y0021880D01*
X0052084Y0021951D01*
X0052350Y0022029D01*
X0052613Y0022114D01*
X0052875Y0022205D01*
X0053134Y0022302D01*
X0053390Y0022406D01*
X0053644Y0022516D01*
X0053895Y0022632D01*
X0054144Y0022754D01*
X0054389Y0022882D01*
X0054631Y0023016D01*
X0054870Y0023156D01*
X0055105Y0023302D01*
X0055337Y0023453D01*
X0055565Y0023610D01*
X0055789Y0023773D01*
X0056009Y0023941D01*
X0056224Y0024114D01*
X0056436Y0024293D01*
X0056643Y0024476D01*
X0056845Y0024665D01*
X0057043Y0024858D01*
X0057236Y0025057D01*
X0057425Y0025259D01*
X0057608Y0025467D01*
X0057786Y0025679D01*
X0057959Y0025895D01*
X0058126Y0026115D01*
X0058288Y0026340D01*
X0058445Y0026568D01*
X0058596Y0026800D01*
X0058741Y0027035D01*
X0058881Y0027274D01*
X0059014Y0027517D01*
X0059142Y0027762D01*
X0059263Y0028011D01*
X0059379Y0028262D01*
X0059488Y0028516D01*
X0059348Y0028573D01*
X0059240Y0028323D01*
X0059126Y0028075D01*
X0059006Y0027829D01*
X0058881Y0027587D01*
X0058749Y0027348D01*
X0058611Y0027112D01*
X0058468Y0026880D01*
X0058319Y0026651D01*
X0058164Y0026426D01*
X0058004Y0026204D01*
X0057839Y0025987D01*
X0057669Y0025774D01*
X0057493Y0025565D01*
X0057312Y0025360D01*
X0057126Y0025160D01*
X0056936Y0024964D01*
X0056741Y0024774D01*
X0056541Y0024588D01*
X0056337Y0024406D01*
X0056128Y0024230D01*
X0055915Y0024059D01*
X0055698Y0023894D01*
X0055477Y0023733D01*
X0055252Y0023578D01*
X0055024Y0023429D01*
X0054792Y0023285D01*
X0054556Y0023147D01*
X0054317Y0023015D01*
X0054075Y0022888D01*
X0053830Y0022768D01*
X0053582Y0022653D01*
X0053332Y0022545D01*
X0053078Y0022443D01*
X0052823Y0022347D01*
X0052565Y0022257D01*
X0052305Y0022174D01*
X0052043Y0022096D01*
X0051779Y0022026D01*
X0051514Y0021962D01*
X0051247Y0021904D01*
X0050979Y0021853D01*
X0050710Y0021808D01*
X0050439Y0021770D01*
X0050168Y0021739D01*
X0049896Y0021714D01*
X0049624Y0021696D01*
X0049351Y0021684D01*
X0049078Y0021679D01*
X0048805Y0021681D01*
X0048532Y0021689D01*
X0048259Y0021705D01*
X0047987Y0021726D01*
X0047716Y0021755D01*
X0047445Y0021790D01*
X0047175Y0021831D01*
X0046906Y0021879D01*
X0046639Y0021934D01*
X0046373Y0021995D01*
X0046108Y0022063D01*
X0045845Y0022137D01*
X0045584Y0022218D01*
X0045326Y0022305D01*
X0045069Y0022398D01*
X0044815Y0022497D01*
X0044563Y0022603D01*
X0044314Y0022714D01*
X0044067Y0022832D01*
X0043824Y0022956D01*
X0043584Y0023085D01*
X0043346Y0023221D01*
X0043113Y0023362D01*
X0042883Y0023509D01*
X0042656Y0023661D01*
X0042433Y0023819D01*
X0042214Y0023982D01*
X0042000Y0024151D01*
X0041789Y0024325D01*
X0041583Y0024503D01*
X0041381Y0024687D01*
X0041183Y0024876D01*
X0040991Y0025069D01*
X0040803Y0025268D01*
X0040620Y0025470D01*
X0040442Y0025677D01*
X0040269Y0025888D01*
X0040101Y0026104D01*
X0039939Y0026323D01*
X0039782Y0026547D01*
X0039630Y0026774D01*
X0039484Y0027005D01*
X0039344Y0027239D01*
X0039209Y0027477D01*
X0039081Y0027717D01*
X0038958Y0027961D01*
X0038841Y0028208D01*
X0038731Y0028458D01*
X0038870Y0028516D01*
X0038979Y0028270D01*
X0039094Y0028027D01*
X0039215Y0027786D01*
X0039342Y0027548D01*
X0039475Y0027314D01*
X0039613Y0027083D01*
X0039757Y0026855D01*
X0039907Y0026631D01*
X0040062Y0026411D01*
X0040222Y0026194D01*
X0040387Y0025982D01*
X0040558Y0025774D01*
X0040734Y0025569D01*
X0040914Y0025370D01*
X0041099Y0025174D01*
X0041290Y0024983D01*
X0041484Y0024797D01*
X0041683Y0024616D01*
X0041887Y0024440D01*
X0042095Y0024268D01*
X0042307Y0024102D01*
X0042523Y0023941D01*
X0042742Y0023785D01*
X0042966Y0023635D01*
X0043193Y0023490D01*
X0043423Y0023351D01*
X0043657Y0023217D01*
X0043894Y0023089D01*
X0044134Y0022967D01*
X0044377Y0022851D01*
X0044623Y0022741D01*
X0044872Y0022637D01*
X0045122Y0022539D01*
X0045376Y0022447D01*
X0045631Y0022361D01*
X0045888Y0022282D01*
X0046148Y0022209D01*
X0046408Y0022142D01*
X0046671Y0022082D01*
X0046935Y0022028D01*
X0047200Y0021980D01*
X0047466Y0021939D01*
X0047733Y0021905D01*
X0048001Y0021877D01*
X0048270Y0021855D01*
X0048538Y0021840D01*
X0048808Y0021832D01*
X0049077Y0021830D01*
X0049346Y0021835D01*
X0049615Y0021846D01*
X0049884Y0021864D01*
X0050152Y0021889D01*
X0050420Y0021920D01*
X0050687Y0021957D01*
X0050952Y0022001D01*
X0051217Y0022052D01*
X0051480Y0022109D01*
X0051742Y0022172D01*
X0052002Y0022242D01*
X0052260Y0022318D01*
X0052517Y0022400D01*
X0052771Y0022489D01*
X0053023Y0022583D01*
X0053273Y0022684D01*
X0053520Y0022791D01*
X0053765Y0022904D01*
X0054007Y0023023D01*
X0054245Y0023148D01*
X0054481Y0023278D01*
X0054713Y0023414D01*
X0054942Y0023556D01*
X0055168Y0023703D01*
X0055389Y0023856D01*
X0055607Y0024014D01*
X0055821Y0024178D01*
X0056031Y0024346D01*
X0056237Y0024520D01*
X0056439Y0024699D01*
X0056636Y0024882D01*
X0056829Y0025071D01*
X0057016Y0025264D01*
X0057200Y0025461D01*
X0057378Y0025663D01*
X0057551Y0025869D01*
X0057720Y0026079D01*
X0057883Y0026294D01*
X0058040Y0026512D01*
X0058193Y0026734D01*
X0058340Y0026960D01*
X0058481Y0027189D01*
X0058617Y0027422D01*
X0058747Y0027657D01*
X0058871Y0027896D01*
X0058990Y0028138D01*
X0059102Y0028383D01*
X0059209Y0028630D01*
X0059069Y0028687D01*
X0058964Y0028443D01*
X0058853Y0028202D01*
X0058736Y0027964D01*
X0058613Y0027728D01*
X0058485Y0027495D01*
X0058351Y0027266D01*
X0058212Y0027040D01*
X0058067Y0026817D01*
X0057916Y0026598D01*
X0057761Y0026383D01*
X0057600Y0026172D01*
X0057434Y0025964D01*
X0057263Y0025761D01*
X0057087Y0025562D01*
X0056907Y0025367D01*
X0056721Y0025177D01*
X0056531Y0024991D01*
X0056337Y0024810D01*
X0056138Y0024634D01*
X0055935Y0024463D01*
X0055728Y0024296D01*
X0055517Y0024135D01*
X0055302Y0023979D01*
X0055083Y0023828D01*
X0054861Y0023683D01*
X0054635Y0023543D01*
X0054406Y0023409D01*
X0054173Y0023280D01*
X0053938Y0023157D01*
X0053699Y0023040D01*
X0053458Y0022929D01*
X0053215Y0022823D01*
X0052968Y0022724D01*
X0052720Y0022631D01*
X0052469Y0022543D01*
X0052216Y0022462D01*
X0051961Y0022387D01*
X0051704Y0022318D01*
X0051446Y0022256D01*
X0051187Y0022200D01*
X0050926Y0022150D01*
X0050664Y0022107D01*
X0050401Y0022070D01*
X0050137Y0022039D01*
X0049872Y0022015D01*
X0049607Y0021997D01*
X0049342Y0021986D01*
X0049076Y0021981D01*
X0048811Y0021983D01*
X0048545Y0021991D01*
X0048280Y0022006D01*
X0048015Y0022027D01*
X0047751Y0022055D01*
X0047487Y0022089D01*
X0047225Y0022129D01*
X0046963Y0022176D01*
X0046703Y0022229D01*
X0046444Y0022289D01*
X0046187Y0022355D01*
X0045931Y0022427D01*
X0045678Y0022505D01*
X0045426Y0022590D01*
X0045176Y0022680D01*
X0044929Y0022777D01*
X0044684Y0022880D01*
X0044441Y0022988D01*
X0044202Y0023103D01*
X0043965Y0023223D01*
X0043731Y0023349D01*
X0043500Y0023481D01*
X0043273Y0023618D01*
X0043049Y0023761D01*
X0042829Y0023909D01*
X0042612Y0024063D01*
X0042399Y0024221D01*
X0042190Y0024385D01*
X0041985Y0024554D01*
X0041784Y0024728D01*
X0041588Y0024907D01*
X0041396Y0025091D01*
X0041208Y0025279D01*
X0041025Y0025472D01*
X0040847Y0025669D01*
X0040674Y0025870D01*
X0040506Y0026076D01*
X0040343Y0026285D01*
X0040185Y0026499D01*
X0040032Y0026716D01*
X0039884Y0026937D01*
X0039742Y0027161D01*
X0039606Y0027389D01*
X0039475Y0027620D01*
X0039350Y0027855D01*
X0039230Y0028092D01*
X0039117Y0028332D01*
X0039009Y0028575D01*
X0039148Y0028633D01*
X0039254Y0028394D01*
X0039366Y0028157D01*
X0039484Y0027923D01*
X0039608Y0027692D01*
X0039737Y0027464D01*
X0039871Y0027240D01*
X0040012Y0027018D01*
X0040157Y0026800D01*
X0040308Y0026586D01*
X0040463Y0026376D01*
X0040624Y0026169D01*
X0040790Y0025966D01*
X0040961Y0025768D01*
X0041137Y0025574D01*
X0041317Y0025384D01*
X0041502Y0025198D01*
X0041691Y0025017D01*
X0041885Y0024841D01*
X0042083Y0024669D01*
X0042285Y0024503D01*
X0042491Y0024341D01*
X0042701Y0024184D01*
X0042915Y0024033D01*
X0043132Y0023887D01*
X0043353Y0023746D01*
X0043577Y0023611D01*
X0043805Y0023481D01*
X0044035Y0023357D01*
X0044269Y0023238D01*
X0044505Y0023125D01*
X0044744Y0023018D01*
X0044986Y0022917D01*
X0045230Y0022821D01*
X0045476Y0022732D01*
X0045724Y0022649D01*
X0045974Y0022571D01*
X0046226Y0022500D01*
X0046480Y0022435D01*
X0046735Y0022377D01*
X0046992Y0022324D01*
X0047250Y0022278D01*
X0047509Y0022238D01*
X0047769Y0022205D01*
X0048029Y0022177D01*
X0048290Y0022156D01*
X0048552Y0022142D01*
X0048813Y0022134D01*
X0049075Y0022132D01*
X0049337Y0022137D01*
X0049599Y0022148D01*
X0049860Y0022165D01*
X0050121Y0022189D01*
X0050381Y0022219D01*
X0050641Y0022256D01*
X0050899Y0022299D01*
X0051156Y0022348D01*
X0051412Y0022403D01*
X0051667Y0022465D01*
X0051920Y0022532D01*
X0052171Y0022606D01*
X0052421Y0022686D01*
X0052668Y0022772D01*
X0052913Y0022865D01*
X0053156Y0022963D01*
X0053396Y0023067D01*
X0053634Y0023176D01*
X0053869Y0023292D01*
X0054101Y0023413D01*
X0054331Y0023540D01*
X0054556Y0023672D01*
X0054779Y0023810D01*
X0054998Y0023954D01*
X0055214Y0024102D01*
X0055426Y0024256D01*
X0055634Y0024415D01*
X0055839Y0024579D01*
X0056039Y0024748D01*
X0056235Y0024921D01*
X0056426Y0025100D01*
X0056614Y0025283D01*
X0056797Y0025471D01*
X0056975Y0025663D01*
X0057148Y0025859D01*
X0057317Y0026059D01*
X0057480Y0026264D01*
X0057639Y0026472D01*
X0057792Y0026684D01*
X0057941Y0026900D01*
X0058084Y0027120D01*
X0058221Y0027343D01*
X0058353Y0027569D01*
X0058480Y0027798D01*
X0058601Y0028031D01*
X0058716Y0028266D01*
X0058825Y0028504D01*
X0058929Y0028744D01*
X0060104Y0037393D02*
X0058777Y0036835D01*
X0058672Y0037073D01*
X0058560Y0037308D01*
X0058444Y0037540D01*
X0058321Y0037769D01*
X0058193Y0037995D01*
X0058059Y0038218D01*
X0057920Y0038438D01*
X0057776Y0038654D01*
X0057626Y0038867D01*
X0057472Y0039076D01*
X0057312Y0039281D01*
X0057147Y0039482D01*
X0056978Y0039679D01*
X0056804Y0039872D01*
X0056625Y0040060D01*
X0056441Y0040244D01*
X0056253Y0040424D01*
X0056061Y0040599D01*
X0055864Y0040769D01*
X0055664Y0040934D01*
X0055459Y0041095D01*
X0055251Y0041250D01*
X0055039Y0041400D01*
X0054823Y0041546D01*
X0054604Y0041685D01*
X0054382Y0041820D01*
X0054156Y0041948D01*
X0053927Y0042072D01*
X0053695Y0042190D01*
X0053461Y0042302D01*
X0053224Y0042408D01*
X0052984Y0042508D01*
X0052742Y0042603D01*
X0052497Y0042692D01*
X0052251Y0042774D01*
X0052003Y0042851D01*
X0051752Y0042921D01*
X0051501Y0042986D01*
X0051247Y0043044D01*
X0050993Y0043096D01*
X0050737Y0043142D01*
X0050480Y0043182D01*
X0050222Y0043215D01*
X0049963Y0043242D01*
X0049704Y0043263D01*
X0049445Y0043277D01*
X0049185Y0043285D01*
X0048925Y0043287D01*
X0048665Y0043282D01*
X0048406Y0043271D01*
X0048146Y0043254D01*
X0047887Y0043230D01*
X0047629Y0043200D01*
X0047372Y0043164D01*
X0047115Y0043122D01*
X0046860Y0043073D01*
X0046606Y0043018D01*
X0046353Y0042957D01*
X0046102Y0042890D01*
X0045853Y0042816D01*
X0045605Y0042737D01*
X0045360Y0042651D01*
X0045117Y0042560D01*
X0044875Y0042463D01*
X0044637Y0042360D01*
X0044401Y0042251D01*
X0044168Y0042136D01*
X0043937Y0042016D01*
X0043710Y0041890D01*
X0043486Y0041758D01*
X0043265Y0041622D01*
X0043047Y0041479D01*
X0042833Y0041332D01*
X0042623Y0041179D01*
X0042416Y0041022D01*
X0042213Y0040859D01*
X0042015Y0040691D01*
X0041820Y0040519D01*
X0041630Y0040342D01*
X0041444Y0040160D01*
X0041262Y0039974D01*
X0041086Y0039783D01*
X0040913Y0039589D01*
X0040746Y0039390D01*
X0040584Y0039187D01*
X0040426Y0038980D01*
X0040274Y0038769D01*
X0040127Y0038555D01*
X0039985Y0038337D01*
X0039849Y0038116D01*
X0039717Y0037892D01*
X0039592Y0037664D01*
X0039472Y0037433D01*
X0039358Y0037200D01*
X0039249Y0036964D01*
X0039146Y0036725D01*
X0037813Y0037268D01*
X0037929Y0037540D01*
X0038052Y0037808D01*
X0038182Y0038073D01*
X0038318Y0038335D01*
X0038460Y0038594D01*
X0038609Y0038849D01*
X0038764Y0039101D01*
X0038925Y0039348D01*
X0039092Y0039592D01*
X0039265Y0039831D01*
X0039443Y0040066D01*
X0039628Y0040297D01*
X0039818Y0040523D01*
X0040013Y0040744D01*
X0040214Y0040961D01*
X0040420Y0041172D01*
X0040631Y0041379D01*
X0040847Y0041580D01*
X0041068Y0041776D01*
X0041293Y0041967D01*
X0041523Y0042152D01*
X0041758Y0042331D01*
X0041997Y0042504D01*
X0042240Y0042672D01*
X0042487Y0042834D01*
X0042738Y0042989D01*
X0042993Y0043139D01*
X0043251Y0043282D01*
X0043513Y0043419D01*
X0043778Y0043549D01*
X0044046Y0043673D01*
X0044317Y0043790D01*
X0044591Y0043901D01*
X0044867Y0044005D01*
X0045146Y0044102D01*
X0045427Y0044192D01*
X0045710Y0044275D01*
X0045995Y0044352D01*
X0046282Y0044421D01*
X0046571Y0044484D01*
X0046861Y0044539D01*
X0047152Y0044587D01*
X0047445Y0044629D01*
X0047738Y0044663D01*
X0048032Y0044689D01*
X0048327Y0044709D01*
X0048622Y0044722D01*
X0048917Y0044727D01*
X0049212Y0044725D01*
X0049507Y0044716D01*
X0049802Y0044699D01*
X0050097Y0044676D01*
X0050390Y0044645D01*
X0050683Y0044607D01*
X0050975Y0044562D01*
X0051266Y0044510D01*
X0051555Y0044451D01*
X0051843Y0044385D01*
X0052129Y0044311D01*
X0052413Y0044231D01*
X0052695Y0044144D01*
X0052975Y0044050D01*
X0053252Y0043949D01*
X0053527Y0043842D01*
X0053800Y0043728D01*
X0054069Y0043607D01*
X0054336Y0043479D01*
X0054599Y0043346D01*
X0054859Y0043205D01*
X0055115Y0043059D01*
X0055368Y0042906D01*
X0055617Y0042747D01*
X0055862Y0042582D01*
X0056102Y0042412D01*
X0056339Y0042235D01*
X0056571Y0042053D01*
X0056799Y0041865D01*
X0057022Y0041671D01*
X0057240Y0041472D01*
X0057454Y0041268D01*
X0057662Y0041059D01*
X0057865Y0040845D01*
X0058063Y0040625D01*
X0058255Y0040401D01*
X0058442Y0040173D01*
X0058624Y0039940D01*
X0058799Y0039702D01*
X0058969Y0039461D01*
X0059133Y0039215D01*
X0059290Y0038965D01*
X0059442Y0038712D01*
X0059587Y0038455D01*
X0059726Y0038194D01*
X0059859Y0037931D01*
X0059985Y0037664D01*
X0060105Y0037394D01*
X0059965Y0037335D01*
X0059847Y0037602D01*
X0059723Y0037865D01*
X0059592Y0038126D01*
X0059454Y0038383D01*
X0059311Y0038637D01*
X0059161Y0038887D01*
X0059006Y0039134D01*
X0058844Y0039376D01*
X0058676Y0039615D01*
X0058503Y0039849D01*
X0058324Y0040079D01*
X0058139Y0040305D01*
X0057949Y0040526D01*
X0057754Y0040743D01*
X0057553Y0040954D01*
X0057348Y0041161D01*
X0057137Y0041362D01*
X0056921Y0041559D01*
X0056701Y0041750D01*
X0056476Y0041935D01*
X0056247Y0042115D01*
X0056013Y0042290D01*
X0055775Y0042458D01*
X0055533Y0042621D01*
X0055288Y0042778D01*
X0055038Y0042929D01*
X0054785Y0043074D01*
X0054528Y0043212D01*
X0054268Y0043344D01*
X0054005Y0043470D01*
X0053739Y0043589D01*
X0053470Y0043702D01*
X0053199Y0043808D01*
X0052925Y0043908D01*
X0052648Y0044000D01*
X0052370Y0044086D01*
X0052089Y0044166D01*
X0051807Y0044238D01*
X0051523Y0044303D01*
X0051237Y0044362D01*
X0050950Y0044413D01*
X0050662Y0044458D01*
X0050373Y0044495D01*
X0050083Y0044525D01*
X0049792Y0044549D01*
X0049501Y0044565D01*
X0049209Y0044574D01*
X0048918Y0044576D01*
X0048626Y0044571D01*
X0048335Y0044558D01*
X0048044Y0044539D01*
X0047754Y0044512D01*
X0047464Y0044479D01*
X0047175Y0044438D01*
X0046888Y0044390D01*
X0046601Y0044336D01*
X0046316Y0044274D01*
X0046033Y0044206D01*
X0045751Y0044130D01*
X0045472Y0044048D01*
X0045194Y0043959D01*
X0044919Y0043863D01*
X0044646Y0043760D01*
X0044375Y0043651D01*
X0044108Y0043535D01*
X0043843Y0043413D01*
X0043582Y0043284D01*
X0043323Y0043149D01*
X0043068Y0043008D01*
X0042817Y0042860D01*
X0042569Y0042707D01*
X0042325Y0042547D01*
X0042085Y0042382D01*
X0041849Y0042210D01*
X0041617Y0042033D01*
X0041390Y0041851D01*
X0041167Y0041662D01*
X0040949Y0041469D01*
X0040736Y0041270D01*
X0040527Y0041066D01*
X0040324Y0040857D01*
X0040126Y0040644D01*
X0039933Y0040425D01*
X0039745Y0040202D01*
X0039563Y0039974D01*
X0039387Y0039742D01*
X0039216Y0039505D01*
X0039051Y0039265D01*
X0038892Y0039021D01*
X0038739Y0038772D01*
X0038592Y0038520D01*
X0038452Y0038265D01*
X0038317Y0038006D01*
X0038189Y0037744D01*
X0038068Y0037479D01*
X0037952Y0037211D01*
X0038092Y0037154D01*
X0038206Y0037419D01*
X0038326Y0037681D01*
X0038452Y0037939D01*
X0038585Y0038195D01*
X0038724Y0038447D01*
X0038869Y0038695D01*
X0039020Y0038940D01*
X0039177Y0039182D01*
X0039340Y0039419D01*
X0039508Y0039653D01*
X0039683Y0039882D01*
X0039862Y0040107D01*
X0040048Y0040327D01*
X0040238Y0040543D01*
X0040434Y0040754D01*
X0040635Y0040960D01*
X0040840Y0041161D01*
X0041051Y0041358D01*
X0041266Y0041549D01*
X0041486Y0041734D01*
X0041711Y0041915D01*
X0041939Y0042089D01*
X0042172Y0042259D01*
X0042409Y0042422D01*
X0042650Y0042580D01*
X0042895Y0042731D01*
X0043143Y0042877D01*
X0043395Y0043016D01*
X0043650Y0043150D01*
X0043908Y0043277D01*
X0044170Y0043397D01*
X0044434Y0043512D01*
X0044701Y0043619D01*
X0044970Y0043721D01*
X0045242Y0043815D01*
X0045516Y0043903D01*
X0045792Y0043985D01*
X0046071Y0044059D01*
X0046350Y0044127D01*
X0046632Y0044188D01*
X0046914Y0044242D01*
X0047198Y0044289D01*
X0047483Y0044329D01*
X0047769Y0044362D01*
X0048056Y0044388D01*
X0048343Y0044408D01*
X0048631Y0044420D01*
X0048919Y0044425D01*
X0049207Y0044423D01*
X0049494Y0044414D01*
X0049782Y0044398D01*
X0050069Y0044375D01*
X0050355Y0044345D01*
X0050640Y0044308D01*
X0050925Y0044264D01*
X0051208Y0044214D01*
X0051490Y0044156D01*
X0051771Y0044091D01*
X0052050Y0044020D01*
X0052327Y0043942D01*
X0052602Y0043857D01*
X0052875Y0043765D01*
X0053145Y0043667D01*
X0053413Y0043562D01*
X0053679Y0043451D01*
X0053942Y0043333D01*
X0054201Y0043209D01*
X0054458Y0043078D01*
X0054711Y0042942D01*
X0054961Y0042799D01*
X0055208Y0042650D01*
X0055450Y0042495D01*
X0055689Y0042335D01*
X0055924Y0042168D01*
X0056155Y0041996D01*
X0056381Y0041818D01*
X0056603Y0041635D01*
X0056821Y0041446D01*
X0057033Y0041252D01*
X0057241Y0041053D01*
X0057444Y0040849D01*
X0057643Y0040641D01*
X0057835Y0040427D01*
X0058023Y0040209D01*
X0058205Y0039986D01*
X0058382Y0039759D01*
X0058553Y0039527D01*
X0058719Y0039292D01*
X0058878Y0039052D01*
X0059032Y0038809D01*
X0059180Y0038562D01*
X0059322Y0038311D01*
X0059457Y0038057D01*
X0059587Y0037800D01*
X0059710Y0037540D01*
X0059826Y0037277D01*
X0059687Y0037218D01*
X0059572Y0037478D01*
X0059450Y0037735D01*
X0059323Y0037989D01*
X0059189Y0038239D01*
X0059049Y0038487D01*
X0058903Y0038730D01*
X0058751Y0038971D01*
X0058594Y0039207D01*
X0058430Y0039440D01*
X0058261Y0039668D01*
X0058087Y0039892D01*
X0057907Y0040112D01*
X0057722Y0040328D01*
X0057531Y0040539D01*
X0057336Y0040745D01*
X0057135Y0040946D01*
X0056930Y0041142D01*
X0056720Y0041334D01*
X0056505Y0041520D01*
X0056286Y0041701D01*
X0056062Y0041876D01*
X0055835Y0042046D01*
X0055603Y0042211D01*
X0055367Y0042369D01*
X0055127Y0042522D01*
X0054884Y0042669D01*
X0054638Y0042810D01*
X0054387Y0042945D01*
X0054134Y0043074D01*
X0053878Y0043196D01*
X0053618Y0043312D01*
X0053356Y0043422D01*
X0053092Y0043526D01*
X0052825Y0043623D01*
X0052555Y0043713D01*
X0052284Y0043797D01*
X0052010Y0043874D01*
X0051735Y0043945D01*
X0051458Y0044008D01*
X0051180Y0044065D01*
X0050900Y0044115D01*
X0050619Y0044159D01*
X0050337Y0044195D01*
X0050055Y0044225D01*
X0049771Y0044247D01*
X0049488Y0044263D01*
X0049204Y0044272D01*
X0048920Y0044274D01*
X0048635Y0044269D01*
X0048352Y0044257D01*
X0048068Y0044238D01*
X0047785Y0044212D01*
X0047503Y0044179D01*
X0047221Y0044140D01*
X0046941Y0044093D01*
X0046662Y0044040D01*
X0046384Y0043980D01*
X0046108Y0043913D01*
X0045834Y0043839D01*
X0045561Y0043759D01*
X0045290Y0043672D01*
X0045022Y0043579D01*
X0044756Y0043479D01*
X0044493Y0043372D01*
X0044232Y0043260D01*
X0043974Y0043141D01*
X0043719Y0043015D01*
X0043467Y0042884D01*
X0043218Y0042746D01*
X0042973Y0042602D01*
X0042732Y0042452D01*
X0042494Y0042297D01*
X0042260Y0042136D01*
X0042030Y0041969D01*
X0041804Y0041796D01*
X0041583Y0041618D01*
X0041366Y0041435D01*
X0041153Y0041246D01*
X0040945Y0041053D01*
X0040742Y0040854D01*
X0040544Y0040650D01*
X0040350Y0040442D01*
X0040162Y0040229D01*
X0039980Y0040011D01*
X0039802Y0039790D01*
X0039630Y0039563D01*
X0039464Y0039333D01*
X0039303Y0039099D01*
X0039148Y0038860D01*
X0038999Y0038619D01*
X0038856Y0038373D01*
X0038719Y0038124D01*
X0038588Y0037872D01*
X0038463Y0037617D01*
X0038344Y0037359D01*
X0038232Y0037097D01*
X0038372Y0037040D01*
X0038483Y0037298D01*
X0038600Y0037553D01*
X0038723Y0037805D01*
X0038852Y0038054D01*
X0038988Y0038299D01*
X0039129Y0038542D01*
X0039276Y0038780D01*
X0039429Y0039015D01*
X0039588Y0039247D01*
X0039752Y0039474D01*
X0039922Y0039697D01*
X0040097Y0039916D01*
X0040277Y0040131D01*
X0040463Y0040341D01*
X0040654Y0040547D01*
X0040849Y0040748D01*
X0041050Y0040944D01*
X0041255Y0041135D01*
X0041465Y0041321D01*
X0041679Y0041502D01*
X0041898Y0041678D01*
X0042121Y0041848D01*
X0042348Y0042013D01*
X0042579Y0042172D01*
X0042813Y0042325D01*
X0043052Y0042473D01*
X0043294Y0042615D01*
X0043539Y0042751D01*
X0043788Y0042881D01*
X0044039Y0043004D01*
X0044294Y0043122D01*
X0044551Y0043233D01*
X0044811Y0043338D01*
X0045074Y0043437D01*
X0045339Y0043529D01*
X0045606Y0043615D01*
X0045875Y0043694D01*
X0046146Y0043767D01*
X0046418Y0043833D01*
X0046692Y0043892D01*
X0046968Y0043945D01*
X0047244Y0043990D01*
X0047522Y0044030D01*
X0047801Y0044062D01*
X0048080Y0044087D01*
X0048360Y0044106D01*
X0048640Y0044118D01*
X0048920Y0044123D01*
X0049201Y0044121D01*
X0049481Y0044112D01*
X0049761Y0044097D01*
X0050041Y0044074D01*
X0050320Y0044045D01*
X0050598Y0044009D01*
X0050875Y0043967D01*
X0051151Y0043917D01*
X0051426Y0043861D01*
X0051699Y0043798D01*
X0051971Y0043728D01*
X0052241Y0043652D01*
X0052509Y0043569D01*
X0052775Y0043480D01*
X0053038Y0043385D01*
X0053299Y0043282D01*
X0053558Y0043174D01*
X0053814Y0043059D01*
X0054067Y0042938D01*
X0054317Y0042811D01*
X0054564Y0042678D01*
X0054807Y0042539D01*
X0055047Y0042394D01*
X0055284Y0042243D01*
X0055517Y0042087D01*
X0055745Y0041924D01*
X0055970Y0041757D01*
X0056191Y0041584D01*
X0056407Y0041405D01*
X0056619Y0041221D01*
X0056826Y0041033D01*
X0057029Y0040839D01*
X0057227Y0040640D01*
X0057420Y0040437D01*
X0057608Y0040228D01*
X0057791Y0040016D01*
X0057968Y0039799D01*
X0058141Y0039577D01*
X0058307Y0039352D01*
X0058469Y0039122D01*
X0058624Y0038889D01*
X0058774Y0038652D01*
X0058918Y0038411D01*
X0059056Y0038167D01*
X0059188Y0037920D01*
X0059314Y0037669D01*
X0059434Y0037416D01*
X0059548Y0037159D01*
X0059409Y0037101D01*
X0059296Y0037354D01*
X0059178Y0037604D01*
X0059054Y0037851D01*
X0058923Y0038095D01*
X0058787Y0038336D01*
X0058645Y0038574D01*
X0058497Y0038808D01*
X0058343Y0039038D01*
X0058184Y0039264D01*
X0058020Y0039487D01*
X0057850Y0039705D01*
X0057674Y0039919D01*
X0057494Y0040129D01*
X0057309Y0040335D01*
X0057118Y0040535D01*
X0056923Y0040731D01*
X0056723Y0040923D01*
X0056518Y0041109D01*
X0056309Y0041290D01*
X0056096Y0041466D01*
X0055878Y0041637D01*
X0055656Y0041803D01*
X0055430Y0041963D01*
X0055201Y0042117D01*
X0054967Y0042266D01*
X0054730Y0042409D01*
X0054490Y0042546D01*
X0054247Y0042678D01*
X0054000Y0042803D01*
X0053750Y0042922D01*
X0053498Y0043036D01*
X0053242Y0043143D01*
X0052985Y0043243D01*
X0052725Y0043338D01*
X0052462Y0043426D01*
X0052198Y0043507D01*
X0051931Y0043583D01*
X0051663Y0043651D01*
X0051394Y0043713D01*
X0051122Y0043769D01*
X0050850Y0043818D01*
X0050577Y0043860D01*
X0050302Y0043895D01*
X0050027Y0043924D01*
X0049751Y0043946D01*
X0049475Y0043961D01*
X0049198Y0043970D01*
X0048921Y0043972D01*
X0048645Y0043967D01*
X0048368Y0043955D01*
X0048092Y0043937D01*
X0047816Y0043912D01*
X0047541Y0043880D01*
X0047267Y0043841D01*
X0046994Y0043796D01*
X0046723Y0043744D01*
X0046452Y0043686D01*
X0046183Y0043620D01*
X0045916Y0043549D01*
X0045650Y0043471D01*
X0045387Y0043386D01*
X0045125Y0043295D01*
X0044866Y0043198D01*
X0044610Y0043094D01*
X0044356Y0042984D01*
X0044105Y0042868D01*
X0043856Y0042746D01*
X0043611Y0042618D01*
X0043369Y0042484D01*
X0043130Y0042344D01*
X0042895Y0042198D01*
X0042663Y0042047D01*
X0042435Y0041890D01*
X0042211Y0041727D01*
X0041991Y0041559D01*
X0041776Y0041386D01*
X0041564Y0041207D01*
X0041357Y0041024D01*
X0041155Y0040835D01*
X0040957Y0040642D01*
X0040764Y0040443D01*
X0040575Y0040241D01*
X0040392Y0040033D01*
X0040214Y0039821D01*
X0040041Y0039605D01*
X0039874Y0039385D01*
X0039712Y0039160D01*
X0039555Y0038932D01*
X0039404Y0038700D01*
X0039259Y0038465D01*
X0039119Y0038226D01*
X0038986Y0037983D01*
X0038858Y0037738D01*
X0038737Y0037489D01*
X0038621Y0037238D01*
X0038512Y0036984D01*
X0038652Y0036927D01*
X0038760Y0037177D01*
X0038874Y0037425D01*
X0038994Y0037671D01*
X0039119Y0037913D01*
X0039251Y0038152D01*
X0039389Y0038388D01*
X0039532Y0038620D01*
X0039681Y0038849D01*
X0039836Y0039074D01*
X0039996Y0039296D01*
X0040161Y0039513D01*
X0040331Y0039726D01*
X0040507Y0039935D01*
X0040688Y0040140D01*
X0040874Y0040340D01*
X0041064Y0040536D01*
X0041259Y0040726D01*
X0041459Y0040912D01*
X0041663Y0041094D01*
X0041872Y0041270D01*
X0042085Y0041441D01*
X0042302Y0041606D01*
X0042523Y0041767D01*
X0042748Y0041922D01*
X0042976Y0042071D01*
X0043208Y0042215D01*
X0043444Y0042353D01*
X0043683Y0042485D01*
X0043925Y0042612D01*
X0044170Y0042732D01*
X0044418Y0042847D01*
X0044668Y0042955D01*
X0044922Y0043057D01*
X0045177Y0043153D01*
X0045435Y0043243D01*
X0045695Y0043326D01*
X0045957Y0043404D01*
X0046221Y0043474D01*
X0046486Y0043538D01*
X0046753Y0043596D01*
X0047021Y0043647D01*
X0047290Y0043692D01*
X0047561Y0043730D01*
X0047832Y0043761D01*
X0048104Y0043786D01*
X0048376Y0043804D01*
X0048649Y0043816D01*
X0048922Y0043821D01*
X0049195Y0043819D01*
X0049468Y0043811D01*
X0049741Y0043795D01*
X0050013Y0043774D01*
X0050284Y0043745D01*
X0050555Y0043710D01*
X0050825Y0043669D01*
X0051094Y0043621D01*
X0051361Y0043566D01*
X0051627Y0043505D01*
X0051892Y0043437D01*
X0052155Y0043363D01*
X0052416Y0043282D01*
X0052674Y0043195D01*
X0052931Y0043102D01*
X0053185Y0043003D01*
X0053437Y0042897D01*
X0053686Y0042786D01*
X0053933Y0042668D01*
X0054176Y0042544D01*
X0054416Y0042415D01*
X0054654Y0042279D01*
X0054887Y0042138D01*
X0055117Y0041991D01*
X0055344Y0041839D01*
X0055567Y0041681D01*
X0055786Y0041518D01*
X0056000Y0041349D01*
X0056211Y0041175D01*
X0056417Y0040997D01*
X0056619Y0040813D01*
X0056817Y0040624D01*
X0057009Y0040431D01*
X0057197Y0040232D01*
X0057380Y0040030D01*
X0057558Y0039823D01*
X0057731Y0039612D01*
X0057899Y0039396D01*
X0058061Y0039177D01*
X0058218Y0038953D01*
X0058370Y0038726D01*
X0058516Y0038495D01*
X0058656Y0038261D01*
X0058791Y0038023D01*
X0058919Y0037783D01*
X0059042Y0037539D01*
X0059159Y0037292D01*
X0059269Y0037042D01*
X0059130Y0036984D01*
X0059021Y0037230D01*
X0058906Y0037473D01*
X0058785Y0037714D01*
X0058658Y0037952D01*
X0058525Y0038186D01*
X0058387Y0038417D01*
X0058243Y0038645D01*
X0058093Y0038869D01*
X0057938Y0039089D01*
X0057778Y0039306D01*
X0057613Y0039518D01*
X0057442Y0039726D01*
X0057266Y0039931D01*
X0057086Y0040130D01*
X0056901Y0040326D01*
X0056710Y0040517D01*
X0056516Y0040703D01*
X0056317Y0040884D01*
X0056113Y0041060D01*
X0055905Y0041232D01*
X0055693Y0041398D01*
X0055477Y0041559D01*
X0055258Y0041715D01*
X0055034Y0041865D01*
X0054807Y0042010D01*
X0054577Y0042149D01*
X0054343Y0042283D01*
X0054106Y0042411D01*
X0053866Y0042533D01*
X0053623Y0042649D01*
X0053377Y0042759D01*
X0053128Y0042863D01*
X0052878Y0042961D01*
X0052624Y0043053D01*
X0052369Y0043139D01*
X0052112Y0043218D01*
X0051852Y0043291D01*
X0051592Y0043358D01*
X0051329Y0043418D01*
X0051065Y0043472D01*
X0050800Y0043520D01*
X0050534Y0043561D01*
X0050267Y0043595D01*
X0049999Y0043623D01*
X0049730Y0043645D01*
X0049462Y0043660D01*
X0049192Y0043668D01*
X0048923Y0043670D01*
X0048654Y0043665D01*
X0048385Y0043654D01*
X0048116Y0043636D01*
X0047848Y0043611D01*
X0047580Y0043580D01*
X0047313Y0043543D01*
X0047048Y0043499D01*
X0046783Y0043448D01*
X0046520Y0043391D01*
X0046258Y0043328D01*
X0045998Y0043258D01*
X0045740Y0043182D01*
X0045483Y0043100D01*
X0045229Y0043011D01*
X0044977Y0042917D01*
X0044727Y0042816D01*
X0044480Y0042709D01*
X0044235Y0042596D01*
X0043993Y0042477D01*
X0043755Y0042352D01*
X0043519Y0042222D01*
X0043287Y0042086D01*
X0043058Y0041944D01*
X0042832Y0041797D01*
X0042611Y0041644D01*
X0042393Y0041486D01*
X0042179Y0041322D01*
X0041969Y0041154D01*
X0041763Y0040980D01*
X0041561Y0040801D01*
X0041364Y0040618D01*
X0041171Y0040429D01*
X0040984Y0040236D01*
X0040800Y0040039D01*
X0040622Y0039837D01*
X0040449Y0039631D01*
X0040280Y0039421D01*
X0040117Y0039206D01*
X0039960Y0038988D01*
X0039807Y0038766D01*
X0039660Y0038540D01*
X0039519Y0038311D01*
X0039383Y0038078D01*
X0039253Y0037843D01*
X0039129Y0037604D01*
X0039010Y0037362D01*
X0038898Y0037117D01*
X0038791Y0036870D01*
X0038931Y0036813D01*
X0039036Y0037057D01*
X0039147Y0037298D01*
X0039264Y0037536D01*
X0039387Y0037772D01*
X0039515Y0038005D01*
X0039649Y0038234D01*
X0039788Y0038460D01*
X0039933Y0038683D01*
X0040084Y0038902D01*
X0040239Y0039117D01*
X0040400Y0039328D01*
X0040566Y0039536D01*
X0040737Y0039739D01*
X0040913Y0039938D01*
X0041093Y0040133D01*
X0041279Y0040323D01*
X0041469Y0040509D01*
X0041663Y0040690D01*
X0041862Y0040866D01*
X0042065Y0041037D01*
X0042272Y0041204D01*
X0042483Y0041365D01*
X0042698Y0041521D01*
X0042917Y0041672D01*
X0043139Y0041817D01*
X0043365Y0041957D01*
X0043594Y0042091D01*
X0043827Y0042220D01*
X0044062Y0042343D01*
X0044301Y0042460D01*
X0044542Y0042571D01*
X0044785Y0042677D01*
X0045032Y0042776D01*
X0045280Y0042869D01*
X0045531Y0042957D01*
X0045784Y0043038D01*
X0046039Y0043113D01*
X0046296Y0043182D01*
X0046554Y0043244D01*
X0046813Y0043300D01*
X0047074Y0043350D01*
X0047336Y0043393D01*
X0047599Y0043430D01*
X0047863Y0043461D01*
X0048128Y0043485D01*
X0048393Y0043503D01*
X0048658Y0043514D01*
X0048924Y0043519D01*
X0049189Y0043517D01*
X0049455Y0043509D01*
X0049720Y0043494D01*
X0049985Y0043473D01*
X0050249Y0043445D01*
X0050513Y0043411D01*
X0050775Y0043371D01*
X0051037Y0043324D01*
X0051297Y0043271D01*
X0051556Y0043211D01*
X0051813Y0043145D01*
X0052069Y0043073D01*
X0052322Y0042995D01*
X0052574Y0042910D01*
X0052824Y0042820D01*
X0053071Y0042723D01*
X0053316Y0042620D01*
X0053559Y0042512D01*
X0053798Y0042397D01*
X0054035Y0042277D01*
X0054269Y0042151D01*
X0054500Y0042019D01*
X0054727Y0041882D01*
X0054951Y0041739D01*
X0055171Y0041591D01*
X0055388Y0041437D01*
X0055601Y0041279D01*
X0055810Y0041115D01*
X0056015Y0040946D01*
X0056216Y0040772D01*
X0056412Y0040593D01*
X0056604Y0040409D01*
X0056792Y0040221D01*
X0056975Y0040028D01*
X0057153Y0039831D01*
X0057326Y0039630D01*
X0057494Y0039424D01*
X0057657Y0039215D01*
X0057815Y0039001D01*
X0057968Y0038784D01*
X0058116Y0038563D01*
X0058258Y0038339D01*
X0058394Y0038111D01*
X0058525Y0037880D01*
X0058650Y0037645D01*
X0058770Y0037408D01*
X0058883Y0037168D01*
X0058991Y0036925D01*
X0058852Y0036867D01*
X0058746Y0037106D01*
X0058634Y0037343D01*
X0058516Y0037577D01*
X0058392Y0037808D01*
X0058263Y0038036D01*
X0058129Y0038260D01*
X0057988Y0038482D01*
X0057843Y0038700D01*
X0057692Y0038914D01*
X0057537Y0039124D01*
X0057376Y0039331D01*
X0057210Y0039534D01*
X0057039Y0039732D01*
X0056863Y0039926D01*
X0056683Y0040116D01*
X0056498Y0040302D01*
X0056309Y0040483D01*
X0056115Y0040659D01*
X0055917Y0040831D01*
X0055715Y0040997D01*
X0055509Y0041159D01*
X0055299Y0041316D01*
X0055085Y0041467D01*
X0054868Y0041613D01*
X0054647Y0041754D01*
X0054423Y0041889D01*
X0054195Y0042019D01*
X0053965Y0042143D01*
X0053731Y0042262D01*
X0053495Y0042375D01*
X0053256Y0042482D01*
X0053014Y0042583D01*
X0052770Y0042679D01*
X0052524Y0042768D01*
X0052276Y0042851D01*
X0052026Y0042929D01*
X0051774Y0043000D01*
X0051520Y0043065D01*
X0051265Y0043123D01*
X0051008Y0043176D01*
X0050750Y0043222D01*
X0050491Y0043262D01*
X0050231Y0043295D01*
X0049971Y0043323D01*
X0049710Y0043344D01*
X0049448Y0043358D01*
X0049187Y0043366D01*
X0048925Y0043368D01*
X0048663Y0043363D01*
X0048401Y0043352D01*
X0048140Y0043335D01*
X0047879Y0043311D01*
X0047619Y0043281D01*
X0047359Y0043244D01*
X0047101Y0043201D01*
X0046844Y0043152D01*
X0046588Y0043097D01*
X0046333Y0043035D01*
X0046080Y0042968D01*
X0045829Y0042894D01*
X0045579Y0042814D01*
X0045332Y0042728D01*
X0045087Y0042635D01*
X0044844Y0042537D01*
X0044604Y0042433D01*
X0044366Y0042324D01*
X0044131Y0042208D01*
X0043899Y0042087D01*
X0043669Y0041960D01*
X0043444Y0041828D01*
X0043221Y0041690D01*
X0043002Y0041546D01*
X0042786Y0041398D01*
X0042574Y0041244D01*
X0042366Y0041085D01*
X0042161Y0040921D01*
X0041961Y0040752D01*
X0041765Y0040579D01*
X0041574Y0040400D01*
X0041386Y0040217D01*
X0041203Y0040029D01*
X0041025Y0039837D01*
X0040852Y0039641D01*
X0040683Y0039441D01*
X0040520Y0039236D01*
X0040361Y0039028D01*
X0040208Y0038816D01*
X0040059Y0038600D01*
X0039916Y0038380D01*
X0039779Y0038157D01*
X0039647Y0037931D01*
X0039520Y0037702D01*
X0039399Y0037469D01*
X0039284Y0037234D01*
X0039175Y0036996D01*
X0039071Y0036756D01*
D13*
X0028990Y0040919D03*
X0021510Y0040919D03*
X0025250Y0049581D03*
D14*
X0012750Y0014000D03*
X0012750Y0051500D03*
X0066500Y0054000D03*
X0070250Y0011500D03*
X0084000Y0011500D03*
D15*
X0037602Y0010250D03*
X0025398Y0010250D03*
D16*
X0070250Y0022120D03*
X0075250Y0022120D03*
X0080250Y0022120D03*
X0085250Y0022120D03*
X0085250Y0043380D03*
X0080250Y0043380D03*
X0075250Y0043380D03*
X0070250Y0043380D03*
D17*
X0025250Y0032602D03*
X0025250Y0020398D03*
D18*
X0091500Y0029797D03*
X0091500Y0035703D03*
D19*
X0085250Y0052396D03*
X0077750Y0052396D03*
X0077750Y0058104D03*
X0085250Y0058104D03*
M02*
