G75*
%MOIN*%
%OFA0B0*%
%FSLAX25Y25*%
%IPPOS*%
%LPD*%
%AMOC8*
5,1,8,0,0,1.08239X$1,22.5*
%
%ADD10R,0.07480X0.07874*%
%ADD11C,0.01000*%
%ADD12C,0.03369*%
%ADD13R,0.03369X0.03369*%
%ADD14R,0.03762X0.03762*%
%ADD15C,0.05000*%
%ADD16C,0.03200*%
%ADD17C,0.05000*%
D10*
X0044472Y0008341D03*
X0053528Y0057159D03*
D11*
X0005651Y0001500D02*
X0001500Y0001500D01*
X0005651Y0001500D01*
X0004790Y0001997D01*
X0004790Y0001997D01*
X0001997Y0004790D01*
X0001997Y0004790D01*
X0001500Y0005651D01*
X0001500Y0001500D01*
X0001500Y0002499D02*
X0004288Y0002499D01*
X0003290Y0003497D02*
X0001500Y0003497D01*
X0001500Y0004496D02*
X0002291Y0004496D01*
X0001590Y0005494D02*
X0001500Y0005494D01*
X0005733Y0008490D02*
X0008674Y0008490D01*
X0008333Y0008631D02*
X0009577Y0008116D01*
X0010923Y0008116D01*
X0012167Y0008631D01*
X0012750Y0009214D01*
X0013333Y0008631D01*
X0014577Y0008116D01*
X0015923Y0008116D01*
X0017167Y0008631D01*
X0018119Y0009583D01*
X0018634Y0010827D01*
X0018634Y0012173D01*
X0018119Y0013417D01*
X0017536Y0014000D01*
X0018119Y0014583D01*
X0018634Y0015827D01*
X0018634Y0017173D01*
X0018119Y0018417D01*
X0017167Y0019369D01*
X0015923Y0019884D01*
X0014577Y0019884D01*
X0013333Y0019369D01*
X0012750Y0018786D01*
X0012167Y0019369D01*
X0010923Y0019884D01*
X0009577Y0019884D01*
X0008333Y0019369D01*
X0007381Y0018417D01*
X0006866Y0017173D01*
X0006866Y0015827D01*
X0007381Y0014583D01*
X0007964Y0014000D01*
X0007381Y0013417D01*
X0006866Y0012173D01*
X0006866Y0010827D01*
X0007381Y0009583D01*
X0008333Y0008631D01*
X0007476Y0009488D02*
X0005157Y0009488D01*
X0004761Y0010173D02*
X0004086Y0012695D01*
X0004000Y0014000D01*
X0004000Y0051500D01*
X0004086Y0052805D01*
X0004761Y0055327D01*
X0006066Y0057588D01*
X0007912Y0059434D01*
X0010173Y0060739D01*
X0012695Y0061414D01*
X0014000Y0061500D01*
X0035419Y0061500D01*
X0035419Y0052665D01*
X0036415Y0051669D01*
X0038252Y0051669D01*
X0031383Y0044800D01*
X0017890Y0044800D01*
X0017629Y0045061D01*
X0016085Y0045700D01*
X0014415Y0045700D01*
X0012871Y0045061D01*
X0011689Y0043879D01*
X0011050Y0042335D01*
X0011050Y0030665D01*
X0011689Y0029121D01*
X0012871Y0027939D01*
X0014415Y0027300D01*
X0016085Y0027300D01*
X0017629Y0027939D01*
X0018811Y0029121D01*
X0019450Y0030665D01*
X0019450Y0038200D01*
X0033406Y0038200D01*
X0034619Y0038702D01*
X0035548Y0039631D01*
X0041617Y0045700D01*
X0045961Y0045700D01*
X0043868Y0045139D01*
X0040837Y0043389D01*
X0038361Y0040913D01*
X0036611Y0037882D01*
X0035705Y0034500D01*
X0035705Y0031000D01*
X0036611Y0027618D01*
X0038361Y0024587D01*
X0040837Y0022111D01*
X0043868Y0020361D01*
X0047250Y0019455D01*
X0050750Y0019455D01*
X0054132Y0020361D01*
X0057163Y0022111D01*
X0059639Y0024587D01*
X0061389Y0027618D01*
X0062295Y0031000D01*
X0062295Y0034500D01*
X0061389Y0037882D01*
X0059639Y0040913D01*
X0057163Y0043389D01*
X0054132Y0045139D01*
X0052039Y0045700D01*
X0056383Y0045700D01*
X0060881Y0041202D01*
X0062094Y0040700D01*
X0088860Y0040700D01*
X0089121Y0040439D01*
X0090665Y0039800D01*
X0092335Y0039800D01*
X0093879Y0040439D01*
X0094000Y0040560D01*
X0094000Y0014000D01*
X0093914Y0012695D01*
X0093239Y0010173D01*
X0091934Y0007912D01*
X0090088Y0006066D01*
X0087827Y0004761D01*
X0085305Y0004086D01*
X0084000Y0004000D01*
X0062581Y0004000D01*
X0062581Y0012835D01*
X0061585Y0013831D01*
X0049063Y0013831D01*
X0048917Y0013978D01*
X0040028Y0013978D01*
X0039032Y0012982D01*
X0039032Y0004000D01*
X0014000Y0004000D01*
X0012695Y0004086D01*
X0010173Y0004761D01*
X0007912Y0006066D01*
X0006066Y0007912D01*
X0004761Y0010173D01*
X0004677Y0010487D02*
X0007007Y0010487D01*
X0006866Y0011485D02*
X0004410Y0011485D01*
X0004142Y0012484D02*
X0006994Y0012484D01*
X0007446Y0013482D02*
X0004034Y0013482D01*
X0004000Y0014481D02*
X0007483Y0014481D01*
X0007010Y0015479D02*
X0004000Y0015479D01*
X0004000Y0016478D02*
X0006866Y0016478D01*
X0006991Y0017476D02*
X0004000Y0017476D01*
X0004000Y0018475D02*
X0007439Y0018475D01*
X0008584Y0019473D02*
X0004000Y0019473D01*
X0004000Y0020472D02*
X0043676Y0020472D01*
X0041947Y0021470D02*
X0004000Y0021470D01*
X0004000Y0022469D02*
X0040479Y0022469D01*
X0039480Y0023467D02*
X0004000Y0023467D01*
X0004000Y0024466D02*
X0038482Y0024466D01*
X0037854Y0025464D02*
X0004000Y0025464D01*
X0004000Y0026463D02*
X0037278Y0026463D01*
X0036701Y0027461D02*
X0016475Y0027461D01*
X0018149Y0028460D02*
X0036385Y0028460D01*
X0036118Y0029458D02*
X0018950Y0029458D01*
X0019364Y0030457D02*
X0035850Y0030457D01*
X0035705Y0031455D02*
X0019450Y0031455D01*
X0019450Y0032454D02*
X0035705Y0032454D01*
X0035705Y0033452D02*
X0019450Y0033452D01*
X0019450Y0034451D02*
X0035705Y0034451D01*
X0035959Y0035449D02*
X0019450Y0035449D01*
X0019450Y0036448D02*
X0036227Y0036448D01*
X0036494Y0037446D02*
X0019450Y0037446D01*
X0011050Y0037446D02*
X0004000Y0037446D01*
X0004000Y0038445D02*
X0011050Y0038445D01*
X0011050Y0039443D02*
X0004000Y0039443D01*
X0004000Y0040442D02*
X0011050Y0040442D01*
X0011050Y0041440D02*
X0004000Y0041440D01*
X0004000Y0042439D02*
X0011093Y0042439D01*
X0011506Y0043437D02*
X0004000Y0043437D01*
X0004000Y0044436D02*
X0012246Y0044436D01*
X0013774Y0045434D02*
X0004000Y0045434D01*
X0004000Y0046433D02*
X0033016Y0046433D01*
X0032018Y0045434D02*
X0016726Y0045434D01*
X0004000Y0047432D02*
X0034015Y0047432D01*
X0035013Y0048430D02*
X0004000Y0048430D01*
X0004000Y0049429D02*
X0036012Y0049429D01*
X0037010Y0050427D02*
X0004000Y0050427D01*
X0004000Y0051426D02*
X0038009Y0051426D01*
X0035660Y0052424D02*
X0004061Y0052424D01*
X0004251Y0053423D02*
X0035419Y0053423D01*
X0035419Y0054421D02*
X0004519Y0054421D01*
X0004815Y0055420D02*
X0035419Y0055420D01*
X0035419Y0056418D02*
X0005391Y0056418D01*
X0005968Y0057417D02*
X0035419Y0057417D01*
X0035419Y0058415D02*
X0006894Y0058415D01*
X0007892Y0059414D02*
X0035419Y0059414D01*
X0035419Y0060412D02*
X0009607Y0060412D01*
X0012681Y0061411D02*
X0035419Y0061411D01*
X0037750Y0060250D02*
X0056500Y0060250D01*
X0056500Y0054000D01*
X0037750Y0054000D01*
X0037750Y0060250D01*
X0037750Y0059414D02*
X0056500Y0059414D01*
X0056500Y0058415D02*
X0037750Y0058415D01*
X0037750Y0057417D02*
X0056500Y0057417D01*
X0056500Y0056418D02*
X0037750Y0056418D01*
X0037750Y0055420D02*
X0056500Y0055420D01*
X0056500Y0054421D02*
X0037750Y0054421D01*
X0041351Y0045434D02*
X0044970Y0045434D01*
X0042650Y0044436D02*
X0040353Y0044436D01*
X0040921Y0043437D02*
X0039354Y0043437D01*
X0039887Y0042439D02*
X0038356Y0042439D01*
X0038888Y0041440D02*
X0037357Y0041440D01*
X0038089Y0040442D02*
X0036359Y0040442D01*
X0035360Y0039443D02*
X0037512Y0039443D01*
X0036936Y0038445D02*
X0033998Y0038445D01*
X0053030Y0045434D02*
X0056649Y0045434D01*
X0057647Y0044436D02*
X0055350Y0044436D01*
X0057079Y0043437D02*
X0058646Y0043437D01*
X0058113Y0042439D02*
X0059644Y0042439D01*
X0059112Y0041440D02*
X0060643Y0041440D01*
X0059911Y0040442D02*
X0089118Y0040442D01*
X0093882Y0040442D02*
X0094000Y0040442D01*
X0094000Y0039443D02*
X0060488Y0039443D01*
X0061064Y0038445D02*
X0094000Y0038445D01*
X0094000Y0037446D02*
X0061506Y0037446D01*
X0061773Y0036448D02*
X0094000Y0036448D01*
X0094000Y0035449D02*
X0062041Y0035449D01*
X0062295Y0034451D02*
X0094000Y0034451D01*
X0094000Y0033452D02*
X0062295Y0033452D01*
X0062295Y0032454D02*
X0094000Y0032454D01*
X0094000Y0031455D02*
X0062295Y0031455D01*
X0062150Y0030457D02*
X0094000Y0030457D01*
X0094000Y0029458D02*
X0061882Y0029458D01*
X0061615Y0028460D02*
X0094000Y0028460D01*
X0094000Y0027461D02*
X0061299Y0027461D01*
X0060722Y0026463D02*
X0094000Y0026463D01*
X0094000Y0025464D02*
X0060146Y0025464D01*
X0059518Y0024466D02*
X0094000Y0024466D01*
X0094000Y0023467D02*
X0058520Y0023467D01*
X0057521Y0022469D02*
X0094000Y0022469D01*
X0094000Y0021470D02*
X0056053Y0021470D01*
X0054324Y0020472D02*
X0094000Y0020472D01*
X0094000Y0019473D02*
X0050819Y0019473D01*
X0047181Y0019473D02*
X0016916Y0019473D01*
X0018061Y0018475D02*
X0094000Y0018475D01*
X0094000Y0017476D02*
X0018509Y0017476D01*
X0018634Y0016478D02*
X0094000Y0016478D01*
X0094000Y0015479D02*
X0018490Y0015479D01*
X0018017Y0014481D02*
X0094000Y0014481D01*
X0093966Y0013482D02*
X0061934Y0013482D01*
X0062581Y0012484D02*
X0093858Y0012484D01*
X0093590Y0011485D02*
X0062581Y0011485D01*
X0062581Y0010487D02*
X0093323Y0010487D01*
X0092843Y0009488D02*
X0062581Y0009488D01*
X0062581Y0008490D02*
X0092267Y0008490D01*
X0091512Y0007491D02*
X0062581Y0007491D01*
X0062581Y0006493D02*
X0090514Y0006493D01*
X0089096Y0005494D02*
X0062581Y0005494D01*
X0062581Y0004496D02*
X0086835Y0004496D01*
X0092349Y0001500D02*
X0093210Y0001997D01*
X0093210Y0001997D01*
X0096003Y0004790D01*
X0096500Y0005651D01*
X0096500Y0001500D01*
X0092349Y0001500D01*
X0096500Y0001500D01*
X0096500Y0002499D02*
X0093712Y0002499D01*
X0094710Y0003497D02*
X0096500Y0003497D01*
X0096500Y0004496D02*
X0095709Y0004496D01*
X0096003Y0004790D02*
X0096003Y0004790D01*
X0096410Y0005494D02*
X0096500Y0005494D01*
X0060250Y0005494D02*
X0041500Y0005494D01*
X0041500Y0005250D02*
X0041500Y0011500D01*
X0060250Y0011500D01*
X0060250Y0005250D01*
X0041500Y0005250D01*
X0041500Y0006493D02*
X0060250Y0006493D01*
X0060250Y0007491D02*
X0041500Y0007491D01*
X0041500Y0008490D02*
X0060250Y0008490D01*
X0060250Y0009488D02*
X0041500Y0009488D01*
X0041500Y0010487D02*
X0060250Y0010487D01*
X0060250Y0011485D02*
X0041500Y0011485D01*
X0039032Y0011485D02*
X0018634Y0011485D01*
X0018493Y0010487D02*
X0039032Y0010487D01*
X0039032Y0009488D02*
X0018024Y0009488D01*
X0016826Y0008490D02*
X0039032Y0008490D01*
X0039032Y0007491D02*
X0006488Y0007491D01*
X0007486Y0006493D02*
X0039032Y0006493D01*
X0039032Y0005494D02*
X0008904Y0005494D01*
X0011165Y0004496D02*
X0039032Y0004496D01*
X0039032Y0012484D02*
X0018506Y0012484D01*
X0018054Y0013482D02*
X0039533Y0013482D01*
X0014025Y0027461D02*
X0004000Y0027461D01*
X0004000Y0028460D02*
X0012350Y0028460D01*
X0011550Y0029458D02*
X0004000Y0029458D01*
X0004000Y0030457D02*
X0011136Y0030457D01*
X0011050Y0031455D02*
X0004000Y0031455D01*
X0004000Y0032454D02*
X0011050Y0032454D01*
X0011050Y0033452D02*
X0004000Y0033452D01*
X0004000Y0034451D02*
X0011050Y0034451D01*
X0011050Y0035449D02*
X0004000Y0035449D01*
X0004000Y0036448D02*
X0011050Y0036448D01*
X0011916Y0019473D02*
X0013584Y0019473D01*
X0012750Y0014214D02*
X0012964Y0014000D01*
X0012750Y0013786D01*
X0012536Y0014000D01*
X0012750Y0014214D01*
X0011826Y0008490D02*
X0013674Y0008490D01*
X0060548Y0050869D02*
X0064117Y0047300D01*
X0087300Y0047300D01*
X0087300Y0052335D01*
X0087939Y0053879D01*
X0089121Y0055061D01*
X0090665Y0055700D01*
X0092335Y0055700D01*
X0093239Y0055326D01*
X0093239Y0055327D01*
X0091934Y0057588D01*
X0090088Y0059434D01*
X0087827Y0060739D01*
X0085305Y0061414D01*
X0085305Y0061414D01*
X0084000Y0061500D01*
X0058968Y0061500D01*
X0058968Y0052518D01*
X0058649Y0052200D01*
X0059619Y0051798D01*
X0060548Y0050869D01*
X0060990Y0050427D02*
X0087300Y0050427D01*
X0087300Y0049429D02*
X0061988Y0049429D01*
X0062987Y0048430D02*
X0087300Y0048430D01*
X0087300Y0047432D02*
X0063985Y0047432D01*
X0059991Y0051426D02*
X0087300Y0051426D01*
X0087337Y0052424D02*
X0058873Y0052424D01*
X0058968Y0053423D02*
X0087750Y0053423D01*
X0088481Y0054421D02*
X0058968Y0054421D01*
X0058968Y0055420D02*
X0089988Y0055420D01*
X0092609Y0056418D02*
X0058968Y0056418D01*
X0058968Y0057417D02*
X0092032Y0057417D01*
X0091106Y0058415D02*
X0058968Y0058415D01*
X0058968Y0059414D02*
X0090107Y0059414D01*
X0088393Y0060412D02*
X0058968Y0060412D01*
X0058968Y0061411D02*
X0085319Y0061411D01*
X0092349Y0064000D02*
X0096500Y0064000D01*
X0096500Y0059849D01*
X0096003Y0060710D01*
X0096003Y0060710D01*
X0093210Y0063503D01*
X0092349Y0064000D01*
X0093210Y0063503D02*
X0093210Y0063503D01*
X0093305Y0063408D02*
X0096500Y0063408D01*
X0096500Y0062409D02*
X0094304Y0062409D01*
X0095303Y0061411D02*
X0096500Y0061411D01*
X0096500Y0060412D02*
X0096175Y0060412D01*
X0093185Y0055420D02*
X0093012Y0055420D01*
X0005651Y0064000D02*
X0004790Y0063503D01*
X0001997Y0060710D01*
X0001500Y0059849D01*
X0001500Y0064000D01*
X0005651Y0064000D01*
X0004695Y0063408D02*
X0001500Y0063408D01*
X0001500Y0062409D02*
X0003696Y0062409D01*
X0002697Y0061411D02*
X0001500Y0061411D01*
X0001997Y0060710D02*
X0001997Y0060710D01*
X0001997Y0060710D01*
X0001825Y0060412D02*
X0001500Y0060412D01*
D12*
X0010250Y0054000D03*
X0015250Y0054000D03*
X0015250Y0049000D03*
X0010250Y0049000D03*
X0010250Y0016500D03*
X0015250Y0016500D03*
X0015250Y0011500D03*
X0010250Y0011500D03*
D13*
X0075250Y0036500D03*
X0085250Y0027750D03*
X0091500Y0025250D03*
X0091500Y0021500D03*
D14*
X0059000Y0010250D03*
X0055250Y0010250D03*
X0051500Y0010250D03*
X0051500Y0006500D03*
X0055250Y0006500D03*
X0059000Y0006500D03*
X0046500Y0055250D03*
X0042750Y0055250D03*
X0039000Y0055250D03*
X0039000Y0059000D03*
X0042750Y0059000D03*
X0046500Y0059000D03*
D15*
X0015250Y0041500D03*
X0015250Y0036500D03*
X0015250Y0031500D03*
X0091500Y0044000D03*
X0091500Y0047750D03*
X0091500Y0051500D03*
D16*
X0091500Y0044000D02*
X0062750Y0044000D01*
X0057750Y0049000D01*
X0040250Y0049000D01*
X0032750Y0041500D01*
X0015250Y0041500D01*
D17*
X0015250Y0031500D01*
X0091500Y0044000D02*
X0091500Y0051500D01*
M02*
