G75*
%MOIN*%
%OFA0B0*%
%FSLAX25Y25*%
%IPPOS*%
%LPD*%
%AMOC8*
5,1,8,0,0,1.08239X$1,22.5*
%
%ADD10C,0.00700*%
%ADD11C,0.01200*%
%ADD12C,0.01000*%
%ADD13C,0.00500*%
D10*
X0006498Y0019350D02*
X0006498Y0022219D01*
X0005064Y0020785D02*
X0007933Y0020785D01*
X0007215Y0023954D02*
X0004346Y0023954D01*
X0007215Y0023954D02*
X0008650Y0025388D01*
X0007215Y0026823D01*
X0004346Y0026823D01*
X0005064Y0033100D02*
X0007933Y0033100D01*
X0008650Y0033817D01*
X0008650Y0035252D01*
X0007933Y0035969D01*
X0006498Y0035969D01*
X0006498Y0034535D01*
X0005064Y0035969D02*
X0004346Y0035252D01*
X0004346Y0033817D01*
X0005064Y0033100D01*
X0004346Y0037704D02*
X0008650Y0040573D01*
X0004346Y0040573D01*
X0004346Y0042308D02*
X0004346Y0044460D01*
X0005064Y0045177D01*
X0007933Y0045177D01*
X0008650Y0044460D01*
X0008650Y0042308D01*
X0004346Y0042308D01*
X0004346Y0037704D02*
X0008650Y0037704D01*
X0055600Y0054350D02*
X0055600Y0058654D01*
X0057752Y0058654D01*
X0058469Y0057936D01*
X0058469Y0056502D01*
X0057752Y0055785D01*
X0055600Y0055785D01*
X0061317Y0017404D02*
X0060600Y0016686D01*
X0060600Y0013817D01*
X0061317Y0013100D01*
X0062752Y0013100D01*
X0063469Y0013817D01*
X0063469Y0016686D02*
X0062752Y0017404D01*
X0061317Y0017404D01*
X0090600Y0017404D02*
X0090600Y0013100D01*
X0092752Y0013100D01*
X0093469Y0013817D01*
X0093469Y0016686D01*
X0092752Y0017404D01*
X0090600Y0017404D01*
D11*
X0077626Y0011500D02*
X0077628Y0011660D01*
X0077634Y0011819D01*
X0077644Y0011978D01*
X0077658Y0012137D01*
X0077676Y0012296D01*
X0077698Y0012454D01*
X0077724Y0012611D01*
X0077753Y0012768D01*
X0077787Y0012924D01*
X0077825Y0013079D01*
X0077866Y0013233D01*
X0077911Y0013386D01*
X0077961Y0013538D01*
X0078013Y0013688D01*
X0078070Y0013838D01*
X0078130Y0013985D01*
X0078194Y0014131D01*
X0078262Y0014276D01*
X0078333Y0014419D01*
X0078408Y0014560D01*
X0078487Y0014699D01*
X0078568Y0014836D01*
X0078654Y0014970D01*
X0078742Y0015103D01*
X0078834Y0015234D01*
X0078929Y0015362D01*
X0079027Y0015487D01*
X0079129Y0015611D01*
X0079233Y0015731D01*
X0079340Y0015849D01*
X0079451Y0015965D01*
X0079564Y0016077D01*
X0079680Y0016187D01*
X0079799Y0016293D01*
X0079920Y0016397D01*
X0080044Y0016498D01*
X0080170Y0016595D01*
X0080299Y0016689D01*
X0080430Y0016780D01*
X0080563Y0016868D01*
X0080699Y0016952D01*
X0080836Y0017033D01*
X0080976Y0017111D01*
X0081117Y0017185D01*
X0081260Y0017255D01*
X0081405Y0017322D01*
X0081552Y0017385D01*
X0081700Y0017444D01*
X0081849Y0017500D01*
X0082000Y0017552D01*
X0082152Y0017600D01*
X0082305Y0017645D01*
X0082460Y0017685D01*
X0082615Y0017722D01*
X0082771Y0017754D01*
X0082928Y0017783D01*
X0083086Y0017808D01*
X0083244Y0017829D01*
X0083403Y0017846D01*
X0083562Y0017859D01*
X0083721Y0017868D01*
X0083880Y0017873D01*
X0084040Y0017874D01*
X0084199Y0017871D01*
X0084359Y0017864D01*
X0084518Y0017853D01*
X0084677Y0017838D01*
X0084835Y0017819D01*
X0084993Y0017796D01*
X0085150Y0017769D01*
X0085307Y0017739D01*
X0085463Y0017704D01*
X0085618Y0017665D01*
X0085771Y0017623D01*
X0085924Y0017577D01*
X0086076Y0017527D01*
X0086226Y0017473D01*
X0086375Y0017415D01*
X0086522Y0017354D01*
X0086668Y0017289D01*
X0086812Y0017220D01*
X0086954Y0017148D01*
X0087094Y0017072D01*
X0087233Y0016993D01*
X0087369Y0016911D01*
X0087504Y0016825D01*
X0087636Y0016735D01*
X0087766Y0016643D01*
X0087893Y0016547D01*
X0088019Y0016448D01*
X0088141Y0016346D01*
X0088261Y0016240D01*
X0088378Y0016132D01*
X0088493Y0016021D01*
X0088605Y0015907D01*
X0088714Y0015791D01*
X0088820Y0015671D01*
X0088922Y0015549D01*
X0089022Y0015425D01*
X0089119Y0015298D01*
X0089212Y0015169D01*
X0089303Y0015037D01*
X0089389Y0014903D01*
X0089473Y0014767D01*
X0089553Y0014629D01*
X0089630Y0014489D01*
X0089703Y0014347D01*
X0089772Y0014204D01*
X0089838Y0014058D01*
X0089900Y0013912D01*
X0089959Y0013763D01*
X0090013Y0013613D01*
X0090064Y0013462D01*
X0090112Y0013310D01*
X0090155Y0013156D01*
X0090195Y0013002D01*
X0090230Y0012846D01*
X0090262Y0012690D01*
X0090290Y0012533D01*
X0090314Y0012375D01*
X0090334Y0012216D01*
X0090350Y0012058D01*
X0090362Y0011899D01*
X0090370Y0011739D01*
X0090374Y0011580D01*
X0090374Y0011420D01*
X0090370Y0011261D01*
X0090362Y0011101D01*
X0090350Y0010942D01*
X0090334Y0010784D01*
X0090314Y0010625D01*
X0090290Y0010467D01*
X0090262Y0010310D01*
X0090230Y0010154D01*
X0090195Y0009998D01*
X0090155Y0009844D01*
X0090112Y0009690D01*
X0090064Y0009538D01*
X0090013Y0009387D01*
X0089959Y0009237D01*
X0089900Y0009088D01*
X0089838Y0008942D01*
X0089772Y0008796D01*
X0089703Y0008653D01*
X0089630Y0008511D01*
X0089553Y0008371D01*
X0089473Y0008233D01*
X0089389Y0008097D01*
X0089303Y0007963D01*
X0089212Y0007831D01*
X0089119Y0007702D01*
X0089022Y0007575D01*
X0088922Y0007451D01*
X0088820Y0007329D01*
X0088714Y0007209D01*
X0088605Y0007093D01*
X0088493Y0006979D01*
X0088378Y0006868D01*
X0088261Y0006760D01*
X0088141Y0006654D01*
X0088019Y0006552D01*
X0087893Y0006453D01*
X0087766Y0006357D01*
X0087636Y0006265D01*
X0087504Y0006175D01*
X0087369Y0006089D01*
X0087233Y0006007D01*
X0087094Y0005928D01*
X0086954Y0005852D01*
X0086812Y0005780D01*
X0086668Y0005711D01*
X0086522Y0005646D01*
X0086375Y0005585D01*
X0086226Y0005527D01*
X0086076Y0005473D01*
X0085924Y0005423D01*
X0085771Y0005377D01*
X0085618Y0005335D01*
X0085463Y0005296D01*
X0085307Y0005261D01*
X0085150Y0005231D01*
X0084993Y0005204D01*
X0084835Y0005181D01*
X0084677Y0005162D01*
X0084518Y0005147D01*
X0084359Y0005136D01*
X0084199Y0005129D01*
X0084040Y0005126D01*
X0083880Y0005127D01*
X0083721Y0005132D01*
X0083562Y0005141D01*
X0083403Y0005154D01*
X0083244Y0005171D01*
X0083086Y0005192D01*
X0082928Y0005217D01*
X0082771Y0005246D01*
X0082615Y0005278D01*
X0082460Y0005315D01*
X0082305Y0005355D01*
X0082152Y0005400D01*
X0082000Y0005448D01*
X0081849Y0005500D01*
X0081700Y0005556D01*
X0081552Y0005615D01*
X0081405Y0005678D01*
X0081260Y0005745D01*
X0081117Y0005815D01*
X0080976Y0005889D01*
X0080836Y0005967D01*
X0080699Y0006048D01*
X0080563Y0006132D01*
X0080430Y0006220D01*
X0080299Y0006311D01*
X0080170Y0006405D01*
X0080044Y0006502D01*
X0079920Y0006603D01*
X0079799Y0006707D01*
X0079680Y0006813D01*
X0079564Y0006923D01*
X0079451Y0007035D01*
X0079340Y0007151D01*
X0079233Y0007269D01*
X0079129Y0007389D01*
X0079027Y0007513D01*
X0078929Y0007638D01*
X0078834Y0007766D01*
X0078742Y0007897D01*
X0078654Y0008030D01*
X0078568Y0008164D01*
X0078487Y0008301D01*
X0078408Y0008440D01*
X0078333Y0008581D01*
X0078262Y0008724D01*
X0078194Y0008869D01*
X0078130Y0009015D01*
X0078070Y0009162D01*
X0078013Y0009312D01*
X0077961Y0009462D01*
X0077911Y0009614D01*
X0077866Y0009767D01*
X0077825Y0009921D01*
X0077787Y0010076D01*
X0077753Y0010232D01*
X0077724Y0010389D01*
X0077698Y0010546D01*
X0077676Y0010704D01*
X0077658Y0010863D01*
X0077644Y0011022D01*
X0077634Y0011181D01*
X0077628Y0011340D01*
X0077626Y0011500D01*
X0064000Y0011500D02*
X0064002Y0011658D01*
X0064008Y0011815D01*
X0064018Y0011973D01*
X0064032Y0012130D01*
X0064050Y0012286D01*
X0064071Y0012443D01*
X0064097Y0012598D01*
X0064127Y0012753D01*
X0064160Y0012907D01*
X0064198Y0013060D01*
X0064239Y0013213D01*
X0064284Y0013364D01*
X0064333Y0013514D01*
X0064386Y0013662D01*
X0064442Y0013810D01*
X0064503Y0013955D01*
X0064566Y0014100D01*
X0064634Y0014242D01*
X0064705Y0014383D01*
X0064779Y0014522D01*
X0064857Y0014659D01*
X0064939Y0014794D01*
X0065023Y0014927D01*
X0065112Y0015058D01*
X0065203Y0015186D01*
X0065298Y0015313D01*
X0065395Y0015436D01*
X0065496Y0015558D01*
X0065600Y0015676D01*
X0065707Y0015792D01*
X0065817Y0015905D01*
X0065929Y0016016D01*
X0066045Y0016123D01*
X0066163Y0016228D01*
X0066283Y0016330D01*
X0066406Y0016428D01*
X0066532Y0016524D01*
X0066660Y0016616D01*
X0066790Y0016705D01*
X0066922Y0016791D01*
X0067057Y0016873D01*
X0067194Y0016952D01*
X0067332Y0017027D01*
X0067472Y0017099D01*
X0067615Y0017167D01*
X0067758Y0017232D01*
X0067904Y0017293D01*
X0068051Y0017350D01*
X0068199Y0017404D01*
X0068349Y0017454D01*
X0068499Y0017500D01*
X0068651Y0017542D01*
X0068804Y0017581D01*
X0068958Y0017615D01*
X0069113Y0017646D01*
X0069268Y0017672D01*
X0069424Y0017695D01*
X0069581Y0017714D01*
X0069738Y0017729D01*
X0069895Y0017740D01*
X0070053Y0017747D01*
X0070211Y0017750D01*
X0070368Y0017749D01*
X0070526Y0017744D01*
X0070683Y0017735D01*
X0070841Y0017722D01*
X0070997Y0017705D01*
X0071154Y0017684D01*
X0071309Y0017660D01*
X0071464Y0017631D01*
X0071619Y0017598D01*
X0071772Y0017562D01*
X0071925Y0017521D01*
X0072076Y0017477D01*
X0072226Y0017429D01*
X0072375Y0017378D01*
X0072523Y0017322D01*
X0072669Y0017263D01*
X0072814Y0017200D01*
X0072957Y0017133D01*
X0073098Y0017063D01*
X0073237Y0016990D01*
X0073375Y0016913D01*
X0073511Y0016832D01*
X0073644Y0016748D01*
X0073775Y0016661D01*
X0073904Y0016570D01*
X0074031Y0016476D01*
X0074156Y0016379D01*
X0074277Y0016279D01*
X0074397Y0016176D01*
X0074513Y0016070D01*
X0074627Y0015961D01*
X0074739Y0015849D01*
X0074847Y0015735D01*
X0074952Y0015617D01*
X0075055Y0015497D01*
X0075154Y0015375D01*
X0075250Y0015250D01*
X0075343Y0015122D01*
X0075433Y0014993D01*
X0075519Y0014861D01*
X0075603Y0014727D01*
X0075682Y0014591D01*
X0075759Y0014453D01*
X0075831Y0014313D01*
X0075900Y0014171D01*
X0075966Y0014028D01*
X0076028Y0013883D01*
X0076086Y0013736D01*
X0076141Y0013588D01*
X0076192Y0013439D01*
X0076239Y0013288D01*
X0076282Y0013137D01*
X0076321Y0012984D01*
X0076357Y0012830D01*
X0076388Y0012676D01*
X0076416Y0012521D01*
X0076440Y0012365D01*
X0076460Y0012208D01*
X0076476Y0012051D01*
X0076488Y0011894D01*
X0076496Y0011737D01*
X0076500Y0011579D01*
X0076500Y0011421D01*
X0076496Y0011263D01*
X0076488Y0011106D01*
X0076476Y0010949D01*
X0076460Y0010792D01*
X0076440Y0010635D01*
X0076416Y0010479D01*
X0076388Y0010324D01*
X0076357Y0010170D01*
X0076321Y0010016D01*
X0076282Y0009863D01*
X0076239Y0009712D01*
X0076192Y0009561D01*
X0076141Y0009412D01*
X0076086Y0009264D01*
X0076028Y0009117D01*
X0075966Y0008972D01*
X0075900Y0008829D01*
X0075831Y0008687D01*
X0075759Y0008547D01*
X0075682Y0008409D01*
X0075603Y0008273D01*
X0075519Y0008139D01*
X0075433Y0008007D01*
X0075343Y0007878D01*
X0075250Y0007750D01*
X0075154Y0007625D01*
X0075055Y0007503D01*
X0074952Y0007383D01*
X0074847Y0007265D01*
X0074739Y0007151D01*
X0074627Y0007039D01*
X0074513Y0006930D01*
X0074397Y0006824D01*
X0074277Y0006721D01*
X0074156Y0006621D01*
X0074031Y0006524D01*
X0073904Y0006430D01*
X0073775Y0006339D01*
X0073644Y0006252D01*
X0073511Y0006168D01*
X0073375Y0006087D01*
X0073237Y0006010D01*
X0073098Y0005937D01*
X0072957Y0005867D01*
X0072814Y0005800D01*
X0072669Y0005737D01*
X0072523Y0005678D01*
X0072375Y0005622D01*
X0072226Y0005571D01*
X0072076Y0005523D01*
X0071925Y0005479D01*
X0071772Y0005438D01*
X0071619Y0005402D01*
X0071464Y0005369D01*
X0071309Y0005340D01*
X0071154Y0005316D01*
X0070997Y0005295D01*
X0070841Y0005278D01*
X0070683Y0005265D01*
X0070526Y0005256D01*
X0070368Y0005251D01*
X0070211Y0005250D01*
X0070053Y0005253D01*
X0069895Y0005260D01*
X0069738Y0005271D01*
X0069581Y0005286D01*
X0069424Y0005305D01*
X0069268Y0005328D01*
X0069113Y0005354D01*
X0068958Y0005385D01*
X0068804Y0005419D01*
X0068651Y0005458D01*
X0068499Y0005500D01*
X0068349Y0005546D01*
X0068199Y0005596D01*
X0068051Y0005650D01*
X0067904Y0005707D01*
X0067758Y0005768D01*
X0067615Y0005833D01*
X0067472Y0005901D01*
X0067332Y0005973D01*
X0067194Y0006048D01*
X0067057Y0006127D01*
X0066922Y0006209D01*
X0066790Y0006295D01*
X0066660Y0006384D01*
X0066532Y0006476D01*
X0066406Y0006572D01*
X0066283Y0006670D01*
X0066163Y0006772D01*
X0066045Y0006877D01*
X0065929Y0006984D01*
X0065817Y0007095D01*
X0065707Y0007208D01*
X0065600Y0007324D01*
X0065496Y0007442D01*
X0065395Y0007564D01*
X0065298Y0007687D01*
X0065203Y0007814D01*
X0065112Y0007942D01*
X0065023Y0008073D01*
X0064939Y0008206D01*
X0064857Y0008341D01*
X0064779Y0008478D01*
X0064705Y0008617D01*
X0064634Y0008758D01*
X0064566Y0008900D01*
X0064503Y0009045D01*
X0064442Y0009190D01*
X0064386Y0009338D01*
X0064333Y0009486D01*
X0064284Y0009636D01*
X0064239Y0009787D01*
X0064198Y0009940D01*
X0064160Y0010093D01*
X0064127Y0010247D01*
X0064097Y0010402D01*
X0064071Y0010557D01*
X0064050Y0010714D01*
X0064032Y0010870D01*
X0064018Y0011027D01*
X0064008Y0011185D01*
X0064002Y0011342D01*
X0064000Y0011500D01*
X0006376Y0014000D02*
X0006378Y0014160D01*
X0006384Y0014319D01*
X0006394Y0014478D01*
X0006408Y0014637D01*
X0006426Y0014796D01*
X0006448Y0014954D01*
X0006474Y0015111D01*
X0006503Y0015268D01*
X0006537Y0015424D01*
X0006575Y0015579D01*
X0006616Y0015733D01*
X0006661Y0015886D01*
X0006711Y0016038D01*
X0006763Y0016188D01*
X0006820Y0016338D01*
X0006880Y0016485D01*
X0006944Y0016631D01*
X0007012Y0016776D01*
X0007083Y0016919D01*
X0007158Y0017060D01*
X0007237Y0017199D01*
X0007318Y0017336D01*
X0007404Y0017470D01*
X0007492Y0017603D01*
X0007584Y0017734D01*
X0007679Y0017862D01*
X0007777Y0017987D01*
X0007879Y0018111D01*
X0007983Y0018231D01*
X0008090Y0018349D01*
X0008201Y0018465D01*
X0008314Y0018577D01*
X0008430Y0018687D01*
X0008549Y0018793D01*
X0008670Y0018897D01*
X0008794Y0018998D01*
X0008920Y0019095D01*
X0009049Y0019189D01*
X0009180Y0019280D01*
X0009313Y0019368D01*
X0009449Y0019452D01*
X0009586Y0019533D01*
X0009726Y0019611D01*
X0009867Y0019685D01*
X0010010Y0019755D01*
X0010155Y0019822D01*
X0010302Y0019885D01*
X0010450Y0019944D01*
X0010599Y0020000D01*
X0010750Y0020052D01*
X0010902Y0020100D01*
X0011055Y0020145D01*
X0011210Y0020185D01*
X0011365Y0020222D01*
X0011521Y0020254D01*
X0011678Y0020283D01*
X0011836Y0020308D01*
X0011994Y0020329D01*
X0012153Y0020346D01*
X0012312Y0020359D01*
X0012471Y0020368D01*
X0012630Y0020373D01*
X0012790Y0020374D01*
X0012949Y0020371D01*
X0013109Y0020364D01*
X0013268Y0020353D01*
X0013427Y0020338D01*
X0013585Y0020319D01*
X0013743Y0020296D01*
X0013900Y0020269D01*
X0014057Y0020239D01*
X0014213Y0020204D01*
X0014368Y0020165D01*
X0014521Y0020123D01*
X0014674Y0020077D01*
X0014826Y0020027D01*
X0014976Y0019973D01*
X0015125Y0019915D01*
X0015272Y0019854D01*
X0015418Y0019789D01*
X0015562Y0019720D01*
X0015704Y0019648D01*
X0015844Y0019572D01*
X0015983Y0019493D01*
X0016119Y0019411D01*
X0016254Y0019325D01*
X0016386Y0019235D01*
X0016516Y0019143D01*
X0016643Y0019047D01*
X0016769Y0018948D01*
X0016891Y0018846D01*
X0017011Y0018740D01*
X0017128Y0018632D01*
X0017243Y0018521D01*
X0017355Y0018407D01*
X0017464Y0018291D01*
X0017570Y0018171D01*
X0017672Y0018049D01*
X0017772Y0017925D01*
X0017869Y0017798D01*
X0017962Y0017669D01*
X0018053Y0017537D01*
X0018139Y0017403D01*
X0018223Y0017267D01*
X0018303Y0017129D01*
X0018380Y0016989D01*
X0018453Y0016847D01*
X0018522Y0016704D01*
X0018588Y0016558D01*
X0018650Y0016412D01*
X0018709Y0016263D01*
X0018763Y0016113D01*
X0018814Y0015962D01*
X0018862Y0015810D01*
X0018905Y0015656D01*
X0018945Y0015502D01*
X0018980Y0015346D01*
X0019012Y0015190D01*
X0019040Y0015033D01*
X0019064Y0014875D01*
X0019084Y0014716D01*
X0019100Y0014558D01*
X0019112Y0014399D01*
X0019120Y0014239D01*
X0019124Y0014080D01*
X0019124Y0013920D01*
X0019120Y0013761D01*
X0019112Y0013601D01*
X0019100Y0013442D01*
X0019084Y0013284D01*
X0019064Y0013125D01*
X0019040Y0012967D01*
X0019012Y0012810D01*
X0018980Y0012654D01*
X0018945Y0012498D01*
X0018905Y0012344D01*
X0018862Y0012190D01*
X0018814Y0012038D01*
X0018763Y0011887D01*
X0018709Y0011737D01*
X0018650Y0011588D01*
X0018588Y0011442D01*
X0018522Y0011296D01*
X0018453Y0011153D01*
X0018380Y0011011D01*
X0018303Y0010871D01*
X0018223Y0010733D01*
X0018139Y0010597D01*
X0018053Y0010463D01*
X0017962Y0010331D01*
X0017869Y0010202D01*
X0017772Y0010075D01*
X0017672Y0009951D01*
X0017570Y0009829D01*
X0017464Y0009709D01*
X0017355Y0009593D01*
X0017243Y0009479D01*
X0017128Y0009368D01*
X0017011Y0009260D01*
X0016891Y0009154D01*
X0016769Y0009052D01*
X0016643Y0008953D01*
X0016516Y0008857D01*
X0016386Y0008765D01*
X0016254Y0008675D01*
X0016119Y0008589D01*
X0015983Y0008507D01*
X0015844Y0008428D01*
X0015704Y0008352D01*
X0015562Y0008280D01*
X0015418Y0008211D01*
X0015272Y0008146D01*
X0015125Y0008085D01*
X0014976Y0008027D01*
X0014826Y0007973D01*
X0014674Y0007923D01*
X0014521Y0007877D01*
X0014368Y0007835D01*
X0014213Y0007796D01*
X0014057Y0007761D01*
X0013900Y0007731D01*
X0013743Y0007704D01*
X0013585Y0007681D01*
X0013427Y0007662D01*
X0013268Y0007647D01*
X0013109Y0007636D01*
X0012949Y0007629D01*
X0012790Y0007626D01*
X0012630Y0007627D01*
X0012471Y0007632D01*
X0012312Y0007641D01*
X0012153Y0007654D01*
X0011994Y0007671D01*
X0011836Y0007692D01*
X0011678Y0007717D01*
X0011521Y0007746D01*
X0011365Y0007778D01*
X0011210Y0007815D01*
X0011055Y0007855D01*
X0010902Y0007900D01*
X0010750Y0007948D01*
X0010599Y0008000D01*
X0010450Y0008056D01*
X0010302Y0008115D01*
X0010155Y0008178D01*
X0010010Y0008245D01*
X0009867Y0008315D01*
X0009726Y0008389D01*
X0009586Y0008467D01*
X0009449Y0008548D01*
X0009313Y0008632D01*
X0009180Y0008720D01*
X0009049Y0008811D01*
X0008920Y0008905D01*
X0008794Y0009002D01*
X0008670Y0009103D01*
X0008549Y0009207D01*
X0008430Y0009313D01*
X0008314Y0009423D01*
X0008201Y0009535D01*
X0008090Y0009651D01*
X0007983Y0009769D01*
X0007879Y0009889D01*
X0007777Y0010013D01*
X0007679Y0010138D01*
X0007584Y0010266D01*
X0007492Y0010397D01*
X0007404Y0010530D01*
X0007318Y0010664D01*
X0007237Y0010801D01*
X0007158Y0010940D01*
X0007083Y0011081D01*
X0007012Y0011224D01*
X0006944Y0011369D01*
X0006880Y0011515D01*
X0006820Y0011662D01*
X0006763Y0011812D01*
X0006711Y0011962D01*
X0006661Y0012114D01*
X0006616Y0012267D01*
X0006575Y0012421D01*
X0006537Y0012576D01*
X0006503Y0012732D01*
X0006474Y0012889D01*
X0006448Y0013046D01*
X0006426Y0013204D01*
X0006408Y0013363D01*
X0006394Y0013522D01*
X0006384Y0013681D01*
X0006378Y0013840D01*
X0006376Y0014000D01*
X0006500Y0051500D02*
X0006502Y0051658D01*
X0006508Y0051815D01*
X0006518Y0051973D01*
X0006532Y0052130D01*
X0006550Y0052286D01*
X0006571Y0052443D01*
X0006597Y0052598D01*
X0006627Y0052753D01*
X0006660Y0052907D01*
X0006698Y0053060D01*
X0006739Y0053213D01*
X0006784Y0053364D01*
X0006833Y0053514D01*
X0006886Y0053662D01*
X0006942Y0053810D01*
X0007003Y0053955D01*
X0007066Y0054100D01*
X0007134Y0054242D01*
X0007205Y0054383D01*
X0007279Y0054522D01*
X0007357Y0054659D01*
X0007439Y0054794D01*
X0007523Y0054927D01*
X0007612Y0055058D01*
X0007703Y0055186D01*
X0007798Y0055313D01*
X0007895Y0055436D01*
X0007996Y0055558D01*
X0008100Y0055676D01*
X0008207Y0055792D01*
X0008317Y0055905D01*
X0008429Y0056016D01*
X0008545Y0056123D01*
X0008663Y0056228D01*
X0008783Y0056330D01*
X0008906Y0056428D01*
X0009032Y0056524D01*
X0009160Y0056616D01*
X0009290Y0056705D01*
X0009422Y0056791D01*
X0009557Y0056873D01*
X0009694Y0056952D01*
X0009832Y0057027D01*
X0009972Y0057099D01*
X0010115Y0057167D01*
X0010258Y0057232D01*
X0010404Y0057293D01*
X0010551Y0057350D01*
X0010699Y0057404D01*
X0010849Y0057454D01*
X0010999Y0057500D01*
X0011151Y0057542D01*
X0011304Y0057581D01*
X0011458Y0057615D01*
X0011613Y0057646D01*
X0011768Y0057672D01*
X0011924Y0057695D01*
X0012081Y0057714D01*
X0012238Y0057729D01*
X0012395Y0057740D01*
X0012553Y0057747D01*
X0012711Y0057750D01*
X0012868Y0057749D01*
X0013026Y0057744D01*
X0013183Y0057735D01*
X0013341Y0057722D01*
X0013497Y0057705D01*
X0013654Y0057684D01*
X0013809Y0057660D01*
X0013964Y0057631D01*
X0014119Y0057598D01*
X0014272Y0057562D01*
X0014425Y0057521D01*
X0014576Y0057477D01*
X0014726Y0057429D01*
X0014875Y0057378D01*
X0015023Y0057322D01*
X0015169Y0057263D01*
X0015314Y0057200D01*
X0015457Y0057133D01*
X0015598Y0057063D01*
X0015737Y0056990D01*
X0015875Y0056913D01*
X0016011Y0056832D01*
X0016144Y0056748D01*
X0016275Y0056661D01*
X0016404Y0056570D01*
X0016531Y0056476D01*
X0016656Y0056379D01*
X0016777Y0056279D01*
X0016897Y0056176D01*
X0017013Y0056070D01*
X0017127Y0055961D01*
X0017239Y0055849D01*
X0017347Y0055735D01*
X0017452Y0055617D01*
X0017555Y0055497D01*
X0017654Y0055375D01*
X0017750Y0055250D01*
X0017843Y0055122D01*
X0017933Y0054993D01*
X0018019Y0054861D01*
X0018103Y0054727D01*
X0018182Y0054591D01*
X0018259Y0054453D01*
X0018331Y0054313D01*
X0018400Y0054171D01*
X0018466Y0054028D01*
X0018528Y0053883D01*
X0018586Y0053736D01*
X0018641Y0053588D01*
X0018692Y0053439D01*
X0018739Y0053288D01*
X0018782Y0053137D01*
X0018821Y0052984D01*
X0018857Y0052830D01*
X0018888Y0052676D01*
X0018916Y0052521D01*
X0018940Y0052365D01*
X0018960Y0052208D01*
X0018976Y0052051D01*
X0018988Y0051894D01*
X0018996Y0051737D01*
X0019000Y0051579D01*
X0019000Y0051421D01*
X0018996Y0051263D01*
X0018988Y0051106D01*
X0018976Y0050949D01*
X0018960Y0050792D01*
X0018940Y0050635D01*
X0018916Y0050479D01*
X0018888Y0050324D01*
X0018857Y0050170D01*
X0018821Y0050016D01*
X0018782Y0049863D01*
X0018739Y0049712D01*
X0018692Y0049561D01*
X0018641Y0049412D01*
X0018586Y0049264D01*
X0018528Y0049117D01*
X0018466Y0048972D01*
X0018400Y0048829D01*
X0018331Y0048687D01*
X0018259Y0048547D01*
X0018182Y0048409D01*
X0018103Y0048273D01*
X0018019Y0048139D01*
X0017933Y0048007D01*
X0017843Y0047878D01*
X0017750Y0047750D01*
X0017654Y0047625D01*
X0017555Y0047503D01*
X0017452Y0047383D01*
X0017347Y0047265D01*
X0017239Y0047151D01*
X0017127Y0047039D01*
X0017013Y0046930D01*
X0016897Y0046824D01*
X0016777Y0046721D01*
X0016656Y0046621D01*
X0016531Y0046524D01*
X0016404Y0046430D01*
X0016275Y0046339D01*
X0016144Y0046252D01*
X0016011Y0046168D01*
X0015875Y0046087D01*
X0015737Y0046010D01*
X0015598Y0045937D01*
X0015457Y0045867D01*
X0015314Y0045800D01*
X0015169Y0045737D01*
X0015023Y0045678D01*
X0014875Y0045622D01*
X0014726Y0045571D01*
X0014576Y0045523D01*
X0014425Y0045479D01*
X0014272Y0045438D01*
X0014119Y0045402D01*
X0013964Y0045369D01*
X0013809Y0045340D01*
X0013654Y0045316D01*
X0013497Y0045295D01*
X0013341Y0045278D01*
X0013183Y0045265D01*
X0013026Y0045256D01*
X0012868Y0045251D01*
X0012711Y0045250D01*
X0012553Y0045253D01*
X0012395Y0045260D01*
X0012238Y0045271D01*
X0012081Y0045286D01*
X0011924Y0045305D01*
X0011768Y0045328D01*
X0011613Y0045354D01*
X0011458Y0045385D01*
X0011304Y0045419D01*
X0011151Y0045458D01*
X0010999Y0045500D01*
X0010849Y0045546D01*
X0010699Y0045596D01*
X0010551Y0045650D01*
X0010404Y0045707D01*
X0010258Y0045768D01*
X0010115Y0045833D01*
X0009972Y0045901D01*
X0009832Y0045973D01*
X0009694Y0046048D01*
X0009557Y0046127D01*
X0009422Y0046209D01*
X0009290Y0046295D01*
X0009160Y0046384D01*
X0009032Y0046476D01*
X0008906Y0046572D01*
X0008783Y0046670D01*
X0008663Y0046772D01*
X0008545Y0046877D01*
X0008429Y0046984D01*
X0008317Y0047095D01*
X0008207Y0047208D01*
X0008100Y0047324D01*
X0007996Y0047442D01*
X0007895Y0047564D01*
X0007798Y0047687D01*
X0007703Y0047814D01*
X0007612Y0047942D01*
X0007523Y0048073D01*
X0007439Y0048206D01*
X0007357Y0048341D01*
X0007279Y0048478D01*
X0007205Y0048617D01*
X0007134Y0048758D01*
X0007066Y0048900D01*
X0007003Y0049045D01*
X0006942Y0049190D01*
X0006886Y0049338D01*
X0006833Y0049486D01*
X0006784Y0049636D01*
X0006739Y0049787D01*
X0006698Y0049940D01*
X0006660Y0050093D01*
X0006627Y0050247D01*
X0006597Y0050402D01*
X0006571Y0050557D01*
X0006550Y0050714D01*
X0006532Y0050870D01*
X0006518Y0051027D01*
X0006508Y0051185D01*
X0006502Y0051342D01*
X0006500Y0051500D01*
X0060126Y0054000D02*
X0060128Y0054160D01*
X0060134Y0054319D01*
X0060144Y0054478D01*
X0060158Y0054637D01*
X0060176Y0054796D01*
X0060198Y0054954D01*
X0060224Y0055111D01*
X0060253Y0055268D01*
X0060287Y0055424D01*
X0060325Y0055579D01*
X0060366Y0055733D01*
X0060411Y0055886D01*
X0060461Y0056038D01*
X0060513Y0056188D01*
X0060570Y0056338D01*
X0060630Y0056485D01*
X0060694Y0056631D01*
X0060762Y0056776D01*
X0060833Y0056919D01*
X0060908Y0057060D01*
X0060987Y0057199D01*
X0061068Y0057336D01*
X0061154Y0057470D01*
X0061242Y0057603D01*
X0061334Y0057734D01*
X0061429Y0057862D01*
X0061527Y0057987D01*
X0061629Y0058111D01*
X0061733Y0058231D01*
X0061840Y0058349D01*
X0061951Y0058465D01*
X0062064Y0058577D01*
X0062180Y0058687D01*
X0062299Y0058793D01*
X0062420Y0058897D01*
X0062544Y0058998D01*
X0062670Y0059095D01*
X0062799Y0059189D01*
X0062930Y0059280D01*
X0063063Y0059368D01*
X0063199Y0059452D01*
X0063336Y0059533D01*
X0063476Y0059611D01*
X0063617Y0059685D01*
X0063760Y0059755D01*
X0063905Y0059822D01*
X0064052Y0059885D01*
X0064200Y0059944D01*
X0064349Y0060000D01*
X0064500Y0060052D01*
X0064652Y0060100D01*
X0064805Y0060145D01*
X0064960Y0060185D01*
X0065115Y0060222D01*
X0065271Y0060254D01*
X0065428Y0060283D01*
X0065586Y0060308D01*
X0065744Y0060329D01*
X0065903Y0060346D01*
X0066062Y0060359D01*
X0066221Y0060368D01*
X0066380Y0060373D01*
X0066540Y0060374D01*
X0066699Y0060371D01*
X0066859Y0060364D01*
X0067018Y0060353D01*
X0067177Y0060338D01*
X0067335Y0060319D01*
X0067493Y0060296D01*
X0067650Y0060269D01*
X0067807Y0060239D01*
X0067963Y0060204D01*
X0068118Y0060165D01*
X0068271Y0060123D01*
X0068424Y0060077D01*
X0068576Y0060027D01*
X0068726Y0059973D01*
X0068875Y0059915D01*
X0069022Y0059854D01*
X0069168Y0059789D01*
X0069312Y0059720D01*
X0069454Y0059648D01*
X0069594Y0059572D01*
X0069733Y0059493D01*
X0069869Y0059411D01*
X0070004Y0059325D01*
X0070136Y0059235D01*
X0070266Y0059143D01*
X0070393Y0059047D01*
X0070519Y0058948D01*
X0070641Y0058846D01*
X0070761Y0058740D01*
X0070878Y0058632D01*
X0070993Y0058521D01*
X0071105Y0058407D01*
X0071214Y0058291D01*
X0071320Y0058171D01*
X0071422Y0058049D01*
X0071522Y0057925D01*
X0071619Y0057798D01*
X0071712Y0057669D01*
X0071803Y0057537D01*
X0071889Y0057403D01*
X0071973Y0057267D01*
X0072053Y0057129D01*
X0072130Y0056989D01*
X0072203Y0056847D01*
X0072272Y0056704D01*
X0072338Y0056558D01*
X0072400Y0056412D01*
X0072459Y0056263D01*
X0072513Y0056113D01*
X0072564Y0055962D01*
X0072612Y0055810D01*
X0072655Y0055656D01*
X0072695Y0055502D01*
X0072730Y0055346D01*
X0072762Y0055190D01*
X0072790Y0055033D01*
X0072814Y0054875D01*
X0072834Y0054716D01*
X0072850Y0054558D01*
X0072862Y0054399D01*
X0072870Y0054239D01*
X0072874Y0054080D01*
X0072874Y0053920D01*
X0072870Y0053761D01*
X0072862Y0053601D01*
X0072850Y0053442D01*
X0072834Y0053284D01*
X0072814Y0053125D01*
X0072790Y0052967D01*
X0072762Y0052810D01*
X0072730Y0052654D01*
X0072695Y0052498D01*
X0072655Y0052344D01*
X0072612Y0052190D01*
X0072564Y0052038D01*
X0072513Y0051887D01*
X0072459Y0051737D01*
X0072400Y0051588D01*
X0072338Y0051442D01*
X0072272Y0051296D01*
X0072203Y0051153D01*
X0072130Y0051011D01*
X0072053Y0050871D01*
X0071973Y0050733D01*
X0071889Y0050597D01*
X0071803Y0050463D01*
X0071712Y0050331D01*
X0071619Y0050202D01*
X0071522Y0050075D01*
X0071422Y0049951D01*
X0071320Y0049829D01*
X0071214Y0049709D01*
X0071105Y0049593D01*
X0070993Y0049479D01*
X0070878Y0049368D01*
X0070761Y0049260D01*
X0070641Y0049154D01*
X0070519Y0049052D01*
X0070393Y0048953D01*
X0070266Y0048857D01*
X0070136Y0048765D01*
X0070004Y0048675D01*
X0069869Y0048589D01*
X0069733Y0048507D01*
X0069594Y0048428D01*
X0069454Y0048352D01*
X0069312Y0048280D01*
X0069168Y0048211D01*
X0069022Y0048146D01*
X0068875Y0048085D01*
X0068726Y0048027D01*
X0068576Y0047973D01*
X0068424Y0047923D01*
X0068271Y0047877D01*
X0068118Y0047835D01*
X0067963Y0047796D01*
X0067807Y0047761D01*
X0067650Y0047731D01*
X0067493Y0047704D01*
X0067335Y0047681D01*
X0067177Y0047662D01*
X0067018Y0047647D01*
X0066859Y0047636D01*
X0066699Y0047629D01*
X0066540Y0047626D01*
X0066380Y0047627D01*
X0066221Y0047632D01*
X0066062Y0047641D01*
X0065903Y0047654D01*
X0065744Y0047671D01*
X0065586Y0047692D01*
X0065428Y0047717D01*
X0065271Y0047746D01*
X0065115Y0047778D01*
X0064960Y0047815D01*
X0064805Y0047855D01*
X0064652Y0047900D01*
X0064500Y0047948D01*
X0064349Y0048000D01*
X0064200Y0048056D01*
X0064052Y0048115D01*
X0063905Y0048178D01*
X0063760Y0048245D01*
X0063617Y0048315D01*
X0063476Y0048389D01*
X0063336Y0048467D01*
X0063199Y0048548D01*
X0063063Y0048632D01*
X0062930Y0048720D01*
X0062799Y0048811D01*
X0062670Y0048905D01*
X0062544Y0049002D01*
X0062420Y0049103D01*
X0062299Y0049207D01*
X0062180Y0049313D01*
X0062064Y0049423D01*
X0061951Y0049535D01*
X0061840Y0049651D01*
X0061733Y0049769D01*
X0061629Y0049889D01*
X0061527Y0050013D01*
X0061429Y0050138D01*
X0061334Y0050266D01*
X0061242Y0050397D01*
X0061154Y0050530D01*
X0061068Y0050664D01*
X0060987Y0050801D01*
X0060908Y0050940D01*
X0060833Y0051081D01*
X0060762Y0051224D01*
X0060694Y0051369D01*
X0060630Y0051515D01*
X0060570Y0051662D01*
X0060513Y0051812D01*
X0060461Y0051962D01*
X0060411Y0052114D01*
X0060366Y0052267D01*
X0060325Y0052421D01*
X0060287Y0052576D01*
X0060253Y0052732D01*
X0060224Y0052889D01*
X0060198Y0053046D01*
X0060176Y0053204D01*
X0060158Y0053363D01*
X0060144Y0053522D01*
X0060134Y0053681D01*
X0060128Y0053840D01*
X0060126Y0054000D01*
D12*
X0084000Y0001500D02*
X0014000Y0001500D01*
X0013698Y0001504D01*
X0013396Y0001515D01*
X0013095Y0001533D01*
X0012794Y0001558D01*
X0012493Y0001591D01*
X0012194Y0001631D01*
X0011896Y0001678D01*
X0011598Y0001733D01*
X0011303Y0001794D01*
X0011009Y0001863D01*
X0010716Y0001939D01*
X0010426Y0002022D01*
X0010137Y0002112D01*
X0009851Y0002209D01*
X0009567Y0002312D01*
X0009286Y0002423D01*
X0009008Y0002540D01*
X0008732Y0002664D01*
X0008460Y0002795D01*
X0008191Y0002932D01*
X0007925Y0003075D01*
X0007663Y0003225D01*
X0007404Y0003382D01*
X0007150Y0003544D01*
X0006899Y0003713D01*
X0006653Y0003887D01*
X0006410Y0004068D01*
X0006173Y0004254D01*
X0005939Y0004446D01*
X0005711Y0004644D01*
X0005487Y0004847D01*
X0005269Y0005055D01*
X0005055Y0005269D01*
X0004847Y0005487D01*
X0004644Y0005711D01*
X0004446Y0005939D01*
X0004254Y0006173D01*
X0004068Y0006410D01*
X0003887Y0006653D01*
X0003713Y0006899D01*
X0003544Y0007150D01*
X0003382Y0007404D01*
X0003225Y0007663D01*
X0003075Y0007925D01*
X0002932Y0008191D01*
X0002795Y0008460D01*
X0002664Y0008732D01*
X0002540Y0009008D01*
X0002423Y0009286D01*
X0002312Y0009567D01*
X0002209Y0009851D01*
X0002112Y0010137D01*
X0002022Y0010426D01*
X0001939Y0010716D01*
X0001863Y0011009D01*
X0001794Y0011303D01*
X0001733Y0011598D01*
X0001678Y0011896D01*
X0001631Y0012194D01*
X0001591Y0012493D01*
X0001558Y0012794D01*
X0001533Y0013095D01*
X0001515Y0013396D01*
X0001504Y0013698D01*
X0001500Y0014000D01*
X0001500Y0051500D01*
X0001504Y0051802D01*
X0001515Y0052104D01*
X0001533Y0052405D01*
X0001558Y0052706D01*
X0001591Y0053007D01*
X0001631Y0053306D01*
X0001678Y0053604D01*
X0001733Y0053902D01*
X0001794Y0054197D01*
X0001863Y0054491D01*
X0001939Y0054784D01*
X0002022Y0055074D01*
X0002112Y0055363D01*
X0002209Y0055649D01*
X0002312Y0055933D01*
X0002423Y0056214D01*
X0002540Y0056492D01*
X0002664Y0056768D01*
X0002795Y0057040D01*
X0002932Y0057309D01*
X0003075Y0057575D01*
X0003225Y0057837D01*
X0003382Y0058096D01*
X0003544Y0058350D01*
X0003713Y0058601D01*
X0003887Y0058847D01*
X0004068Y0059090D01*
X0004254Y0059327D01*
X0004446Y0059561D01*
X0004644Y0059789D01*
X0004847Y0060013D01*
X0005055Y0060231D01*
X0005269Y0060445D01*
X0005487Y0060653D01*
X0005711Y0060856D01*
X0005939Y0061054D01*
X0006173Y0061246D01*
X0006410Y0061432D01*
X0006653Y0061613D01*
X0006899Y0061787D01*
X0007150Y0061956D01*
X0007404Y0062118D01*
X0007663Y0062275D01*
X0007925Y0062425D01*
X0008191Y0062568D01*
X0008460Y0062705D01*
X0008732Y0062836D01*
X0009008Y0062960D01*
X0009286Y0063077D01*
X0009567Y0063188D01*
X0009851Y0063291D01*
X0010137Y0063388D01*
X0010426Y0063478D01*
X0010716Y0063561D01*
X0011009Y0063637D01*
X0011303Y0063706D01*
X0011598Y0063767D01*
X0011896Y0063822D01*
X0012194Y0063869D01*
X0012493Y0063909D01*
X0012794Y0063942D01*
X0013095Y0063967D01*
X0013396Y0063985D01*
X0013698Y0063996D01*
X0014000Y0064000D01*
X0084000Y0064000D01*
X0084302Y0063996D01*
X0084604Y0063985D01*
X0084905Y0063967D01*
X0085206Y0063942D01*
X0085507Y0063909D01*
X0085806Y0063869D01*
X0086104Y0063822D01*
X0086402Y0063767D01*
X0086697Y0063706D01*
X0086991Y0063637D01*
X0087284Y0063561D01*
X0087574Y0063478D01*
X0087863Y0063388D01*
X0088149Y0063291D01*
X0088433Y0063188D01*
X0088714Y0063077D01*
X0088992Y0062960D01*
X0089268Y0062836D01*
X0089540Y0062705D01*
X0089809Y0062568D01*
X0090075Y0062425D01*
X0090337Y0062275D01*
X0090596Y0062118D01*
X0090850Y0061956D01*
X0091101Y0061787D01*
X0091347Y0061613D01*
X0091590Y0061432D01*
X0091827Y0061246D01*
X0092061Y0061054D01*
X0092289Y0060856D01*
X0092513Y0060653D01*
X0092731Y0060445D01*
X0092945Y0060231D01*
X0093153Y0060013D01*
X0093356Y0059789D01*
X0093554Y0059561D01*
X0093746Y0059327D01*
X0093932Y0059090D01*
X0094113Y0058847D01*
X0094287Y0058601D01*
X0094456Y0058350D01*
X0094618Y0058096D01*
X0094775Y0057837D01*
X0094925Y0057575D01*
X0095068Y0057309D01*
X0095205Y0057040D01*
X0095336Y0056768D01*
X0095460Y0056492D01*
X0095577Y0056214D01*
X0095688Y0055933D01*
X0095791Y0055649D01*
X0095888Y0055363D01*
X0095978Y0055074D01*
X0096061Y0054784D01*
X0096137Y0054491D01*
X0096206Y0054197D01*
X0096267Y0053902D01*
X0096322Y0053604D01*
X0096369Y0053306D01*
X0096409Y0053007D01*
X0096442Y0052706D01*
X0096467Y0052405D01*
X0096485Y0052104D01*
X0096496Y0051802D01*
X0096500Y0051500D01*
X0096500Y0014000D01*
X0096496Y0013698D01*
X0096485Y0013396D01*
X0096467Y0013095D01*
X0096442Y0012794D01*
X0096409Y0012493D01*
X0096369Y0012194D01*
X0096322Y0011896D01*
X0096267Y0011598D01*
X0096206Y0011303D01*
X0096137Y0011009D01*
X0096061Y0010716D01*
X0095978Y0010426D01*
X0095888Y0010137D01*
X0095791Y0009851D01*
X0095688Y0009567D01*
X0095577Y0009286D01*
X0095460Y0009008D01*
X0095336Y0008732D01*
X0095205Y0008460D01*
X0095068Y0008191D01*
X0094925Y0007925D01*
X0094775Y0007663D01*
X0094618Y0007404D01*
X0094456Y0007150D01*
X0094287Y0006899D01*
X0094113Y0006653D01*
X0093932Y0006410D01*
X0093746Y0006173D01*
X0093554Y0005939D01*
X0093356Y0005711D01*
X0093153Y0005487D01*
X0092945Y0005269D01*
X0092731Y0005055D01*
X0092513Y0004847D01*
X0092289Y0004644D01*
X0092061Y0004446D01*
X0091827Y0004254D01*
X0091590Y0004068D01*
X0091347Y0003887D01*
X0091101Y0003713D01*
X0090850Y0003544D01*
X0090596Y0003382D01*
X0090337Y0003225D01*
X0090075Y0003075D01*
X0089809Y0002932D01*
X0089540Y0002795D01*
X0089268Y0002664D01*
X0088992Y0002540D01*
X0088714Y0002423D01*
X0088433Y0002312D01*
X0088149Y0002209D01*
X0087863Y0002112D01*
X0087574Y0002022D01*
X0087284Y0001939D01*
X0086991Y0001863D01*
X0086697Y0001794D01*
X0086402Y0001733D01*
X0086104Y0001678D01*
X0085806Y0001631D01*
X0085507Y0001591D01*
X0085206Y0001558D01*
X0084905Y0001533D01*
X0084604Y0001515D01*
X0084302Y0001504D01*
X0084000Y0001500D01*
D13*
X0064000Y0017750D02*
X0064000Y0047750D01*
X0034000Y0047750D01*
X0034000Y0017750D01*
X0064000Y0017750D01*
X0068104Y0025663D02*
X0068104Y0039837D01*
X0087396Y0039837D01*
X0087396Y0035191D01*
X0087278Y0035191D01*
X0087188Y0035189D01*
X0087098Y0035183D01*
X0087008Y0035174D01*
X0086919Y0035160D01*
X0086830Y0035143D01*
X0086742Y0035122D01*
X0086655Y0035098D01*
X0086570Y0035070D01*
X0086485Y0035038D01*
X0086402Y0035002D01*
X0086321Y0034963D01*
X0086241Y0034921D01*
X0086163Y0034875D01*
X0086087Y0034826D01*
X0086014Y0034774D01*
X0085942Y0034719D01*
X0085873Y0034661D01*
X0085807Y0034600D01*
X0085743Y0034536D01*
X0085682Y0034470D01*
X0085624Y0034401D01*
X0085569Y0034329D01*
X0085517Y0034256D01*
X0085468Y0034180D01*
X0085422Y0034102D01*
X0085380Y0034022D01*
X0085341Y0033941D01*
X0085305Y0033858D01*
X0085273Y0033773D01*
X0085245Y0033688D01*
X0085221Y0033601D01*
X0085200Y0033513D01*
X0085183Y0033424D01*
X0085169Y0033335D01*
X0085160Y0033245D01*
X0085154Y0033155D01*
X0085152Y0033065D01*
X0085152Y0032750D01*
X0085156Y0032657D01*
X0085165Y0032565D01*
X0085177Y0032473D01*
X0085193Y0032381D01*
X0085213Y0032291D01*
X0085237Y0032201D01*
X0085265Y0032113D01*
X0085296Y0032025D01*
X0085331Y0031939D01*
X0085370Y0031855D01*
X0085412Y0031772D01*
X0085458Y0031692D01*
X0085507Y0031613D01*
X0085560Y0031536D01*
X0085615Y0031462D01*
X0085674Y0031390D01*
X0085736Y0031321D01*
X0085800Y0031254D01*
X0085868Y0031191D01*
X0085938Y0031130D01*
X0086010Y0031072D01*
X0086085Y0031017D01*
X0086162Y0030965D01*
X0086242Y0030917D01*
X0086323Y0030872D01*
X0086406Y0030831D01*
X0086491Y0030793D01*
X0086577Y0030759D01*
X0086665Y0030729D01*
X0086754Y0030702D01*
X0086844Y0030679D01*
X0086934Y0030660D01*
X0087026Y0030645D01*
X0087118Y0030634D01*
X0087211Y0030627D01*
X0087303Y0030623D01*
X0087396Y0030624D01*
X0087396Y0025663D01*
X0068104Y0025663D01*
X0060811Y0030063D02*
X0060811Y0035437D01*
X0074994Y0049738D02*
X0080506Y0049738D01*
X0080506Y0060762D01*
X0074994Y0060762D01*
X0074994Y0049738D01*
X0082494Y0049738D02*
X0088006Y0049738D01*
X0088006Y0060762D01*
X0082494Y0060762D01*
X0082494Y0049738D01*
X0087987Y0041018D02*
X0087989Y0041074D01*
X0087995Y0041129D01*
X0088005Y0041183D01*
X0088018Y0041237D01*
X0088036Y0041290D01*
X0088057Y0041341D01*
X0088081Y0041391D01*
X0088109Y0041439D01*
X0088141Y0041485D01*
X0088175Y0041529D01*
X0088213Y0041570D01*
X0088253Y0041608D01*
X0088296Y0041643D01*
X0088341Y0041675D01*
X0088389Y0041704D01*
X0088438Y0041730D01*
X0088489Y0041752D01*
X0088541Y0041770D01*
X0088595Y0041784D01*
X0088650Y0041795D01*
X0088705Y0041802D01*
X0088760Y0041805D01*
X0088816Y0041804D01*
X0088871Y0041799D01*
X0088926Y0041790D01*
X0088980Y0041778D01*
X0089033Y0041761D01*
X0089085Y0041741D01*
X0089135Y0041717D01*
X0089183Y0041690D01*
X0089230Y0041660D01*
X0089274Y0041626D01*
X0089316Y0041589D01*
X0089354Y0041549D01*
X0089391Y0041507D01*
X0089424Y0041462D01*
X0089453Y0041416D01*
X0089480Y0041367D01*
X0089502Y0041316D01*
X0089522Y0041264D01*
X0089537Y0041210D01*
X0089549Y0041156D01*
X0089557Y0041101D01*
X0089561Y0041046D01*
X0089561Y0040990D01*
X0089557Y0040935D01*
X0089549Y0040880D01*
X0089537Y0040826D01*
X0089522Y0040772D01*
X0089502Y0040720D01*
X0089480Y0040669D01*
X0089453Y0040620D01*
X0089424Y0040574D01*
X0089391Y0040529D01*
X0089354Y0040487D01*
X0089316Y0040447D01*
X0089274Y0040410D01*
X0089230Y0040376D01*
X0089183Y0040346D01*
X0089135Y0040319D01*
X0089085Y0040295D01*
X0089033Y0040275D01*
X0088980Y0040258D01*
X0088926Y0040246D01*
X0088871Y0040237D01*
X0088816Y0040232D01*
X0088760Y0040231D01*
X0088705Y0040234D01*
X0088650Y0040241D01*
X0088595Y0040252D01*
X0088541Y0040266D01*
X0088489Y0040284D01*
X0088438Y0040306D01*
X0088389Y0040332D01*
X0088341Y0040361D01*
X0088296Y0040393D01*
X0088253Y0040428D01*
X0088213Y0040466D01*
X0088175Y0040507D01*
X0088141Y0040551D01*
X0088109Y0040597D01*
X0088081Y0040645D01*
X0088057Y0040695D01*
X0088036Y0040746D01*
X0088018Y0040799D01*
X0088005Y0040853D01*
X0087995Y0040907D01*
X0087989Y0040962D01*
X0087987Y0041018D01*
X0088744Y0038163D02*
X0094256Y0038163D01*
X0094256Y0027337D01*
X0088744Y0027337D01*
X0088744Y0038163D01*
X0041736Y0014974D02*
X0041736Y0005683D01*
X0041736Y0005526D01*
X0021264Y0005526D01*
X0021264Y0014974D01*
X0041736Y0014974D01*
X0029679Y0017740D02*
X0020821Y0017740D01*
X0020821Y0035260D01*
X0029679Y0035260D01*
X0029679Y0017740D01*
X0037189Y0030063D02*
X0037189Y0035437D01*
X0026431Y0042691D02*
X0024069Y0042691D01*
X0019344Y0044266D02*
X0019344Y0047809D01*
X0022494Y0047809D01*
X0028006Y0047809D02*
X0031156Y0047809D01*
X0031156Y0044266D01*
M02*
