G75*
%MOIN*%
%OFA0B0*%
%FSLAX25Y25*%
%IPPOS*%
%LPD*%
%AMOC8*
5,1,8,0,0,1.08239X$1,22.5*
%
%ADD10C,0.01000*%
D10*
X0014000Y0001500D02*
X0084000Y0001500D01*
X0084302Y0001504D01*
X0084604Y0001515D01*
X0084905Y0001533D01*
X0085206Y0001558D01*
X0085507Y0001591D01*
X0085806Y0001631D01*
X0086104Y0001678D01*
X0086402Y0001733D01*
X0086697Y0001794D01*
X0086991Y0001863D01*
X0087284Y0001939D01*
X0087574Y0002022D01*
X0087863Y0002112D01*
X0088149Y0002209D01*
X0088433Y0002312D01*
X0088714Y0002423D01*
X0088992Y0002540D01*
X0089268Y0002664D01*
X0089540Y0002795D01*
X0089809Y0002932D01*
X0090075Y0003075D01*
X0090337Y0003225D01*
X0090596Y0003382D01*
X0090850Y0003544D01*
X0091101Y0003713D01*
X0091347Y0003887D01*
X0091590Y0004068D01*
X0091827Y0004254D01*
X0092061Y0004446D01*
X0092289Y0004644D01*
X0092513Y0004847D01*
X0092731Y0005055D01*
X0092945Y0005269D01*
X0093153Y0005487D01*
X0093356Y0005711D01*
X0093554Y0005939D01*
X0093746Y0006173D01*
X0093932Y0006410D01*
X0094113Y0006653D01*
X0094287Y0006899D01*
X0094456Y0007150D01*
X0094618Y0007404D01*
X0094775Y0007663D01*
X0094925Y0007925D01*
X0095068Y0008191D01*
X0095205Y0008460D01*
X0095336Y0008732D01*
X0095460Y0009008D01*
X0095577Y0009286D01*
X0095688Y0009567D01*
X0095791Y0009851D01*
X0095888Y0010137D01*
X0095978Y0010426D01*
X0096061Y0010716D01*
X0096137Y0011009D01*
X0096206Y0011303D01*
X0096267Y0011598D01*
X0096322Y0011896D01*
X0096369Y0012194D01*
X0096409Y0012493D01*
X0096442Y0012794D01*
X0096467Y0013095D01*
X0096485Y0013396D01*
X0096496Y0013698D01*
X0096500Y0014000D01*
X0096500Y0051500D01*
X0096496Y0051802D01*
X0096485Y0052104D01*
X0096467Y0052405D01*
X0096442Y0052706D01*
X0096409Y0053007D01*
X0096369Y0053306D01*
X0096322Y0053604D01*
X0096267Y0053902D01*
X0096206Y0054197D01*
X0096137Y0054491D01*
X0096061Y0054784D01*
X0095978Y0055074D01*
X0095888Y0055363D01*
X0095791Y0055649D01*
X0095688Y0055933D01*
X0095577Y0056214D01*
X0095460Y0056492D01*
X0095336Y0056768D01*
X0095205Y0057040D01*
X0095068Y0057309D01*
X0094925Y0057575D01*
X0094775Y0057837D01*
X0094618Y0058096D01*
X0094456Y0058350D01*
X0094287Y0058601D01*
X0094113Y0058847D01*
X0093932Y0059090D01*
X0093746Y0059327D01*
X0093554Y0059561D01*
X0093356Y0059789D01*
X0093153Y0060013D01*
X0092945Y0060231D01*
X0092731Y0060445D01*
X0092513Y0060653D01*
X0092289Y0060856D01*
X0092061Y0061054D01*
X0091827Y0061246D01*
X0091590Y0061432D01*
X0091347Y0061613D01*
X0091101Y0061787D01*
X0090850Y0061956D01*
X0090596Y0062118D01*
X0090337Y0062275D01*
X0090075Y0062425D01*
X0089809Y0062568D01*
X0089540Y0062705D01*
X0089268Y0062836D01*
X0088992Y0062960D01*
X0088714Y0063077D01*
X0088433Y0063188D01*
X0088149Y0063291D01*
X0087863Y0063388D01*
X0087574Y0063478D01*
X0087284Y0063561D01*
X0086991Y0063637D01*
X0086697Y0063706D01*
X0086402Y0063767D01*
X0086104Y0063822D01*
X0085806Y0063869D01*
X0085507Y0063909D01*
X0085206Y0063942D01*
X0084905Y0063967D01*
X0084604Y0063985D01*
X0084302Y0063996D01*
X0084000Y0064000D01*
X0014000Y0064000D01*
X0013698Y0063996D01*
X0013396Y0063985D01*
X0013095Y0063967D01*
X0012794Y0063942D01*
X0012493Y0063909D01*
X0012194Y0063869D01*
X0011896Y0063822D01*
X0011598Y0063767D01*
X0011303Y0063706D01*
X0011009Y0063637D01*
X0010716Y0063561D01*
X0010426Y0063478D01*
X0010137Y0063388D01*
X0009851Y0063291D01*
X0009567Y0063188D01*
X0009286Y0063077D01*
X0009008Y0062960D01*
X0008732Y0062836D01*
X0008460Y0062705D01*
X0008191Y0062568D01*
X0007925Y0062425D01*
X0007663Y0062275D01*
X0007404Y0062118D01*
X0007150Y0061956D01*
X0006899Y0061787D01*
X0006653Y0061613D01*
X0006410Y0061432D01*
X0006173Y0061246D01*
X0005939Y0061054D01*
X0005711Y0060856D01*
X0005487Y0060653D01*
X0005269Y0060445D01*
X0005055Y0060231D01*
X0004847Y0060013D01*
X0004644Y0059789D01*
X0004446Y0059561D01*
X0004254Y0059327D01*
X0004068Y0059090D01*
X0003887Y0058847D01*
X0003713Y0058601D01*
X0003544Y0058350D01*
X0003382Y0058096D01*
X0003225Y0057837D01*
X0003075Y0057575D01*
X0002932Y0057309D01*
X0002795Y0057040D01*
X0002664Y0056768D01*
X0002540Y0056492D01*
X0002423Y0056214D01*
X0002312Y0055933D01*
X0002209Y0055649D01*
X0002112Y0055363D01*
X0002022Y0055074D01*
X0001939Y0054784D01*
X0001863Y0054491D01*
X0001794Y0054197D01*
X0001733Y0053902D01*
X0001678Y0053604D01*
X0001631Y0053306D01*
X0001591Y0053007D01*
X0001558Y0052706D01*
X0001533Y0052405D01*
X0001515Y0052104D01*
X0001504Y0051802D01*
X0001500Y0051500D01*
X0001500Y0014000D01*
X0001504Y0013698D01*
X0001515Y0013396D01*
X0001533Y0013095D01*
X0001558Y0012794D01*
X0001591Y0012493D01*
X0001631Y0012194D01*
X0001678Y0011896D01*
X0001733Y0011598D01*
X0001794Y0011303D01*
X0001863Y0011009D01*
X0001939Y0010716D01*
X0002022Y0010426D01*
X0002112Y0010137D01*
X0002209Y0009851D01*
X0002312Y0009567D01*
X0002423Y0009286D01*
X0002540Y0009008D01*
X0002664Y0008732D01*
X0002795Y0008460D01*
X0002932Y0008191D01*
X0003075Y0007925D01*
X0003225Y0007663D01*
X0003382Y0007404D01*
X0003544Y0007150D01*
X0003713Y0006899D01*
X0003887Y0006653D01*
X0004068Y0006410D01*
X0004254Y0006173D01*
X0004446Y0005939D01*
X0004644Y0005711D01*
X0004847Y0005487D01*
X0005055Y0005269D01*
X0005269Y0005055D01*
X0005487Y0004847D01*
X0005711Y0004644D01*
X0005939Y0004446D01*
X0006173Y0004254D01*
X0006410Y0004068D01*
X0006653Y0003887D01*
X0006899Y0003713D01*
X0007150Y0003544D01*
X0007404Y0003382D01*
X0007663Y0003225D01*
X0007925Y0003075D01*
X0008191Y0002932D01*
X0008460Y0002795D01*
X0008732Y0002664D01*
X0009008Y0002540D01*
X0009286Y0002423D01*
X0009567Y0002312D01*
X0009851Y0002209D01*
X0010137Y0002112D01*
X0010426Y0002022D01*
X0010716Y0001939D01*
X0011009Y0001863D01*
X0011303Y0001794D01*
X0011598Y0001733D01*
X0011896Y0001678D01*
X0012194Y0001631D01*
X0012493Y0001591D01*
X0012794Y0001558D01*
X0013095Y0001533D01*
X0013396Y0001515D01*
X0013698Y0001504D01*
X0014000Y0001500D01*
M02*
