G75*
%MOIN*%
%OFA0B0*%
%FSLAX25Y25*%
%IPPOS*%
%LPD*%
%AMOC8*
5,1,8,0,0,1.08239X$1,22.5*
%
%ADD10C,0.01000*%
%ADD11C,0.01200*%
%ADD12C,0.00600*%
%ADD13C,0.00500*%
D10*
X0014000Y0001500D02*
X0084000Y0001500D01*
X0084302Y0001504D01*
X0084604Y0001515D01*
X0084905Y0001533D01*
X0085206Y0001558D01*
X0085507Y0001591D01*
X0085806Y0001631D01*
X0086104Y0001678D01*
X0086402Y0001733D01*
X0086697Y0001794D01*
X0086991Y0001863D01*
X0087284Y0001939D01*
X0087574Y0002022D01*
X0087863Y0002112D01*
X0088149Y0002209D01*
X0088433Y0002312D01*
X0088714Y0002423D01*
X0088992Y0002540D01*
X0089268Y0002664D01*
X0089540Y0002795D01*
X0089809Y0002932D01*
X0090075Y0003075D01*
X0090337Y0003225D01*
X0090596Y0003382D01*
X0090850Y0003544D01*
X0091101Y0003713D01*
X0091347Y0003887D01*
X0091590Y0004068D01*
X0091827Y0004254D01*
X0092061Y0004446D01*
X0092289Y0004644D01*
X0092513Y0004847D01*
X0092731Y0005055D01*
X0092945Y0005269D01*
X0093153Y0005487D01*
X0093356Y0005711D01*
X0093554Y0005939D01*
X0093746Y0006173D01*
X0093932Y0006410D01*
X0094113Y0006653D01*
X0094287Y0006899D01*
X0094456Y0007150D01*
X0094618Y0007404D01*
X0094775Y0007663D01*
X0094925Y0007925D01*
X0095068Y0008191D01*
X0095205Y0008460D01*
X0095336Y0008732D01*
X0095460Y0009008D01*
X0095577Y0009286D01*
X0095688Y0009567D01*
X0095791Y0009851D01*
X0095888Y0010137D01*
X0095978Y0010426D01*
X0096061Y0010716D01*
X0096137Y0011009D01*
X0096206Y0011303D01*
X0096267Y0011598D01*
X0096322Y0011896D01*
X0096369Y0012194D01*
X0096409Y0012493D01*
X0096442Y0012794D01*
X0096467Y0013095D01*
X0096485Y0013396D01*
X0096496Y0013698D01*
X0096500Y0014000D01*
X0096500Y0051500D01*
X0096496Y0051802D01*
X0096485Y0052104D01*
X0096467Y0052405D01*
X0096442Y0052706D01*
X0096409Y0053007D01*
X0096369Y0053306D01*
X0096322Y0053604D01*
X0096267Y0053902D01*
X0096206Y0054197D01*
X0096137Y0054491D01*
X0096061Y0054784D01*
X0095978Y0055074D01*
X0095888Y0055363D01*
X0095791Y0055649D01*
X0095688Y0055933D01*
X0095577Y0056214D01*
X0095460Y0056492D01*
X0095336Y0056768D01*
X0095205Y0057040D01*
X0095068Y0057309D01*
X0094925Y0057575D01*
X0094775Y0057837D01*
X0094618Y0058096D01*
X0094456Y0058350D01*
X0094287Y0058601D01*
X0094113Y0058847D01*
X0093932Y0059090D01*
X0093746Y0059327D01*
X0093554Y0059561D01*
X0093356Y0059789D01*
X0093153Y0060013D01*
X0092945Y0060231D01*
X0092731Y0060445D01*
X0092513Y0060653D01*
X0092289Y0060856D01*
X0092061Y0061054D01*
X0091827Y0061246D01*
X0091590Y0061432D01*
X0091347Y0061613D01*
X0091101Y0061787D01*
X0090850Y0061956D01*
X0090596Y0062118D01*
X0090337Y0062275D01*
X0090075Y0062425D01*
X0089809Y0062568D01*
X0089540Y0062705D01*
X0089268Y0062836D01*
X0088992Y0062960D01*
X0088714Y0063077D01*
X0088433Y0063188D01*
X0088149Y0063291D01*
X0087863Y0063388D01*
X0087574Y0063478D01*
X0087284Y0063561D01*
X0086991Y0063637D01*
X0086697Y0063706D01*
X0086402Y0063767D01*
X0086104Y0063822D01*
X0085806Y0063869D01*
X0085507Y0063909D01*
X0085206Y0063942D01*
X0084905Y0063967D01*
X0084604Y0063985D01*
X0084302Y0063996D01*
X0084000Y0064000D01*
X0014000Y0064000D01*
X0013698Y0063996D01*
X0013396Y0063985D01*
X0013095Y0063967D01*
X0012794Y0063942D01*
X0012493Y0063909D01*
X0012194Y0063869D01*
X0011896Y0063822D01*
X0011598Y0063767D01*
X0011303Y0063706D01*
X0011009Y0063637D01*
X0010716Y0063561D01*
X0010426Y0063478D01*
X0010137Y0063388D01*
X0009851Y0063291D01*
X0009567Y0063188D01*
X0009286Y0063077D01*
X0009008Y0062960D01*
X0008732Y0062836D01*
X0008460Y0062705D01*
X0008191Y0062568D01*
X0007925Y0062425D01*
X0007663Y0062275D01*
X0007404Y0062118D01*
X0007150Y0061956D01*
X0006899Y0061787D01*
X0006653Y0061613D01*
X0006410Y0061432D01*
X0006173Y0061246D01*
X0005939Y0061054D01*
X0005711Y0060856D01*
X0005487Y0060653D01*
X0005269Y0060445D01*
X0005055Y0060231D01*
X0004847Y0060013D01*
X0004644Y0059789D01*
X0004446Y0059561D01*
X0004254Y0059327D01*
X0004068Y0059090D01*
X0003887Y0058847D01*
X0003713Y0058601D01*
X0003544Y0058350D01*
X0003382Y0058096D01*
X0003225Y0057837D01*
X0003075Y0057575D01*
X0002932Y0057309D01*
X0002795Y0057040D01*
X0002664Y0056768D01*
X0002540Y0056492D01*
X0002423Y0056214D01*
X0002312Y0055933D01*
X0002209Y0055649D01*
X0002112Y0055363D01*
X0002022Y0055074D01*
X0001939Y0054784D01*
X0001863Y0054491D01*
X0001794Y0054197D01*
X0001733Y0053902D01*
X0001678Y0053604D01*
X0001631Y0053306D01*
X0001591Y0053007D01*
X0001558Y0052706D01*
X0001533Y0052405D01*
X0001515Y0052104D01*
X0001504Y0051802D01*
X0001500Y0051500D01*
X0001500Y0014000D01*
X0001504Y0013698D01*
X0001515Y0013396D01*
X0001533Y0013095D01*
X0001558Y0012794D01*
X0001591Y0012493D01*
X0001631Y0012194D01*
X0001678Y0011896D01*
X0001733Y0011598D01*
X0001794Y0011303D01*
X0001863Y0011009D01*
X0001939Y0010716D01*
X0002022Y0010426D01*
X0002112Y0010137D01*
X0002209Y0009851D01*
X0002312Y0009567D01*
X0002423Y0009286D01*
X0002540Y0009008D01*
X0002664Y0008732D01*
X0002795Y0008460D01*
X0002932Y0008191D01*
X0003075Y0007925D01*
X0003225Y0007663D01*
X0003382Y0007404D01*
X0003544Y0007150D01*
X0003713Y0006899D01*
X0003887Y0006653D01*
X0004068Y0006410D01*
X0004254Y0006173D01*
X0004446Y0005939D01*
X0004644Y0005711D01*
X0004847Y0005487D01*
X0005055Y0005269D01*
X0005269Y0005055D01*
X0005487Y0004847D01*
X0005711Y0004644D01*
X0005939Y0004446D01*
X0006173Y0004254D01*
X0006410Y0004068D01*
X0006653Y0003887D01*
X0006899Y0003713D01*
X0007150Y0003544D01*
X0007404Y0003382D01*
X0007663Y0003225D01*
X0007925Y0003075D01*
X0008191Y0002932D01*
X0008460Y0002795D01*
X0008732Y0002664D01*
X0009008Y0002540D01*
X0009286Y0002423D01*
X0009567Y0002312D01*
X0009851Y0002209D01*
X0010137Y0002112D01*
X0010426Y0002022D01*
X0010716Y0001939D01*
X0011009Y0001863D01*
X0011303Y0001794D01*
X0011598Y0001733D01*
X0011896Y0001678D01*
X0012194Y0001631D01*
X0012493Y0001591D01*
X0012794Y0001558D01*
X0013095Y0001533D01*
X0013396Y0001515D01*
X0013698Y0001504D01*
X0014000Y0001500D01*
D11*
X0030250Y0009000D02*
X0037750Y0009000D01*
X0064000Y0052750D02*
X0064000Y0060250D01*
X0060250Y0056500D02*
X0067750Y0056500D01*
D12*
X0068280Y0042450D02*
X0067446Y0041616D01*
X0067446Y0039948D01*
X0068280Y0039114D01*
X0069114Y0039114D01*
X0072450Y0042450D01*
X0072450Y0039114D01*
X0071616Y0037294D02*
X0068280Y0033957D01*
X0071616Y0033957D01*
X0072450Y0034791D01*
X0072450Y0036460D01*
X0071616Y0037294D01*
X0068280Y0037294D01*
X0067446Y0036460D01*
X0067446Y0034791D01*
X0068280Y0033957D01*
X0069114Y0032137D02*
X0067446Y0030469D01*
X0072450Y0030469D01*
X0072450Y0032137D02*
X0072450Y0028801D01*
X0071616Y0026981D02*
X0069948Y0026981D01*
X0069948Y0024479D01*
X0070782Y0023645D01*
X0071616Y0023645D01*
X0072450Y0024479D01*
X0072450Y0026147D01*
X0071616Y0026981D01*
X0069948Y0026981D02*
X0068280Y0025313D01*
X0067446Y0023645D01*
X0028700Y0023777D02*
X0028700Y0020441D01*
X0028700Y0018621D02*
X0028700Y0016119D01*
X0027866Y0015285D01*
X0024530Y0015285D01*
X0023696Y0016119D01*
X0023696Y0018621D01*
X0028700Y0018621D01*
X0026198Y0022109D02*
X0026198Y0023777D01*
X0023696Y0023777D02*
X0028700Y0023777D01*
X0028700Y0025598D02*
X0028700Y0028934D01*
X0023696Y0028934D01*
X0023696Y0031537D02*
X0022862Y0031537D01*
X0025364Y0031537D02*
X0028700Y0031537D01*
X0028700Y0032371D02*
X0028700Y0030703D01*
X0025364Y0031537D02*
X0025364Y0032371D01*
X0025364Y0034141D02*
X0025364Y0035809D01*
X0024530Y0034975D02*
X0027866Y0034975D01*
X0028700Y0034141D01*
X0028700Y0037579D02*
X0028700Y0039247D01*
X0028700Y0038413D02*
X0025364Y0038413D01*
X0025364Y0039247D01*
X0023696Y0038413D02*
X0022862Y0038413D01*
X0025364Y0041041D02*
X0025364Y0041876D01*
X0027032Y0043544D01*
X0028700Y0043544D02*
X0025364Y0043544D01*
X0023696Y0045364D02*
X0023696Y0048700D01*
X0023696Y0047032D02*
X0028700Y0047032D01*
X0023696Y0023777D02*
X0023696Y0020441D01*
D13*
X0043094Y0017986D02*
X0043094Y0013065D01*
X0046047Y0013065D01*
X0046047Y0014049D01*
X0054906Y0014049D01*
X0054906Y0017986D01*
X0053921Y0016018D02*
X0053921Y0015033D01*
X0048016Y0015033D01*
X0048016Y0016018D01*
X0053921Y0016018D01*
X0049000Y0029797D02*
X0049000Y0035703D01*
X0037189Y0032750D02*
X0037193Y0033040D01*
X0037203Y0033330D01*
X0037221Y0033619D01*
X0037246Y0033908D01*
X0037278Y0034196D01*
X0037317Y0034483D01*
X0037363Y0034769D01*
X0037416Y0035054D01*
X0037476Y0035338D01*
X0037543Y0035620D01*
X0037617Y0035900D01*
X0037698Y0036179D01*
X0037785Y0036455D01*
X0037879Y0036729D01*
X0037980Y0037001D01*
X0038088Y0037270D01*
X0038202Y0037536D01*
X0038323Y0037800D01*
X0038450Y0038060D01*
X0038584Y0038318D01*
X0038723Y0038572D01*
X0038869Y0038822D01*
X0039021Y0039069D01*
X0039180Y0039312D01*
X0039344Y0039551D01*
X0039513Y0039786D01*
X0039689Y0040017D01*
X0039870Y0040243D01*
X0040057Y0040465D01*
X0040249Y0040682D01*
X0040446Y0040894D01*
X0040648Y0041102D01*
X0040856Y0041304D01*
X0041068Y0041501D01*
X0041285Y0041693D01*
X0041507Y0041880D01*
X0041733Y0042061D01*
X0041964Y0042237D01*
X0042199Y0042406D01*
X0042438Y0042570D01*
X0042681Y0042729D01*
X0042928Y0042881D01*
X0043178Y0043027D01*
X0043432Y0043166D01*
X0043690Y0043300D01*
X0043950Y0043427D01*
X0044214Y0043548D01*
X0044480Y0043662D01*
X0044749Y0043770D01*
X0045021Y0043871D01*
X0045295Y0043965D01*
X0045571Y0044052D01*
X0045850Y0044133D01*
X0046130Y0044207D01*
X0046412Y0044274D01*
X0046696Y0044334D01*
X0046981Y0044387D01*
X0047267Y0044433D01*
X0047554Y0044472D01*
X0047842Y0044504D01*
X0048131Y0044529D01*
X0048420Y0044547D01*
X0048710Y0044557D01*
X0049000Y0044561D01*
X0049290Y0044557D01*
X0049580Y0044547D01*
X0049869Y0044529D01*
X0050158Y0044504D01*
X0050446Y0044472D01*
X0050733Y0044433D01*
X0051019Y0044387D01*
X0051304Y0044334D01*
X0051588Y0044274D01*
X0051870Y0044207D01*
X0052150Y0044133D01*
X0052429Y0044052D01*
X0052705Y0043965D01*
X0052979Y0043871D01*
X0053251Y0043770D01*
X0053520Y0043662D01*
X0053786Y0043548D01*
X0054050Y0043427D01*
X0054310Y0043300D01*
X0054568Y0043166D01*
X0054822Y0043027D01*
X0055072Y0042881D01*
X0055319Y0042729D01*
X0055562Y0042570D01*
X0055801Y0042406D01*
X0056036Y0042237D01*
X0056267Y0042061D01*
X0056493Y0041880D01*
X0056715Y0041693D01*
X0056932Y0041501D01*
X0057144Y0041304D01*
X0057352Y0041102D01*
X0057554Y0040894D01*
X0057751Y0040682D01*
X0057943Y0040465D01*
X0058130Y0040243D01*
X0058311Y0040017D01*
X0058487Y0039786D01*
X0058656Y0039551D01*
X0058820Y0039312D01*
X0058979Y0039069D01*
X0059131Y0038822D01*
X0059277Y0038572D01*
X0059416Y0038318D01*
X0059550Y0038060D01*
X0059677Y0037800D01*
X0059798Y0037536D01*
X0059912Y0037270D01*
X0060020Y0037001D01*
X0060121Y0036729D01*
X0060215Y0036455D01*
X0060302Y0036179D01*
X0060383Y0035900D01*
X0060457Y0035620D01*
X0060524Y0035338D01*
X0060584Y0035054D01*
X0060637Y0034769D01*
X0060683Y0034483D01*
X0060722Y0034196D01*
X0060754Y0033908D01*
X0060779Y0033619D01*
X0060797Y0033330D01*
X0060807Y0033040D01*
X0060811Y0032750D01*
X0060807Y0032460D01*
X0060797Y0032170D01*
X0060779Y0031881D01*
X0060754Y0031592D01*
X0060722Y0031304D01*
X0060683Y0031017D01*
X0060637Y0030731D01*
X0060584Y0030446D01*
X0060524Y0030162D01*
X0060457Y0029880D01*
X0060383Y0029600D01*
X0060302Y0029321D01*
X0060215Y0029045D01*
X0060121Y0028771D01*
X0060020Y0028499D01*
X0059912Y0028230D01*
X0059798Y0027964D01*
X0059677Y0027700D01*
X0059550Y0027440D01*
X0059416Y0027182D01*
X0059277Y0026928D01*
X0059131Y0026678D01*
X0058979Y0026431D01*
X0058820Y0026188D01*
X0058656Y0025949D01*
X0058487Y0025714D01*
X0058311Y0025483D01*
X0058130Y0025257D01*
X0057943Y0025035D01*
X0057751Y0024818D01*
X0057554Y0024606D01*
X0057352Y0024398D01*
X0057144Y0024196D01*
X0056932Y0023999D01*
X0056715Y0023807D01*
X0056493Y0023620D01*
X0056267Y0023439D01*
X0056036Y0023263D01*
X0055801Y0023094D01*
X0055562Y0022930D01*
X0055319Y0022771D01*
X0055072Y0022619D01*
X0054822Y0022473D01*
X0054568Y0022334D01*
X0054310Y0022200D01*
X0054050Y0022073D01*
X0053786Y0021952D01*
X0053520Y0021838D01*
X0053251Y0021730D01*
X0052979Y0021629D01*
X0052705Y0021535D01*
X0052429Y0021448D01*
X0052150Y0021367D01*
X0051870Y0021293D01*
X0051588Y0021226D01*
X0051304Y0021166D01*
X0051019Y0021113D01*
X0050733Y0021067D01*
X0050446Y0021028D01*
X0050158Y0020996D01*
X0049869Y0020971D01*
X0049580Y0020953D01*
X0049290Y0020943D01*
X0049000Y0020939D01*
X0048710Y0020943D01*
X0048420Y0020953D01*
X0048131Y0020971D01*
X0047842Y0020996D01*
X0047554Y0021028D01*
X0047267Y0021067D01*
X0046981Y0021113D01*
X0046696Y0021166D01*
X0046412Y0021226D01*
X0046130Y0021293D01*
X0045850Y0021367D01*
X0045571Y0021448D01*
X0045295Y0021535D01*
X0045021Y0021629D01*
X0044749Y0021730D01*
X0044480Y0021838D01*
X0044214Y0021952D01*
X0043950Y0022073D01*
X0043690Y0022200D01*
X0043432Y0022334D01*
X0043178Y0022473D01*
X0042928Y0022619D01*
X0042681Y0022771D01*
X0042438Y0022930D01*
X0042199Y0023094D01*
X0041964Y0023263D01*
X0041733Y0023439D01*
X0041507Y0023620D01*
X0041285Y0023807D01*
X0041068Y0023999D01*
X0040856Y0024196D01*
X0040648Y0024398D01*
X0040446Y0024606D01*
X0040249Y0024818D01*
X0040057Y0025035D01*
X0039870Y0025257D01*
X0039689Y0025483D01*
X0039513Y0025714D01*
X0039344Y0025949D01*
X0039180Y0026188D01*
X0039021Y0026431D01*
X0038869Y0026678D01*
X0038723Y0026928D01*
X0038584Y0027182D01*
X0038450Y0027440D01*
X0038323Y0027700D01*
X0038202Y0027964D01*
X0038088Y0028230D01*
X0037980Y0028499D01*
X0037879Y0028771D01*
X0037785Y0029045D01*
X0037698Y0029321D01*
X0037617Y0029600D01*
X0037543Y0029880D01*
X0037476Y0030162D01*
X0037416Y0030446D01*
X0037363Y0030731D01*
X0037317Y0031017D01*
X0037278Y0031304D01*
X0037246Y0031592D01*
X0037221Y0031881D01*
X0037203Y0032170D01*
X0037193Y0032460D01*
X0037189Y0032750D01*
X0046047Y0032750D02*
X0051953Y0032750D01*
X0033252Y0032750D02*
X0033257Y0033136D01*
X0033271Y0033523D01*
X0033295Y0033908D01*
X0033328Y0034294D01*
X0033370Y0034678D01*
X0033422Y0035061D01*
X0033484Y0035442D01*
X0033555Y0035822D01*
X0033635Y0036200D01*
X0033724Y0036576D01*
X0033822Y0036950D01*
X0033930Y0037321D01*
X0034047Y0037690D01*
X0034173Y0038055D01*
X0034307Y0038418D01*
X0034451Y0038776D01*
X0034603Y0039132D01*
X0034764Y0039483D01*
X0034934Y0039830D01*
X0035112Y0040174D01*
X0035298Y0040512D01*
X0035492Y0040846D01*
X0035695Y0041175D01*
X0035906Y0041499D01*
X0036125Y0041818D01*
X0036351Y0042131D01*
X0036585Y0042439D01*
X0036827Y0042740D01*
X0037075Y0043036D01*
X0037332Y0043326D01*
X0037595Y0043609D01*
X0037864Y0043886D01*
X0038141Y0044155D01*
X0038424Y0044418D01*
X0038714Y0044675D01*
X0039010Y0044923D01*
X0039311Y0045165D01*
X0039619Y0045399D01*
X0039932Y0045625D01*
X0040251Y0045844D01*
X0040575Y0046055D01*
X0040904Y0046258D01*
X0041238Y0046452D01*
X0041576Y0046638D01*
X0041920Y0046816D01*
X0042267Y0046986D01*
X0042618Y0047147D01*
X0042974Y0047299D01*
X0043332Y0047443D01*
X0043695Y0047577D01*
X0044060Y0047703D01*
X0044429Y0047820D01*
X0044800Y0047928D01*
X0045174Y0048026D01*
X0045550Y0048115D01*
X0045928Y0048195D01*
X0046308Y0048266D01*
X0046689Y0048328D01*
X0047072Y0048380D01*
X0047456Y0048422D01*
X0047842Y0048455D01*
X0048227Y0048479D01*
X0048614Y0048493D01*
X0049000Y0048498D01*
X0049386Y0048493D01*
X0049773Y0048479D01*
X0050158Y0048455D01*
X0050544Y0048422D01*
X0050928Y0048380D01*
X0051311Y0048328D01*
X0051692Y0048266D01*
X0052072Y0048195D01*
X0052450Y0048115D01*
X0052826Y0048026D01*
X0053200Y0047928D01*
X0053571Y0047820D01*
X0053940Y0047703D01*
X0054305Y0047577D01*
X0054668Y0047443D01*
X0055026Y0047299D01*
X0055382Y0047147D01*
X0055733Y0046986D01*
X0056080Y0046816D01*
X0056424Y0046638D01*
X0056762Y0046452D01*
X0057096Y0046258D01*
X0057425Y0046055D01*
X0057749Y0045844D01*
X0058068Y0045625D01*
X0058381Y0045399D01*
X0058689Y0045165D01*
X0058990Y0044923D01*
X0059286Y0044675D01*
X0059576Y0044418D01*
X0059859Y0044155D01*
X0060136Y0043886D01*
X0060405Y0043609D01*
X0060668Y0043326D01*
X0060925Y0043036D01*
X0061173Y0042740D01*
X0061415Y0042439D01*
X0061649Y0042131D01*
X0061875Y0041818D01*
X0062094Y0041499D01*
X0062305Y0041175D01*
X0062508Y0040846D01*
X0062702Y0040512D01*
X0062888Y0040174D01*
X0063066Y0039830D01*
X0063236Y0039483D01*
X0063397Y0039132D01*
X0063549Y0038776D01*
X0063693Y0038418D01*
X0063827Y0038055D01*
X0063953Y0037690D01*
X0064070Y0037321D01*
X0064178Y0036950D01*
X0064276Y0036576D01*
X0064365Y0036200D01*
X0064445Y0035822D01*
X0064516Y0035442D01*
X0064578Y0035061D01*
X0064630Y0034678D01*
X0064672Y0034294D01*
X0064705Y0033908D01*
X0064729Y0033523D01*
X0064743Y0033136D01*
X0064748Y0032750D01*
X0064743Y0032364D01*
X0064729Y0031977D01*
X0064705Y0031592D01*
X0064672Y0031206D01*
X0064630Y0030822D01*
X0064578Y0030439D01*
X0064516Y0030058D01*
X0064445Y0029678D01*
X0064365Y0029300D01*
X0064276Y0028924D01*
X0064178Y0028550D01*
X0064070Y0028179D01*
X0063953Y0027810D01*
X0063827Y0027445D01*
X0063693Y0027082D01*
X0063549Y0026724D01*
X0063397Y0026368D01*
X0063236Y0026017D01*
X0063066Y0025670D01*
X0062888Y0025326D01*
X0062702Y0024988D01*
X0062508Y0024654D01*
X0062305Y0024325D01*
X0062094Y0024001D01*
X0061875Y0023682D01*
X0061649Y0023369D01*
X0061415Y0023061D01*
X0061173Y0022760D01*
X0060925Y0022464D01*
X0060668Y0022174D01*
X0060405Y0021891D01*
X0060136Y0021614D01*
X0059859Y0021345D01*
X0059576Y0021082D01*
X0059286Y0020825D01*
X0058990Y0020577D01*
X0058689Y0020335D01*
X0058381Y0020101D01*
X0058068Y0019875D01*
X0057749Y0019656D01*
X0057425Y0019445D01*
X0057096Y0019242D01*
X0056762Y0019048D01*
X0056424Y0018862D01*
X0056080Y0018684D01*
X0055733Y0018514D01*
X0055382Y0018353D01*
X0055026Y0018201D01*
X0054668Y0018057D01*
X0054305Y0017923D01*
X0053940Y0017797D01*
X0053571Y0017680D01*
X0053200Y0017572D01*
X0052826Y0017474D01*
X0052450Y0017385D01*
X0052072Y0017305D01*
X0051692Y0017234D01*
X0051311Y0017172D01*
X0050928Y0017120D01*
X0050544Y0017078D01*
X0050158Y0017045D01*
X0049773Y0017021D01*
X0049386Y0017007D01*
X0049000Y0017002D01*
X0048614Y0017007D01*
X0048227Y0017021D01*
X0047842Y0017045D01*
X0047456Y0017078D01*
X0047072Y0017120D01*
X0046689Y0017172D01*
X0046308Y0017234D01*
X0045928Y0017305D01*
X0045550Y0017385D01*
X0045174Y0017474D01*
X0044800Y0017572D01*
X0044429Y0017680D01*
X0044060Y0017797D01*
X0043695Y0017923D01*
X0043332Y0018057D01*
X0042974Y0018201D01*
X0042618Y0018353D01*
X0042267Y0018514D01*
X0041920Y0018684D01*
X0041576Y0018862D01*
X0041238Y0019048D01*
X0040904Y0019242D01*
X0040575Y0019445D01*
X0040251Y0019656D01*
X0039932Y0019875D01*
X0039619Y0020101D01*
X0039311Y0020335D01*
X0039010Y0020577D01*
X0038714Y0020825D01*
X0038424Y0021082D01*
X0038141Y0021345D01*
X0037864Y0021614D01*
X0037595Y0021891D01*
X0037332Y0022174D01*
X0037075Y0022464D01*
X0036827Y0022760D01*
X0036585Y0023061D01*
X0036351Y0023369D01*
X0036125Y0023682D01*
X0035906Y0024001D01*
X0035695Y0024325D01*
X0035492Y0024654D01*
X0035298Y0024988D01*
X0035112Y0025326D01*
X0034934Y0025670D01*
X0034764Y0026017D01*
X0034603Y0026368D01*
X0034451Y0026724D01*
X0034307Y0027082D01*
X0034173Y0027445D01*
X0034047Y0027810D01*
X0033930Y0028179D01*
X0033822Y0028550D01*
X0033724Y0028924D01*
X0033635Y0029300D01*
X0033555Y0029678D01*
X0033484Y0030058D01*
X0033422Y0030439D01*
X0033370Y0030822D01*
X0033328Y0031206D01*
X0033295Y0031592D01*
X0033271Y0031977D01*
X0033257Y0032364D01*
X0033252Y0032750D01*
X0043094Y0047514D02*
X0043094Y0051451D01*
X0051953Y0051451D01*
X0051953Y0052435D01*
X0054906Y0052435D01*
X0054906Y0047514D01*
M02*
